<svg xmlns="http://www.w3.org/2000/svg" viewBox="0 0 65 65"><path d="M30 5h1.4v1.4H30zM33.8 5h1.5v1.4h-1.5zM37.7 5H39v1.4h-1.3zM26 5h1.5v1.4H26z"/><path d="M46.2 3V-.2H18.8V3H6.2v62.2H59v-62H46zm-26-1.7h24.5v9H20.3v-9zm37 62.5H7.8V4.6h11v7h27.5v-7h11v59.2z"/><path d="M27.7 18.2h22.7v1.5H27.7zM27.7 22.8H47v1.5H27.8zM13 27.4h12V15H13v12.4zm1.4-10.8h9.2v9.2h-9.2v-9.2zM17.7 38.8l-1-1-1.2 1 2.2 2 4.7-4.5-1-1M27.7 34.8h22.7v1.5H27.7zM27.7 39.3H47v1.5H27.8z"/><path d="M13 44h12V31.6H13V44zM14.3 33h9.2v9.2h-9.2v-9.2zM17.7 55l-1-1-1.2 1 2.2 2.2 4.7-4.7-1-1M27.7 51h22.7v1.6H27.7zM27.7 55.6H47V57H27.8z"/><path d="M13 60.2h12V48H13v12.2zm1.4-10.7h9.2v9.2h-9.2v-9.2z"/></svg>