<svg xmlns="http://www.w3.org/2000/svg" viewBox="0 0 100 100"><path d="M12.2 87c0 .6.4 1 1 1H86c.6 0 1-.4 1-1s-.4-1-1-1h-9.4c.8-.5 1.3-1.3 1.6-2.3h1c.7 0 1-.4 1-1v-7c0-3.8-3-6.8-6.7-6.8h-.3v-3.5c0-.6-.4-1-1-1H53.4c-.6 0-1 .4-1 1v17.2c0 .6.4 1 1 1h1c0 1 .7 1.7 1.5 2.3H41.4c.8-.5 1.3-1.3 1.6-2.3h1.2c.6 0 1-.4 1-1v-7c0-3.8-3-6.8-6.8-6.8H38v-3.5c0-.6-.4-1-1-1H18.4c-.6 0-1 .4-1 1v17.2c0 .6.4 1 1 1h1c0 1 .7 1.7 1.5 2.3H13c-.5 0-1 .4-1 1zm60-4.3c0-1 1-2 2-2s2 1 2 2-1 2-2 2-2-1-2-2zm-1-16.3v3.4c0 .6.3 1 1 1h1.2c2.7 0 4.8 2.2 4.8 4.8v6c-.6-1.7-2-3-4-3s-3.4 1.3-4 3H62c-.5-1.7-2-3-4-3-1.7 0-3 1-3.7 2.7v-15H71zM58 80.7c1 0 2 1 2 2s-1 2-2 2-2-1-2-2 1-2 2-2zm4 3h8.2c.2 1 .8 1.7 1.6 2.3H60.5c.8-.6 1.4-1.4 1.6-2.3zm-25-1c0-1 1-2 2-2s2 1 2 2-1 2-2 2-2-1-2-2zM36 66.4v3.4c0 .6.4 1 1 1h1.3c2.7 0 4.8 2.2 4.8 4.8v6c-.5-1.7-2-3-4-3-1.8 0-3.3 1.3-3.8 3H27c-.5-1.7-2-3-4-3-1.7 0-3 1-3.7 2.7v-15H36zM23.2 80.7c1 0 2 1 2 2s-1 2-2 2-2-1-2-2 1-2 2-2zm4 3h8.2c.2 1 .8 1.7 1.6 2.3H25.5c.8-.6 1.3-1.4 1.6-2.3zM86 57.2h-5.7V15c0-.6-.4-1-1-1h-31c-.6 0-1 .4-1 1v42.2H43V27.8c0-.6-.4-1-1-1H19.2c-.6 0-1 .4-1 1v29.4h-5c-.6 0-1 .4-1 1s.4 1 1 1H86c.6 0 1-.4 1-1s-.5-1-1-1zM49.3 16h29v41.2h-29V16zm-29 12.8H41v28.4H20.2V28.8z"/><path d="M74.2 20h-4.4c-.6 0-1 .5-1 1v8.2c0 .6.4 1 1 1h4.4c.6 0 1-.4 1-1v-8c0-.6-.4-1-1-1zm-1 8.2h-2.4v-6h2.4v6zM66 20h-4.3c-.6 0-1 .5-1 1v8.2c0 .6.4 1 1 1H66c.7 0 1-.4 1-1v-8c0-.6-.3-1-1-1zm-1 8.2h-2.3v-6H65v6zM58 20h-4.3c-.6 0-1 .5-1 1v8.2c0 .6.4 1 1 1H58c.7 0 1-.4 1-1v-8c0-.6-.4-1-1-1zm-1 8.2h-2.3v-6H57v6zM74.2 32h-4.4c-.6 0-1 .5-1 1v8.2c0 .6.4 1 1 1h4.4c.6 0 1-.4 1-1v-8c0-.7-.4-1-1-1zm-1 8.2h-2.4v-6h2.4v6zM66 32h-4.3c-.6 0-1 .5-1 1v8.2c0 .6.4 1 1 1H66c.7 0 1-.4 1-1v-8c0-.7-.3-1-1-1zm-1 8.2h-2.3v-6H65v6zM58 32h-4.3c-.6 0-1 .5-1 1v8.2c0 .6.4 1 1 1H58c.7 0 1-.4 1-1v-8c0-.7-.4-1-1-1zm-1 8.2h-2.3v-6H57v6zM74.2 44h-4.4c-.6 0-1 .3-1 1v8c0 .6.4 1 1 1h4.4c.6 0 1-.4 1-1v-8c0-.7-.4-1-1-1zm-1 8h-2.4v-6h2.4v6zM66 44h-4.3c-.6 0-1 .3-1 1v8c0 .6.4 1 1 1H66c.7 0 1-.4 1-1v-8c0-.7-.3-1-1-1zm-1 8h-2.3v-6H65v6zM58 44h-4.3c-.6 0-1 .3-1 1v8c0 .6.4 1 1 1H58c.7 0 1-.4 1-1v-8c0-.7-.4-1-1-1zm-1 8h-2.3v-6H57v6zM36.7 32h-4.4c-.6 0-1 .5-1 1v8.2c0 .6.4 1 1 1h4.4c.6 0 1-.4 1-1v-8c0-.7-.5-1-1-1zm-1 8.2h-2.4v-6h2.4v6zM28.6 32h-4.4c-.6 0-1 .5-1 1v8.2c0 .6.4 1 1 1h4.4c.6 0 1-.4 1-1v-8c0-.7-.5-1-1-1zm-1 8.2h-2.4v-6h2.4v6zM36.7 44h-4.4c-.6 0-1 .3-1 1v8c0 .6.4 1 1 1h4.4c.6 0 1-.4 1-1v-8c0-.7-.5-1-1-1zm-1 8h-2.4v-6h2.4v6zM28.6 44h-4.4c-.6 0-1 .3-1 1v8c0 .6.4 1 1 1h4.4c.6 0 1-.4 1-1v-8c0-.7-.5-1-1-1zm-1 8h-2.4v-6h2.4v6z"/></svg>