<svg xmlns="http://www.w3.org/2000/svg" viewBox="0 0 512 640"><path d="M510 209.6c0-68.5-47.8-124.2-106.6-124.2-16 0-31.8 4.3-46.3 12.5-19-42-57-70-101-70-43 0-81 28-101 70-14-9-30-13-46-13C50 85 2 141 2 209c0 59 36.8 123.2 88.4 136L65 380.4h35.6l-7.6 15c-8.2 16.4-3 36.4 12.3 46.5 5 3 8.2 8 8.8 14 1 6-1 12-5 16l11 12c8-8 12-19 11-30s-7-21-16-27c-8-5.6-11-16.5-7-25.5l11-22.4h27l-24-34c30-5 57.6-28 75.5-62.7 13 10.5 27.6 18.2 43.5 21.3L216 338h35l-7.6 15c-8.2 16.5-3 36.5 12.3 46.6 5 3.2 8.2 8.5 8.8 14.5.6 6-1.5 12-5.7 16l-8.5 9 11.7 11 8-8.5c7.8-8 11.6-18.5 10.6-29.3-1.2-11-7-20.5-16-26.5-8.4-5.5-11.3-16.4-7-25.4l11.4-22h27.5l-25-34c16-3 30.6-11 43.5-21.5 17.3 33.7 43.8 56 72.6 62.2l-25 34.5h35.7l-7.6 15c-8.3 16.5-3 36.5 12.2 46.6 5 3 8 8.5 8 14.5s-2 12-6 16l12 12c7-7.8 11-18.5 10-29-1-11-7-21-16-27-8.6-5.3-11-16.2-7-25.2l11-22.8h28l-24-33c53-11 91-76.6 91-136zM105.5 352l8.5 12H97l8.5-12zm3-21c-51.5 0-90-64-90-121.4 0-59.5 40.4-108 90-108 14 0 27.8 4 40.3 11.6-5 15-7.5 30.7-7.5 46.8 0 41 16.4 83.2 43 112-17.3 36.5-46 59-75.7 59zM256 311l8.5 12h-17l8.5-12zm0-21c-56.3 0-98.3-68.6-98.3-130 0-63.8 44-115.7 98.3-115.7s98.3 52 98.3 115.6c0 61-42 130-98.3 130zm139 74l8.5-12 8.5 12h-17zm8.4-33c-29.7 0-58.4-22.4-75.8-59 26.7-28.8 43-71 43-112 0-16-2.4-31.8-7.4-46.8 12.5-7.5 26.3-11.4 40.2-11.4 49.7 0 90.2 48.4 90.2 108 0 57-38.6 121.3-90.2 121.3z"/></svg>