<svg xmlns="http://www.w3.org/2000/svg" viewBox="0 0 45 56.25"><path d="M11 37.5l.8.4V17l-.7-.5M22 13v21l.6-.3h.4V13l-.3-.3M34.2 16l-1 .6V38l1-.7"/><path fill="none" d="M25 13l-2.5-1-10.7 4.3-7.4-4v22.2l7.5 4 10-4.2 2.5 1 8 3.3 7.4-4V12.2l-7.4 4-2.4-1"/><path d="M33 14l-1.8-.6-.7 2 2.6 1 8-4v22l-8 4.3-8-3.3-2.3-1h-.2L12 38.6l-7.6-4V12.2l7.4 4L22.5 12l2.6 1-1-2.6-1-.6L12 14 2.3 9v26.7l9.4 5 10.7-4.2L33 40.8l9.6-5v-27"/><path d="M28.2 3.4c-2.3 0-4 2-4 4.2v1.2l4 10 4-10.3c.2-.3.2-.6.2-1 0-2.2-2-4-4.2-4zm0 6.2c-1 0-1.7-.8-1.7-1.8S27.3 6 28.2 6s1.8.8 1.8 1.8-.8 1.8-1.8 1.8z"/></svg>