<svg xmlns="http://www.w3.org/2000/svg" viewBox="0 0 100 100" class="stroked"><circle cx="386.5" cy="16.5" r="3.6"/><path stroke-width="2" d="M392 16.5c0 2.4-3.5 7.2-4.9 9.1-.3.4-.9.4-1.2 0-1.4-2-4.9-6.7-4.9-9.1 0-3 2.5-5.5 5.5-5.5s5.5 2.4 5.5 5.5z"/><circle cx="404.1" cy="45.6" r="3.6"/><path stroke-width="2" d="M409.6 45.6c0 2.4-3.5 7.2-4.9 9.1-.3.4-.9.4-1.2 0-1.4-2-4.9-6.7-4.9-9.1 0-3 2.5-5.5 5.5-5.5 3.1.1 5.5 2.5 5.5 5.5z"/><path stroke-width="2" d="M381.2.9h27.9c4.5 0 8.1 3.7 8.1 8.1v54.6c0 4.5-3.7 8.1-8.1 8.1h-27.9c-4.5 0-8.1-3.7-8.1-8.1V9.1c0-4.5 3.6-8.2 8.1-8.2z"/><path d="M382 6.1h26.4c2.4 0 4.4 2 4.4 4.4v47.7c0 2.4-2 4.4-4.4 4.4H382c-2.4 0-4.4-2-4.4-4.4V10.5c-.1-2.4 1.9-4.4 4.4-4.4z"/><circle cx="395.2" cy="67.2" r="1.9"/><line x1="388.8" y1="3.6" x2="395.8" y2="3.6"/><line x1="398.7" y1="3.6" x2="402.2" y2="3.6"/><path stroke-width="2" d="M386.5 29.3h14.3c2 0 3.7 1.7 3.7 3.7s-1.7 3.7-3.7 3.7H386c-2.1 0-3.7 1.7-3.7 3.7v14.4c0 2.1 1.7 3.7 3.7 3.7h18.5"/><polygon stroke-width="2" points="23.7,80.7 78.4,80.7 24.7,27"/><polyline stroke-width="2" points="24.7,27 27.3,24.5 80.9,78.1 78.4,80.7"/><path stroke-width="0.9766" d="M30.5 22.5h.1c2.8 0 5.1 2.3 5.1 5.1v.2c0 2.8 2.3 5.1 5.1 5.1h.4c2.8 0 5.1 2.3 5.1 5.1v.1c0 2.8 2.3 5.1 5.1 5.1h.2c2.8 0 5.1 2.3 5.1 5.1v.3c0 2.8 2.3 5.1 5.1 5.1h.3c2.8 0 5.1 2.3 5.1 5.1v.3c0 2.8 2.3 5.1 5.1 5.1h.4c2.8 0 5.1 2.3 5.1 5.1v.3c0 2.8 2.3 5.1 5.1 5.1h.2"/><path d="M68.3 57.6v.2c0 2.8 2.3 5.1 5.1 5.1h.4M57.7 47.1v.2c0 2.8 2.3 5.1 5.1 5.1h.2M47.4 36.8c0 2.8 2.3 5.1 5.1 5.1h.1M42.1 31.6h-.2c-1.7 0-3.2-.8-4.1-2.1m-.9-3.2v.2c0 .5.1 1 .2 1.4"/><rect x="22.9" y="42.6" transform="rotate(-135 60.783 44.59)" stroke-width="2" width="75.9" height="3.9"/><line stroke-width="2" x1="32.5" y1="19.3" x2="32.5" y2="20.3"/><line stroke-width="2" x1="32.6" y1="25.3" x2="32.6" y2="29.4"/><line stroke-width="2" x1="86.2" y1="72.8" x2="83" y2="72.8"/><line stroke-width="2" x1="76.6" y1="72.8" x2="75.8" y2="72.8"/></svg>