<svg xmlns="http://www.w3.org/2000/svg" viewBox="0 0 48 60"><path d="M8.5 46.7V35.3h-8v-34h47v34H19.9L8.5 46.7zm-6-13.4h8v8.6l8.6-8.6h26.4v-30h-43v30z"/><path d="M23.5 28.6v-2c-1-.1-1.8-.4-2.5-.7-.6-.3-1.2-.9-1.7-1.6-.5-.7-.7-1.6-.8-2.7l2-.4c.2 1.1.4 1.9.8 2.4.6.7 1.3 1.1 2.1 1.2v-6.5c-.8-.2-1.7-.5-2.6-1-.6-.4-1.1-.9-1.5-1.5-.4-.6-.5-1.4-.5-2.2 0-1.4.5-2.6 1.5-3.5.7-.6 1.7-1 3.1-1.1V8h1.2v1c1.2.1 2.1.5 2.8 1 .9.7 1.4 1.8 1.6 3l-2 .4c-.1-.8-.4-1.4-.8-1.8-.4-.4-.9-.7-1.6-.8v5.9l2 .6c.6.3 1.2.6 1.6 1 .4.4.7.9.9 1.4.2.6.3 1.1.3 1.8 0 1.4-.4 2.6-1.3 3.5-.9.9-2.1 1.4-3.5 1.5v2.1h-1.1zm0-17.9c-.8.1-1.4.4-1.9 1-.5.5-.7 1.1-.7 1.8s.2 1.3.6 1.7c.4.5 1 .8 2 1.1v-5.6zm1.2 14.1c.8-.1 1.4-.4 2-1 .5-.6.8-1.3.8-2.2 0-.7-.2-1.3-.5-1.8-.4-.4-1.1-.9-2.2-1.2v6.2z"/></svg>