<svg xmlns="http://www.w3.org/2000/svg" viewBox="0 0 512 640"><path d="M92.1 227.3c-13.6 0-24.6 11-24.6 24.6 0 13.6 11 24.6 24.6 24.6s24.6-11 24.6-24.6c0-13.5-11-24.6-24.6-24.6zm0 32.8c-4.5 0-8.2-3.7-8.2-8.2 0-4.5 3.7-8.2 8.2-8.2 4.5 0 8.2 3.7 8.2 8.2 0 4.5-3.7 8.2-8.2 8.2z"/><path d="M359.9 133.8c1.7-6.9 2.6-14 2.6-21.2 0-49.7-40.4-90.1-90.1-90.1-49.7 0-90.1 40.4-90.1 90.1 0 5.9.6 11.7 1.7 17.3-7.3 1.7-14.6 3.5-21.5 5.6-16.7-24.4-44.6-39.3-74.3-39.3-26.1 0-52.1 13.5-52.1 13.5l20.5 7.7c20.7 7.8 36.8 24.3 43.9 45-29.8 17.8-52.7 40.1-66.6 65H2V342h31.8c17.5 31.3 49.5 58.6 91.1 77.7v69.8h98.3v-43.3c25 2.8 49.1 3.1 73.7.9v42.4h98.3v-66.1c72-30.1 114.8-81.6 114.8-138.7 0-66.8-58.7-125.3-150.1-150.9zm-87.5-94.9c40.7 0 73.7 33.1 73.7 73.7 0 18.3-6.6 35.7-18.8 49.2h-46.7v-9.7c9.5-3.4 16.4-12.4 16.4-23.1 0-13.6-11-24.6-24.6-24.6-4.5 0-8.2-3.7-8.2-8.2 0-4.5 3.7-8.2 8.2-8.2 4.5 0 8.2 3.7 8.2 8.2H297c0-10.7-6.9-19.7-16.4-23.1v-9.7h-16.4v9.7c-9.5 3.4-16.4 12.4-16.4 23.1 0 13.6 11 24.6 24.6 24.6 4.5 0 8.2 3.7 8.2 8.2 0 4.5-3.7 8.2-8.2 8.2-4.5 0-8.2-3.7-8.2-8.2h-16.4c0 10.7 6.9 19.7 16.4 23.1v9.7h-46.8c-12.1-13.5-18.8-30.8-18.8-49.2 0-40.7 33.1-73.7 73.8-73.7zm111.7 371.4l-5.2 2.1v60.8h-65.5v-44.3l-9.1 1c-29.3 3.3-58.1 3.1-88.1-1.1l-9.3-1.3v45.6h-65.5V409l-4.9-2.1c-42.5-18.5-74.6-45.7-90.3-76.7l-2.3-4.5H18.4v-81.9h25.4s19-45.2 70.3-70.3l5.5-3.1-1.5-6.1c-5.3-21-18-39.2-35.4-51.4 27.8-2 55 12.3 69.1 36.5l3.3 5.7s24.1-7.2 33.5-9.4c2.2 5.6 5 11 8.3 16.1h-14.6v16.4h180.3v-16.4H348c2.6-4 4.8-8.1 6.7-12.4 83.4 23.2 139 76.9 139 135.4-.1 51.3-41 98.3-109.6 125.5z"/></svg>