<svg xmlns="http://www.w3.org/2000/svg" viewBox="0 0 512 640"><path d="M233.8 277.6l-25.8-43-64 106.7h224L282.7 192l-49 85.6zm-52 42.4l26.2-44 13.6 22.8-12 21.2h-28zm52.3 0l48.8-85 48.5 85h-97z"/><path d="M416 85.3h-21.3V64h-21.4V0H352v64h-21.3v21.3H181.3V64H160V0h-21.3v64h-21.4v21.3H74.7V512h362.6V85.3H416zm-64 0h21.3v21.4H352V85.3zm-213.3 0H160v21.4h-21.3V85.3zM416 490.7H96v-384h21.3V128h64v-21.3h149.4V128h64v-21.3H416v384z"/><path d="M298.7 426.7h-85.4c-6 0-10.6 4.7-10.6 10.6s4.7 10.7 10.6 10.7h85.4c6 0 10.6-4.8 10.6-10.7s-4.7-10.6-10.6-10.6zm42.6-42.7H170.7c-6 0-10.7 4.8-10.7 10.7 0 6 4.8 10.6 10.7 10.6h170.6c6 0 10.7-4.7 10.7-10.6 0-6-4.8-10.7-10.7-10.7z"/></svg>