<svg xmlns="http://www.w3.org/2000/svg" viewBox="0 0 100 125"><path d="M71.8 33.2c7.2 0 13-5.8 13-13s-5.8-13-13-13-13 5.8-13 13c0 1.5.3 2.9.7 4.2L36.9 41c-2.3-2.3-5.6-3.7-9.1-3.7-7.2 0-13 5.8-13 13s5.8 13 13 13c3.5 0 6.8-1.4 9.1-3.7l22.6 16.6c-.4 1.3-.7 2.7-.7 4.2 0 7.2 5.8 13 13 13s13-5.8 13-13-5.8-13-13-13c-3.5 0-6.8 1.4-9.1 3.7L40.1 54.4c.4-1.3.7-2.7.7-4.2s-.3-2.9-.7-4.2l22.6-16.6c2.3 2.4 5.5 3.8 9.1 3.8zm0-20c3.9 0 7 3.1 7 7s-3.1 7-7 7-7-3.1-7-7 3.1-7 7-7zm-44 44c-3.9 0-7-3.1-7-7s3.1-7 7-7 7 3.1 7 7-3.2 7-7 7zm44 16c3.9 0 7 3.1 7 7s-3.1 7-7 7-7-3.1-7-7 3.1-7 7-7z"/></svg>