<svg xmlns="http://www.w3.org/2000/svg" viewBox="0 0 100 100"><title>jackielua</title><g data-name="Layer 1"><path d="M87.5 34h-75a1.5 1.5 0 0 0-1.5 1.5v55a1.5 1.5 0 0 0 1.5 1.5h75a1.5 1.5 0 0 0 1.5-1.5v-55a1.5 1.5 0 0 0-1.5-1.5zM86 89H14V37h72z"/><path d="M34 69.5l-5 5-2-2a1.5 1.5 0 0 0-2 2.2l3 3a1.5 1.5 0 0 0 2 0l6-6a1.5 1.5 0 1 0-2-2.2zM67 57.7a1.5 1.5 0 0 0 2 0l6-6a1.5 1.5 0 0 0-2-2.2l-5 5-2-2a1.5 1.5 0 1 0-2 2.2zM87.5 15H73V9.5a1.5 1.5 0 0 0-3 0V15H30V9.5a1.5 1.5 0 0 0-3 0V15H12.5a1.5 1.5 0 0 0-1.5 1.5v12a1.5 1.5 0 0 0 3 0V18h13v2.2a5.5 5.5 0 1 0 3 0V18h40v2.2a5.5 5.5 0 1 0 3 0V18h13v10.5a1.5 1.5 0 0 0 3 0v-12a1.5 1.5 0 0 0-1.5-1.5zM31 25.5a2.5 2.5 0 1 1-2.5-2.5 2.5 2.5 0 0 1 2.5 2.5zm43 0a2.5 2.5 0 1 1-2.5-2.5 2.5 2.5 0 0 1 2.5 2.5z"/><path d="M21 84.5h58a1.5 1.5 0 0 0 1.5-1.5V44a1.5 1.5 0 0 0-1.5-1.4H21a1.5 1.5 0 0 0-1.5 1.5v39a1.5 1.5 0 0 0 1.5 1.5zM22.5 65h16.3v16.5H22.5zm19.3 0h16.4v16.5H41.8zm35.7 16.5H61.2V65h16.3zm0-19.4H61.2V45.7h16.3zm-19.3 0H41.8V45.7h16.4zM22.5 45.7h16.3V62H22.5z"/></g></svg>