<svg xmlns="http://www.w3.org/2000/svg" viewBox="0 0 512 512"><path d="M77.4 219.2l6.7-9.7c7-9.8 66.5-97.2 66.5-134.5 0-40.2-32.8-73-73-73S4.2 34.8 4.2 75C4.3 112.5 64 200 70.7 209.7l6.7 9.6zm0-201c31.3 0 56.8 25.5 56.8 56.8 0 24.4-36.4 84.5-56.8 115.4-20.4-31-56.8-91-56.8-115.3 0-31.3 25.5-56.8 56.8-56.8z"/><path d="M118 75c0-22.3-18.2-40.5-40.6-40.5S36.8 52.7 36.8 75s18.2 40.7 40.6 40.7S118 97.4 118 75zm-65 0c0-13.4 11-24.3 24.4-24.3s24.4 11 24.4 24.4-11 24.4-24.4 24.4S53 88.4 53 75z"/><path d="M69.3 67h16.2v16H69.3zM394 196.8c-62.7 0-113.7 51-113.7 113.7 0 60.5 103 186.5 107.4 192l6.3 7.5 6.3-7.6c4.4-5.3 107.4-131.4 107.4-192 0-62.6-51-113.6-113.7-113.6zm0 287.4c-32-40.4-97.4-131.3-97.4-173.8 0-53.7 43.7-97.4 97.4-97.4s97.4 43.7 97.4 97.4c0 47-75 145.4-97.4 173.8z"/><path d="M394 261.8c-27 0-48.7 21.8-48.7 48.7 0 27 21.8 48.7 48.7 48.7 27 0 48.7-21.8 48.7-48.7 0-27-21.8-48.7-48.7-48.7zm0 81.2c-18 0-32.5-14.6-32.5-32.5 0-18 14.6-32.5 32.5-32.5s32.5 14.6 32.5 32.5c0 18-14.6 32.5-32.5 32.5zM20.6 404c0-47 38.2-85.3 85.2-85.3h97.4c29 0 52.8-23.7 52.8-52.8s-23.7-53-52.8-53H101.8v16.3h101.5c20 0 36.5 16.4 36.5 36.5s-16.4 36.5-36.5 36.5H106c-56 0-101.6 45.5-101.6 101.5S50 505.3 106 505.3h255.6V489H105.8c-47 0-85.2-38-85.2-85zM386 375.4h16v16.2h-16zM386 408h16v16h-16zM386 440.4h16v16.2h-16z"/></svg>