<svg xmlns="http://www.w3.org/2000/svg" viewBox="0 0 91 113.75"><path d="M45.2 18.6C30 18.6 17.6 31 17.6 46.2 17.6 61.5 30 74 45.2 74c15.2 0 27.6-12.6 27.6-28 0-15.2-12.4-27.6-27.6-27.6zm0 52C31.8 70.6 21 59.6 21 46c0-13 10.8-24 24.2-24 13.4 0 24.2 11 24.2 24.2 0 13.4-10.8 24.3-24.2 24.3z"/><path d="M47 26.3h-3.4V48h11v-3.5H47m-3.4 17.2H47V66h-3.4zM25.2 44.5h4.4V48h-4.4zm35.6 0h4.4V48h-4.4zm-29.2-13l3.2 3-2.3 2.4-3.2-3zM58.8 61l-3.2-3 2.3-2.6 3 3zM33 62l-2.5-2 3-3.3L36 59zm24.4-31.7l2.5 2.3-3 3.2-2.8-2.3z"/></svg>