<svg xmlns="http://www.w3.org/2000/svg" viewBox="0 0 100 100"><path d="M41.4 13.6c0 4.8 3.8 8.6 8.6 8.6s8.6-3.8 8.6-8.6S54.8 5 50 5s-8.6 4-8.6 8.6zm14.7 0c0 3.4-2.6 6-6 6s-6-2.6-6-6c0-3.3 2.6-6 6-6s6 2.7 6 6zM39.8 40H60v2.5H40zM37 34c0-3.7 2.4-7 5.8-8.2.4 0 .8 0 1 .2l3.8 3.8c1.3 1.3 3.5 1.3 4.8 0l3.8-3.8c.2-.2.6-.3 1-.2C60.6 27 63 30.3 63 34v2.5h2.4V34c0-4.7-3-9-7.4-10.6-1.2-.4-2.7 0-3.6 1L50.7 28c-.4.4-1 .4-1.4 0l-3.7-3.7c-1-1-2.4-1.3-3.6-1-4.5 1.7-7.4 6-7.4 10.7v2.5H37V34zM50 74.8c4.8 0 8.6-4 8.6-8.7s-3.8-8.5-8.6-8.5-8.6 4-8.6 8.6S45.2 75 50 75zM50 60c3.4 0 6 2.8 6 6 0 3.5-2.6 6.3-6 6.3s-6-2.8-6-6.2c0-3.2 2.6-6 6-6zM34.6 86.5V95h30.8v-8.5c0-4.7-3-9-7.4-10.5-1.2-.5-2.7-.2-3.6.8l-3.7 3.7c-.4.4-1 .4-1.4 0l-3.7-3.7c-1-1-2.4-1.3-3.6-.8-4.4 1.6-7.4 5.8-7.4 10.5zm8.2-8.2c.4 0 .8 0 1 .3l3.8 3.7c1.3 1.3 3.5 1.3 4.8 0l3.8-3.7c.2-.3.6-.4 1-.3 3.4 1.3 5.7 4.6 5.7 8.2v6H37v-6c0-3.6 2.4-7 5.8-8.2zM29.6 41.6c0-2-.6-3.7-1.7-5-1.7-2.2-4.2-3.6-7-3.6-4.8 0-8.6 4-8.6 8.6s3.8 8.7 8.6 8.7c1 0 2-.2 3-.6 3.2-1.2 5.6-4.3 5.6-8zM21 47.8c-3.4 0-6-2.8-6-6.2 0-3.3 2.6-6 6-6 3.3 0 6 2.7 6 6 0 3.4-2.6 6.2-6 6.2zM36.4 62c0-3.2-1.4-6-3.6-8.2-1-1-2.4-1.8-3.8-2.3-1.3-.5-2.7-.2-3.6.8L24 53.7 21.5 56c-.3.4-1 .4-1.3 0l-3.7-3.7c-1-1-2.4-1.3-3.6-.8C8.5 53 5.5 57.3 5.5 62v8.5h31V62zM34 68H8v-6c0-3.6 2.4-7 5.8-8.2.4 0 .7 0 1 .2l3.7 3.8c1.4 1.3 3.6 1.3 5 0L27 54c.2-.2.6-.3 1-.2 3.4 1.3 5.7 4.6 5.7 8.2v6zM76 49.7c1 .4 2 .6 3 .6 4.8 0 8.6-4 8.6-8.7S83.8 33 79 33c-2.8 0-5.3 1.4-7 3.5-1 1.4-1.6 3.2-1.6 5 0 4 2.4 7 5.7 8.2zm3-14.2c3.4 0 6 2.8 6 6 0 3.5-2.6 6.3-6 6.3s-6-2.8-6-6.2c0-3.3 2.6-6 6-6zM71 51.5c-1.4.5-2.7 1.3-3.8 2.3-2.2 2-3.6 5-3.6 8.2v8.5h31V62c0-4.7-3-9-7.6-10.5-1.2-.5-2.6-.2-3.6.8L79.7 56c-.4.4-1 .4-1.3 0L76 53.7l-1.4-1.4c-1-1-2.3-1.3-3.6-.8zm5.6 6.3c1.3 1.3 3.5 1.3 5 0L85 54c.3-.2.6-.3 1-.2C89.6 55 92 58.4 92 62v6H66v-6c0-3.6 2.4-7 6-8.2.2 0 .6 0 .8.2l3.8 3.8z"/></svg>