<svg xmlns="http://www.w3.org/2000/svg" viewBox="0 0 1024 1024" class="icons"><path xmlns="http://www.w3.org/2000/svg" d="M512 0C229.25 0 0 229.2 0 512c0 226.2 146.7 418.1 350.2 485.8 25.6 4.7 34.938-11.125 34.938-24.625 0-12.188-0.469-52.562-0.719-95.312C242 908.8 211.9 817.5 211.9 817.5c-23.312-59.125-56.844-74.875-56.844-74.875-46.531-31.75 3.53-31.125 3.53-31.125 51.4 3.6 78.5 52.8 78.5 52.8 45.7 78.2 119.9 55.6 149 42.5 4.654-33 17.904-55.625 32.5-68.375C304.906 725.4 185.3 681.5 185.3 485.312c0-55.938 19.969-101.562 52.656-137.406-5.219-13-22.844-65.094 5.062-135.562 0 0 42.938-13.75 140.8 52.5 40.812-11.406 84.594-17.031 128.125-17.219 43.5 0.2 87.3 5.9 128.2 17.3 97.688-66.312 140.688-52.5 140.688-52.5 28 70.5 10.4 122.6 5.1 135.5 32.8 35.8 52.6 81.5 52.6 137.4 0 196.688-119.75 240-233.812 252.7 18.4 15.9 34.8 47 34.8 94.8 0 68.438-0.688 123.625-0.688 140.5 0 13.6 9.3 29.6 35.2 24.562C877.438 930 1024 738.1 1024 512 1024 229.2 794.8 0 512 0z"/></svg>