<svg xmlns="http://www.w3.org/2000/svg">
	<defs>
		<symbol id="bb-tools" viewBox="0 0 100 100"><path d="M9.3 85.5c0.8 0.8 1.9 0.8 2.6 0.2l33.5-33.3c0.7-0.6 0.6-1.8-0.2-2.5 -0.8-0.8-1.9-0.8-2.6-0.2L9.1 83C8.4 83.6 8.5 84.8 9.3 85.5z"></path><path d="M49.8 56.8L16.3 90.1c-0.7 0.6-0.6 1.8 0.2 2.5 0.8 0.8 1.9 0.8 2.6 0.2l33.5-33.3c0.7-0.6 0.6-1.8-0.2-2.5C51.6 56.2 50.4 56.1 49.8 56.8z"></path><path d="M80.5 80c-3.5 3.5-3.5 9.2 0 12.8 3.5 3.5 9.3 3.5 12.8 0 3.5-3.5 3.5-9.2 0-12.8C89.8 76.5 84 76.5 80.5 80z"></path><path d="M79 78.5c3.7-3.7 3.7-9.7 0-13.3L42.6 29c-3.7-3.7-9.7-3.7-13.4 0 -3.7 3.7-3.7 9.7 0 13.3l36.4 36.2C69.3 82.2 75.3 82.2 79 78.5zM31 42.4c-3.6-3.5-3.8-9-0.6-12.2 3.2-3.2 8.7-2.9 12.3 0.6l34.9 34.7c3.6 3.5 3.8 9 0.6 12.2 -3.2 3.2-8.7 2.9-12.3-0.6L31 42.4z"></path><path d="M78.1 77.6c3.2-3.2 3-8.7-0.6-12.2L42.6 30.8c-3.6-3.5-9-3.8-12.3-0.6 -3.2 3.2-3 8.7 0.6 12.2l34.9 34.7C69.4 80.6 74.9 80.8 78.1 77.6z"></path><path d="M21 36.9l58.4 58c4.4 4.4 11.7 4.4 16.1 0 4.4-4.4 4.4-11.6 0-16l-58.4-58c0.7-5.5-1-11.3-5.3-15.5 -5.1-5.1-12.4-6.6-18.9-4.5 3.8 3.7 6.7 6.7 7.6 7.6 3.3 3.2 4 7.7 1.7 10l-3.7 3.7c-2.3 2.3-6.8 1.5-10.1-1.7 -0.9-0.9-3.9-3.8-7.6-7.5 -2 6.4-0.5 13.7 4.6 18.8C9.7 35.9 15.5 37.6 21 36.9zM93.3 92.8c-3.5 3.5-9.3 3.5-12.8 0 -3.5-3.5-3.5-9.2 0-12.8 3.5-3.5 9.3-3.5 12.8 0C96.8 83.5 96.8 89.2 93.3 92.8zM29.2 42.3c-3.7-3.7-3.7-9.7 0-13.3 3.7-3.7 9.7-3.7 13.4 0l36.4 36.2c3.7 3.7 3.7 9.7 0 13.3 -3.7 3.7-9.7 3.7-13.4 0L29.2 42.3z"></path><path d="M20.9 98.6L50.3 69.3l-3.8-3.8 -27.5 27.3c-0.7 0.6-1.8 0.6-2.6-0.2 -0.8-0.8-0.8-1.9-0.2-2.5l27.5-27.3 -4.4-4.4L11.8 85.7c-0.6 0.6-1.8 0.6-2.6-0.2 -0.8-0.8-0.8-1.9-0.2-2.5l27.5-27.3 -3.8-3.8L3.3 81.1c-2.9 2.8-1.2 9 3.6 13.9C11.8 99.8 18 101.4 20.9 98.6z"></path><polygon points="64.9 44.9 74.8 35 83 32.8 98.9 10.3 92.2 3.5 69.5 19.4 67.2 27.5 57.4 37.4 "></polygon></symbol>
		<symbol id="bb-projector" viewBox="0 0 26 17"><path d="M3 16c0 0.6 0.4 1 1 1h2c0.6 0 1-0.4 1-1v-1H3V16zM19 16c0 0.6 0.4 1 1 1h2c0.6 0 1-0.4 1-1v-1h-4V16zM23 0H3C1.3 0 0 1.3 0 3v8c0 1.7 1.3 3 3 3h20c1.7 0 3-1.3 3-3V3C26 1.3 24.7 0 23 0zM10.5 10h-7C3.2 10 3 9.8 3 9.5S3.2 9 3.5 9h7C10.8 9 11 9.2 11 9.5S10.8 10 10.5 10zM10.5 8h-7C3.2 8 3 7.8 3 7.5S3.2 7 3.5 7h7C10.8 7 11 7.2 11 7.5S10.8 8 10.5 8zM10.5 6h-7C3.2 6 3 5.8 3 5.5 3 5.2 3.2 5 3.5 5h7C10.8 5 11 5.2 11 5.5 11 5.8 10.8 6 10.5 6zM19 12.1c-2.8 0-5.1-2.3-5.1-5.1 0-2.8 2.3-5.1 5.1-5.1 2.8 0 5.1 2.3 5.1 5.1C24.1 9.8 21.8 12.1 19 12.1z"></path><circle cx="19" cy="7" r="2.8"></circle></symbol>
		<symbol id="bb-sound" viewBox="0 0 100 100"><path d="M94.1 42.4H87.2c-0.5 0-0.9 0.4-0.9 0.9 0 0.5 0.4 0.9 0.9 0.9h6.9c0.5 0 0.9-0.4 0.9-0.9C95 42.8 94.6 42.4 94.1 42.4zM84.3 34.7c0 0.1 0 0.2 0.1 0.3 0.2 0.5 0.7 0.7 1.2 0.5l6.4-2.5c0.5-0.2 0.7-0.7 0.5-1.2 -0.2-0.5-0.7-0.7-1.2-0.5l-6.4 2.5C84.5 33.9 84.3 34.3 84.3 34.7zM80.8 28.3l4.7-5.1c0.4-0.4 0.3-1-0.1-1.3 -0.4-0.3-1-0.3-1.3 0.1l-4.7 5.1c-0.2 0.2-0.2 0.4-0.2 0.6 0 0.3 0.1 0.5 0.3 0.7C79.8 28.7 80.4 28.7 80.8 28.3zM92 53.7l-6.4-2.5c-0.5-0.2-1 0-1.2 0.5 0 0.1-0.1 0.2-0.1 0.3 0 0.4 0.2 0.7 0.6 0.9l6.4 2.5c0.5 0.2 1 0 1.2-0.5C92.7 54.5 92.5 53.9 92 53.7zM80.8 58.4c-0.3-0.4-0.9-0.4-1.3-0.1 -0.2 0.2-0.3 0.4-0.3 0.7 0 0.2 0.1 0.5 0.2 0.6l4.7 5.1c0.4 0.4 0.9 0.4 1.3 0.1 0.4-0.4 0.4-0.9 0.1-1.3L80.8 58.4zM70.4 19.6c-1.1 0-2.1 0.7-3 2.3 -0.6 1.1-6.8 11-15.1 12.4 -8.3 1.4-17.6 1.8-23.4 1.8h-17C8.1 36.1 5 38.6 5 41.8v2.2 2.2c0 3.1 3.1 5.6 7 5.6h12.1l-3 26c-0.3 2.8 0 3.8 1.6 3.8h9 0.7c1 0 2.3 0 2.8 0 0.7 0 1.1-0.6 1.1-1.2l0.5-4.3c0.1-0.6-0.2-1.2-0.9-1.2 0 0 0 0-0.1 0 -0.1 0-0.2 0-0.2 0 0 0-0.1 0-0.1 0 -1 0-2.4-1-2.1-3.5l2.2-19.4c5.1 0.2 11 0.7 16.5 1.7 8.3 1.4 14.5 11.3 15.1 12.4 0.9 1.6 1.9 2.3 3 2.3 1.1 0 2.6-0.7 2.6-2.3V43.9 21.9C73 20.3 71.5 19.6 70.4 19.6z"></path></symbol>
		<symbol id="bb-workshop" viewBox="0 0 95.8 100"><circle cx="10.4" cy="77.1" r="6.3"></circle><path d="M10.4 85.4C4.7 85.4 0 90.1 0 95.8V100h20.8v-4.2C20.8 90.1 16.2 85.4 10.4 85.4z"></path><circle cx="35.4" cy="77.1" r="6.3"></circle><path d="M35.4 85.4C29.7 85.4 25 90.1 25 95.8V100h20.8v-4.2C45.8 90.1 41.2 85.4 35.4 85.4z"></path><circle cx="60.4" cy="77.1" r="6.3"></circle><path d="M60.4 85.4C54.7 85.4 50 90.1 50 95.8V100h20.8v-4.2C70.8 90.1 66.2 85.4 60.4 85.4z"></path><circle cx="85.4" cy="77.1" r="6.3"></circle><path d="M85.4 85.4C79.7 85.4 75 90.1 75 95.8V100h20.8v-4.2C95.8 90.1 91.2 85.4 85.4 85.4z"></path><path d="M52.1 56.3H43.8c-1.2 0-2.1-0.9-2.1-2.1s0.9-2.1 2.1-2.1h8.3c1.2 0 2.1 0.9 2.1 2.1S53.2 56.3 52.1 56.3zM47.9 12.5c-1.2 0-2.1-0.9-2.1-2.1V2.1C45.8 0.9 46.8 0 47.9 0S50 0.9 50 2.1v8.3C50 11.6 49.1 12.5 47.9 12.5zM29.2 31.3h-8.3c-1.2 0-2.1-0.9-2.1-2.1s0.9-2.1 2.1-2.1h8.3c1.2 0 2.1 0.9 2.1 2.1S30.3 31.3 29.2 31.3zM34.4 17.7c-0.5 0-1.1-0.2-1.5-0.6l-5.9-5.9c-0.8-0.8-0.8-2.1 0-2.9 0.8-0.8 2.1-0.8 2.9 0l5.9 5.9c0.8 0.8 0.8 2.1 0 2.9C35.4 17.5 34.9 17.7 34.4 17.7zM61.5 17.7c-0.5 0-1.1-0.2-1.5-0.6 -0.8-0.8-0.8-2.1 0-2.9l5.9-5.9c0.8-0.8 2.1-0.8 2.9 0 0.8 0.8 0.8 2.1 0 2.9l-5.9 5.9C62.5 17.5 62 17.7 61.5 17.7zM75 31.3h-8.3c-1.2 0-2.1-0.9-2.1-2.1s0.9-2.1 2.1-2.1H75c1.2 0 2.1 0.9 2.1 2.1S76.2 31.3 75 31.3zM52.1 58.3H43.8c-1.2 0-2.1 0.9-2.1 2.1S42.6 62.5 43.8 62.5h1c0 1.2 0.9 2.1 2.1 2.1h2.1c1.2 0 2.1-0.9 2.1-2.1h1c1.2 0 2.1-0.9 2.1-2.1S53.2 58.3 52.1 58.3zM58.7 39c2.4-2.6 3.8-6 3.8-9.8 0-8.1-6.5-14.6-14.6-14.6s-14.6 6.5-14.6 14.6c0 3.7 1.4 7 3.6 9.6 1 1.1 4.7 5.5 4.7 9.2 0 1.2 0.9 2.1 2.1 2.1h8.3c1.2 0 2.1-0.9 2.1-2.1V47.8C54.2 44.4 57.4 40.4 58.7 39z"></path></symbol>
		<symbol id="bb-presentation" viewBox="0 0 94.5 100"><path d="M13.1 76.4c-3.6 0-6.5-2.9-6.5-6.5 0-3.6 2.9-6.5 6.5-6.5 3.6 0 6.5 2.9 6.5 6.5C19.7 73.4 16.7 76.4 13.1 76.4M0 100V87.2c0-4.6 3.8-8.4 8.4-8.4h9c4.6 0 8.7 3.7 8.7 8.4V100H0zM80.7 75.8c3.6 0 6.5-2.9 6.5-6.5 0-3.6-2.9-6.5-6.5-6.5 -3.6 0-6.5 2.9-6.5 6.5C74.2 72.9 77.1 75.8 80.7 75.8M93.9 100V87.2c0-4.6-3.8-8.4-8.4-8.4h-9c-4.6 0-8.7 3.7-8.7 8.4V100H93.9zM46.9 63.2c3.6 0 6.6 2.9 6.6 6.5 0 3.6-3 6.5-6.6 6.5 -3.6 0-6.6-2.9-6.6-6.5C40.3 66.2 43.3 63.2 46.9 63.2M31 100l5.2-14.1c2.1-7.2 8.1-7 8.1-7h2.6 2.6c0 0 6-0.2 8.1 7l5.2 14.1H31z"></path><polygon points="46.9 55 46.9 39.5 44.4 36.9 44.4 52.4 5.5 52.4 5.5 3.2 44.4 3.2 44.4 28.5 46.9 31 46.9 0.6 2.9 0.6 2.9 55 "></polygon><path d="M80.7 26.5c3.6 0 6.5-2.9 6.5-6.5 0-3.6-2.9-6.5-6.5-6.5 -3.6 0-6.5 2.9-6.5 6.5C74.2 23.6 77.1 26.5 80.7 26.5M85.5 28.6h-9c-1.6 0-3.2 0.5-4.5 1.3 -1.6 0.6-2.9 1.7-3.9 3.1l-5.4 8.2 -8.2 0L42.9 29.6c-0.4-0.4-1.1-0.4-1.6 0 -0.4 0.4-0.4 1.1 0 1.6l11 11c-0.2 0.4-0.6 1.2-0.6 1.7 0 1.5 1.2 2.7 2.7 2.7H63.5c1 0 2.4-0.4 2.9-1.3 0.4-0.6 0.9-1.3 1.3-1.9v3.6 2.8 5.8h3.3H93.8h0.1v-5.8 -2.8V36.9C93.9 32.3 90.1 28.6 85.5 28.6"></path></symbol>
		<symbol id="bb-high-five" viewBox="0 0 50 50"><circle cx="11.3" cy="9.7" r="3.1"></circle><path d="M21.5 5.4c-0.6 0-1.2 0.5-1.2 1.2v6.9l-13.2 0c-0.5 0-1 0.3-1.1 0.8L2.5 26.6c-0.2 0.6 0.2 1.3 0.8 1.4 0.1 0 0.2 0 0.3 0 0.5 0 1-0.3 1.1-0.8l2.6-9.1v25c0 0.8 0.7 1.5 1.5 1.5s1.5-0.7 1.5-1.5V30.7h1.8v12.3c0 0.8 0.7 1.5 1.5 1.5s1.5-0.7 1.5-1.5V15.7l6.2 0c0.6 0 1.2-0.5 1.2-1.2v-8C22.7 5.9 22.2 5.4 21.5 5.4z"></path><circle cx="38.7" cy="9.7" r="3.1"></circle><path d="M47.5 26.6L44 14.2c-0.1-0.5-0.6-0.8-1.1-0.8l-13.8 0L25.3 8V6.5c0-0.6-0.5-1.2-1.2-1.2S23 5.9 23 6.5v1.8c0 0.2 0.1 0.5 0.2 0.7l4.4 6.2c0.2 0.3 0.6 0.5 0.9 0.5l6.2 0v27.4c0 0.8 0.7 1.5 1.5 1.5s1.5-0.7 1.5-1.5V30.7h1.8v12.3c0 0.8 0.7 1.5 1.5 1.5 0.8 0 1.5-0.7 1.5-1.5v-25l2.6 9.1c0.1 0.5 0.6 0.8 1.1 0.8 0.1 0 0.2 0 0.3 0C47.3 27.8 47.6 27.2 47.5 26.6z"></path></symbol>
		<symbol id="bb-milk" viewBox="0 0 100 100"><path d="M65 31.4l-0.8-1.1C61.3 26.3 59 20 59 16.4V11.8h2.3V9.5c0-2.5-2-4.5-4.5-4.5h-13.5c-2.5 0-4.5 2-4.5 4.5v2.3H41v4.6c0 3.7-2.3 9.9-5.2 14l-0.8 1.1C32.1 35.5 29.8 42.8 29.8 47.8V86c0 5 4 9 9 9h22.5c5 0 9-4 9-9V47.8C70.3 42.8 67.9 35.5 65 31.4zM56.8 34.3c0 7.5-6 13.5-13.5 13.5h-4.5V86c-2.5 0-4.5-2-4.5-4.5V46.9h0c0.3-4 2.2-9.8 4.4-12.8l0.8-1.1c3.5-4.8 6.1-12 6.1-16.6V11.8h2.3c0 2.5 2 4.5 4.5 4.5h2.3v0.1c0 4.3 2.3 10.9 5.4 15.6h-3.4C56.7 32.7 56.8 33.5 56.8 34.3z"></path></symbol>
		<symbol id="bb-meat" viewBox="0 -10 100 130"><path d="M99.7 91l0.3-7.1c0-0.9-0.6-1.3-1.3-0.8l-5.9 3.3c0.7-5.4-1.3-11.1-6.2-14.5 -7.1-4.9-22.9-1-39.9-18C29.6 36.8 31 20.7 28.7 16.1c-2.9-5.9-8.8-8.7-14.5-8.3l3.3-5.9c0.4-0.8 0-1.4-0.8-1.3l-7.1 0.3C8.7 0.9 8.4 1.5 8.9 2.3l3.8 5.7c-3 0.5-5.8 1.8-8 4 -4.5 4.5-5 10.8-4.6 16.5 0 0 3.8 26.9 24.1 47.2C40.7 92.2 64.6 99.3 73 99.4c6.8 0.1 10.9 0.4 15.2-3.9 0 0 0 0 0 0 2.2-2.2 3.6-4.9 4.3-7.7l5.9 3.9C99.1 92.2 99.7 91.9 99.7 91zM70.6 91.4v0c0 0-22.9-2-42-20.8C9.9 51.6 7.8 28.7 7.8 28.7l0 0c-0.2-1 0.1-2 0.9-2.7 1.2-1.2 3.2-1.2 4.4 0 0.6 0.6 0.9 1.3 0.9 2.1l0 0c0 0 3.9 22.3 19.3 38C49 81.4 71.3 85.3 71.3 85.3l0 0c0.8 0 1.5 0.3 2.1 0.9 1.2 1.2 1.2 3.2 0 4.4C72.6 91.3 71.5 91.6 70.6 91.4z"></path></symbol>
		<symbol id="bb-house" viewBox="20 20 60 50"><path d="M57.9 29.9v-5h6.3v9.4l13.2 9.1 -6.2 0.7V67.9h-4.8 -30H31.5V43.4h-7l26.1-18.5L57.9 29.9zM56.8 58.3v-5.5h-4.8v5.5H56.8zM56.8 52V46.5h-4.8v5.5H56.8zM50.6 58.3v-5.5h-4.8v5.5H50.6zM50.6 52V46.5h-4.8v5.5H50.6z"></path></symbol>
		<symbol id="bb-tent" viewBox="0 0 100 100"><path fill-rule="evenodd" clip-rule="evenodd" d="M36.2 95.8c-4 0-7.9 0-11.9 0 0-0.6 0-1.2 0-1.8 0-9.4 0-18.9 0-28.3 0-2 0-2-2.1-2 -5.2 0-10.4 0-15.6 0 -0.4 0-0.9 0-1.6-0.1 3.4-6 6.8-11.8 10.3-17.9 -1.4 0-2.6 0-4.1 0 2.6-4.5 5-8.7 7.5-13.1 -1.1 0-2 0-3.2 0C20.7 23.6 25.7 14.8 30.9 5.8c5.2 9 10.2 17.8 15.4 26.7 -0.9 0.1-1.6 0.1-2.7 0.1 2.5 4.3 4.9 8.5 7.4 12.9 -1.2 0.1-2.2 0.1-3.6 0.2 3.4 6 6.8 11.8 10.2 17.9 -0.8 0-1.3 0.1-1.8 0.1 -5.9 0-11.8 0-17.6 0 -2 0-2 0-2 2 0 9.4 0 18.9 0 28.3C36.2 94.5 36.2 95 36.2 95.8zM43.3 95.9c1.9-7.9 3.8-15.7 5.8-23.4 0.4-1.5 0.4-2.9 0-4.3 -0.2-0.7-0.3-1.4-0.5-2.1 0.1 0 0.3-0.1 0.4-0.1 0.2 0.7 0.5 1.4 0.8 2.3 0.3-0.9 0.6-1.5 0.8-2.1 0.1 0 0.3 0.1 0.4 0.1 -0.2 1.1-0.5 2.3-0.7 3.5 12.2 0 24.3 0 36.5 0 -0.2-1.2-0.5-2.4-0.7-3.6 0.1 0 0.2-0.1 0.4-0.1 0.2 0.6 0.5 1.1 0.8 1.9 0.3-0.8 0.6-1.4 0.8-2.1 0.2 0.1 0.4 0.1 0.5 0.2 -0.4 1.3-0.8 2.6-1.2 3.8 -0.2 0.6-0.7 1.1-0.9 1.7 -1.9 7.7-3.8 15.5-5.7 23.3 -0.2 0.8-0.5 1.2-1.5 1.2 -11.7 0-23.4 0-35.1 0C44 96 43.8 95.9 43.3 95.9zM88.5 69.7c2.1 8.6 4.3 17.3 6.5 26 -4.2 0-8.3 0-12.7 0 2-8.7 3.9-17.4 5.9-26C88.3 69.8 88.4 69.7 88.5 69.7z"/></symbol>
		<symbol id="bb-none" viewBox="0 0 100 100"><path d="M50 17c-18.2 0-33 14.8-33 33S31.8 83 50 83 83 68.2 83 50 68.2 17 50 17zM50 23.9c5.8 0 11.1 1.9 15.4 5.1L29 65.4c-3.2-4.3-5.1-9.6-5.1-15.4C23.9 35.6 35.6 23.9 50 23.9zM50 76.1c-5.3 0-10.2-1.6-14.3-4.3l36.1-36.1c2.7 4.1 4.3 9 4.3 14.3C76.1 64.4 64.4 76.1 50 76.1z"></path></symbol>
		<symbol id="bb-bike" viewBox="0 0 100 58.526"><path d="M98.88 38.35L100 38.3c-0.67-10.46-9.37-18.74-20-18.74 -3.3 0-6.41 0.8-9.15 2.21l-4.57-8.05 1.21-2.69c0.25 0.05 0.47 0.08 0.65 0.08 1.18 0 5.17-3.63 4.41-5.58 -0.33-0.84-2.26-0.04-4.67 0.47 -0.54 0.11-2.19 0.1-3.15 0 -2.23-0.24-4.19-0.76-4.57 0.26 -0.45 1.23 2.61 3.07 5.18 4.1l-0.65 1.45H32.19l0.97-2.71 -0.26-0.09 1.49-4.15L34.34 4.84l0 0c-0.6-0.21-1.92-0.88-2.21-1.64 -0.06-0.17-0.12-0.45 0.13-0.88 0.47-0.81 4.49-0.83 8.6-0.06L41.18 0.6c-2.08-0.39-8.99-1.49-10.37 0.86 -0.45 0.77-0.54 1.57-0.26 2.32 0.31 0.85 1.05 1.48 1.74 1.92l-0.98 2.74 -0.26-0.09L26.49 21.04c-2.33-0.95-4.89-1.48-7.57-1.48 -1.02 0-2.01 0.08-2.99 0.22l0.18 1.11C7 22.25 0 30.11 0 39.6c0 10.45 8.47 18.92 18.92 18.92 7.83 0 14.55-4.75 17.43-11.53l1.03 0.45c1.02-2.41 1.59-5.06 1.59-7.84 0-7.59-4.22-14.19-10.44-17.6l0.99-2.76 18.15 20.15c-0.65 0.89-1.04 1.98-1.04 3.17 0 2.99 2.42 5.41 5.41 5.41 0.22 0 0.44-0.02 0.65-0.04l0.85 3.23h-1.23v2.25h4.8v-2.25h-1.82L54.31 47.48c1.77-0.82 3.02-2.58 3.12-4.63l3.87-0.41c1.37 9.11 9.22 16.09 18.7 16.09 10.45 0 18.92-8.47 18.92-18.92 0-0.42-0.02-0.84-0.05-1.26C98.88 38.35 98.88 38.35 98.88 38.35zM34.48 39.6c0 8.59-6.96 15.55-15.55 15.55S3.37 48.19 3.37 39.6c0-8.59 6.96-15.55 15.55-15.55 2.27 0 4.43 0.49 6.38 1.37l-2.56 7.13 -3.01 4.62c-0.25-0.08-0.51-0.14-0.79-0.14 -1.42 0-2.56 1.15-2.56 2.56 0 1.42 1.15 2.57 2.57 2.57 1.42 0 2.57-1.15 2.57-2.56 0-0.52-0.16-1.01-0.43-1.41l3.13-4.8 2.6-7.19C31.4 28.91 34.48 33.89 34.48 39.6zM53.19 37.28c-0.37-0.08-0.76-0.13-1.15-0.13 -0.19 0-0.37 0.01-0.55 0.03l-0.95-3.61h1.37v-2.25h-4.79v2.25h1.68l1.07 4.05c-0.18 0.08-0.35 0.18-0.52 0.28L30.38 16.85l1-2.79h32.28L53.19 37.28zM60 40.88l-2.74 0.29c-0.32-1.2-1.05-2.24-2.02-2.96l10.19-22.59 3.96 6.98c-5.66 3.54-9.43 9.83-9.43 17C59.96 40.03 59.98 40.46 60 40.88zM64.45 39.6c0-5.49 2.85-10.32 7.15-13.09l6.26 11.03c-0.4 0.41-0.67 0.93-0.78 1.52l-12.62 1.34C64.46 40.14 64.45 39.87 64.45 39.6zM80 55.16c-7.75 0-14.17-5.66-15.35-13.08l12.61-1.34c0.45 1.07 1.51 1.83 2.74 1.83 1.64 0 2.97-1.33 2.97-2.97 0-1.64-1.33-2.97-2.97-2.97 -0.23 0-0.45 0.03-0.67 0.08l-6.26-11.03c2.09-1.04 4.44-1.63 6.93-1.63 8.59 0 15.55 6.96 15.55 15.55C95.55 48.19 88.59 55.16 80 55.16z"/></symbol>
		<symbol id="bb-icon-fb" viewBox="-723 0 1000 1000"><path d="M222.5,0.5h-891.1c-29.9,0-54,24.1-54,54v891.1c0,29.9,24.1,54,54,54h479.5V612.3h-130.5V461.7h130.5V346.8 c0-120.4,74.7-195.3,192.2-195.3c70.8,0,118.4,5.5,118.4,5.5v135.8H41.9c-50.5,0-74.3,17.8-74.3,71.4v97.5h148.8L97.2,612.3H-32.4 v387.2h255c29.9,0,54-24.1,54-54V54.5C276.5,24.6,252.4,0.5,222.5,0.5z"/></symbol>
		<symbol id="bb-icon-github" viewBox="0 0 1024 1024"><path xmlns="http://www.w3.org/2000/svg" d="M512 0C229.25 0 0 229.2 0 512c0 226.2 146.7 418.1 350.2 485.8 25.6 4.7 34.938-11.125 34.938-24.625 0-12.188-0.469-52.562-0.719-95.312C242 908.8 211.9 817.5 211.9 817.5c-23.312-59.125-56.844-74.875-56.844-74.875-46.531-31.75 3.53-31.125 3.53-31.125 51.4 3.6 78.5 52.8 78.5 52.8 45.7 78.2 119.9 55.6 149 42.5 4.654-33 17.904-55.625 32.5-68.375C304.906 725.4 185.3 681.5 185.3 485.312c0-55.938 19.969-101.562 52.656-137.406-5.219-13-22.844-65.094 5.062-135.562 0 0 42.938-13.75 140.8 52.5 40.812-11.406 84.594-17.031 128.125-17.219 43.5 0.2 87.3 5.9 128.2 17.3 97.688-66.312 140.688-52.5 140.688-52.5 28 70.5 10.4 122.6 5.1 135.5 32.8 35.8 52.6 81.5 52.6 137.4 0 196.688-119.75 240-233.812 252.7 18.4 15.9 34.8 47 34.8 94.8 0 68.438-0.688 123.625-0.688 140.5 0 13.6 9.3 29.6 35.2 24.562C877.438 930 1024 738.1 1024 512 1024 229.2 794.8 0 512 0z"/></symbol>
		<symbol viewBox="0 0 291 288.5" id="bb-icon-logo"><path d="m290.7 136.1c-8.8.9-16.9-5.1-18.4-14-1.5-8.8 4-17.3 12.6-19.4-1.6-5.4-3.5-10.7-5.7-15.8-8 3.9-17.6 1-22.1-6.8-4.5-7.8-2.1-17.6 5.2-22.5-3.3-4.5-7-8.8-10.8-12.9-6.2 6.3-16.2 6.9-23.1 1.2-6.9-5.8-8-15.8-2.8-23-4.7-3.1-9.5-5.9-14.5-8.4-3.6 8.1-12.9 12.1-21.3 9-8.4-3.1-12.9-12.1-10.5-20.6-5.4-1.3-10.9-2.2-16.5-2.9-.6 8.8-8 15.8-16.9 15.8-9 0-16.3-7-16.9-15.8-5.5.6-10.9 1.6-16.2 2.8 2.4 8.5-2.1 17.5-10.6 20.6-8.4 3-17.7-1-21.3-9.1-5 2.5-9.9 5.3-14.5 8.4 5.2 7.2 4 17.2-2.9 23-6.9 5.7-17 5.1-23.1-1.2-3.8 4.1-7.5 8.3-10.8 12.8 7.3 5 9.6 14.8 5.1 22.6-4.5 7.8-14.2 10.6-22.1 6.7-2.2 5.1-4.1 10.4-5.8 15.8 8.6 2.2 14.1 10.6 12.6 19.4-1.6 8.8-9.7 14.8-18.5 13.9-.2 2.8-.3 5.7-.3 8.6 0 2.8.1 5.5.2 8.2 8.8-.9 16.9 5.1 18.4 14 1.5 8.8-4 17.3-12.6 19.4 1.6 5.4 3.5 10.7 5.7 15.8 8-3.9 17.6-1 22.1 6.8 4.5 7.8 2.1 17.6-5.2 22.5 3.3 4.5 7 8.8 10.8 12.9 6.2-6.3 16.2-6.9 23.1-1.2 6.9 5.8 8 15.8 2.8 23 4.7 3.1 9.5 5.9 14.5 8.4 3.6-8.1 12.9-12.1 21.3-9 8.4 3.1 12.9 12.1 10.5 20.6 5.4 1.3 10.9 2.2 16.5 2.9.6-8.8 8-15.8 16.9-15.8 9 0 16.3 7 16.9 15.8 5.5-.6 10.9-1.6 16.1-2.8-2.4-8.5 2.1-17.5 10.6-20.6 8.4-3 17.7 1 21.3 9.1 5-2.5 9.9-5.3 14.6-8.4-5.2-7.2-4-17.2 2.9-23 6.9-5.7 17-5.1 23.1 1.2 3.8-4.1 7.5-8.3 10.8-12.8-7.3-5-9.6-14.8-5.1-22.6 4.5-7.8 14.2-10.6 22.2-6.7 2.2-5.1 4.1-10.4 5.8-15.8-8.6-2.2-14.1-10.6-12.6-19.4 1.6-8.8 9.7-14.8 18.5-13.9.2-2.8.3-5.7.3-8.6-.1-2.8-.1-5.5-.3-8.2m-117.5 55.4c-.6 1.2-1.2 2.4-1.8 3.5-.6 1.1-1.2 2.1-1.9 3.1-4.5 5.8-10.2 10-17 12.6-2.6 1-5.4 1.7-8.2 2.1-2.8.4-5.8.7-8.9.9-1.6.1-3.2.1-4.8-.1-1.6-.2-3.2-.4-4.7-.5-.7 0-1.3-.1-1.9-.3-.6-.2-1.2-.3-1.9-.3-.6 0-1.1-.2-1.7-.4-.6-.3-1.2-.4-1.9-.3-.6 0-1.1-.1-1.7-.3-.6-.2-1.2-.4-1.8-.6l-57-15.5c-2.2-.6-4-1.2-5.5-1.8-1.4-.6-2.3-1.8-2.5-3.5-.1-1.1.2-2.8.8-4.9.6-2.1 1.2-3.9 1.5-5.4l30.8-114.8c.4-1.6.8-3.2 1.2-5 .4-1.8 1.1-3.1 2-4 .8-.8 1.9-1.2 3.5-1.2.3-.1.6 0 .8.1.2.1.5.2.8.1l58.3 15.6c.9.2 1.8.5 2.8.6.9.2 1.8.4 2.5.8.6.4 1.2.7 1.9.7.7 0 1.3.2 2 .5l1.2.3c.7.5 1.5.8 2.4.9.9.2 1.7.5 2.6 1 1 .5 1.9 1 2.9 1.4.9.4 1.9.9 2.9 1.4 2.2 1.6 4.3 3.1 6.3 4.5 2 1.4 3.7 3.1 5.2 4.8 2.1 2.5 3.7 5.4 4.6 8.6 1 3.2 1.5 6.7 1.6 10.5 0 1-.1 1.9-.2 2.9-.2.9-.3 2-.3 3.1 0 .6-.1 1.1-.3 1.6-.2.5-.3 1-.3 1.6 0 .4-.1.9-.3 1.5-.2.6-.4 1-.6 1.2l-.5 1.8c-.1.4-.3.8-.5 1.3-.2.5-.3.9-.4 1.1-.5.8-.9 1.6-1.1 2.3-.3.7-.6 1.3-1 1.9-3 4.2-6.2 7.5-9.7 9.8-1.2.7-2.3 1.2-3.6 1.6-1.2.4-2.4 1-3.4 1.8-.3.2-.7.5-1.2.8-.5.4-.6.9-.5 1.6 0 1.1.6 2.2 1.8 3.3 1.2 1.1 2.3 2.1 3.2 3 2.9 3.3 5 6.8 6.4 10.5 1.3 3.6 2 7.5 2.1 11.9.1 1.2.1 2.3-.1 3.4-.2 1.1-.3 2.3-.3 3.4l-.6 2.2c-.1 1.5-.6 3.4-1.4 5.7-1.2 2.6-1.9 4.3-2.6 5.6m38.9 17.5c-.2 1.2-.5 2.5-.9 4l-3.8 14.1c-.4 1.4-.8 2.7-1.2 3.9-.4 1.1-1.1 1.9-1.9 2.4-1.1.4-2.3.5-3.6.2-1.3-.3-2.7-.6-4.1-1l-13.1-3.5c-1.4-.4-2.8-.8-4.1-1.2-1.3-.4-2.2-1.1-2.6-2.1-.4-1-.6-2.1-.4-3.3.2-1.3.5-2.6.9-4.1l3.3-12.3c.3-1.3.7-2.6 1-3.8.3-1.2.9-2.2 1.6-2.8.7-.6 1.9-1 3.5-1.2.3-.1.6 0 .9.1.3.2.6.2.9.1l15.4 4.1c1.6.4 3 .8 4.4 1.3 1.4.4 2.4 1.1 3.1 2 .7.9.9 1.9.7 3.1m28.4-108.9c-.3 1.2-.6 2.4-1 3.7l-5.8 21.7c-.2.8-.4 1.7-.5 2.7-.1 1-.4 1.8-.9 2.4l-.6 2.2c-.5.8-.9 1.8-1.1 2.8-.2 1-.5 1.8-1 2.6-.4.6-.7 1.2-.8 1.8-.1.6-.4 1.2-.8 1.8-.6 1.1-1 2.2-1.3 3.3-.3 1.1-.7 2.2-1.3 3.1-.3.5-.5 1-.6 1.4-.1.5-.3.9-.6 1.4-.7 1.6-1.4 3.3-2 5.1-.6 1.8-1.4 3.5-2.2 5.1-.5.8-.8 1.7-1 2.5-.1.8-.5 1.7-1 2.7-1.2 2.2-2.1 4.6-2.8 7.1-.7 2.5-1.8 4.9-3 7-.9 1.7-1.6 3.5-2.2 5.4-.6 1.9-1.6 3.1-3.2 3.7-.5.2-1 .2-1.5.2-.6 0-1.2 0-1.9-.1l-2.7-.7c-1.3-.3-2.4-.8-3.3-1.3-.9-.5-1.5-1.2-1.9-2-.4-1-.5-1.9-.3-2.8.2-.9.4-1.9.4-3 0-1.5.2-3.1.5-4.7.4-1.6.5-3.1.5-4.7.3-1 .4-1.8.4-2.2.1-.8.2-1.6.4-2.4.2-.8.4-1.6.4-2.4 0-2 .2-4 .7-6 .5-2 .8-4 .9-6 0-.7.1-1.3.3-1.9.2-.6.3-1.2.3-1.9.1-1.2.2-2.5.5-3.8.3-1.3.5-2.7.6-4 .1-.3.1-.5.1-.8 0-.3 0-.5.1-.8 0-1.1.2-2.2.4-3.1.3-1 .4-2 .4-3.1.1-3 .7-6.2 1.6-9.6 1-3.4 1.9-6.8 2.8-10.1l4-15.1c.4-1.4.8-2.8 1.1-4.1.3-1.3 1-2.3 1.9-3.1.9-.6 1.9-.9 3.2-.8.3-.1.6 0 .8.1.2.1.5.2.8.1l15.1 4c1.6.4 3 .9 4.3 1.4 1.3.5 2.2 1.3 2.6 2.4.5.6.5 1.6.2 2.8"/></symbol>
		<symbol viewBox="0 0 248 288.5" id="bb-icon-logo-text"><path d="m65.5 102.5c.2.5.3 1.4.3 2.6 0 1.2 0 2.1-.1 2.6 0 .4 0 .8-.1 1.1 0 .3-.1.6-.1 1.1-.2.7-.2 1.3-.2 1.9 0 .6-.1 1.3-.3 1.9 0 .3-.1.9-.2 1.7-.2 1-.5 2-.7 3.1-.2 1-.5 2-.9 2.9-1.5 3.7-3.4 7-5.6 9.7-2.2 2.7-5.2 4.9-8.9 6.5-.7.3-1.5.6-2.3.8-.8.2-1.6.4-2.6.7-.5.2-1 .3-1.6.3-.5 0-1.1 0-1.6.1h-1.1c-.5.2-1.2.2-2 .2-.8 0-1.5-.1-2-.3h-.7c-.4-.1-.9-.1-1.4-.2-.5 0-1-.1-1.5-.2-1.6-.4-3-.8-4.4-1.2-1.3-.4-2.6-1-3.7-1.7-.5-.3-1-.7-1.4-1-.5-.3-.9-.7-1.3-1.1-.2-.2-.5-.3-.7-.5-.3-.2-.5-.3-.7-.4-.7-.3-1.2-.1-1.4.5-.4.6-.7 1.3-.8 2.1-.1.8-.4 1.4-.9 1.8-.5.3-1.1.5-1.7.6-.7 0-1.4.1-2.2.1h-6c-.6 0-1.2 0-1.8.1-.6 0-1.2 0-1.7-.2-1.2-.4-1.8-1.2-1.9-2.3-.3-1.5-.3-2.8-.3-4.2v-76c0-.9 0-1.9 0-2.9 0-1 .2-1.8.6-2.4.3-.6.9-1 1.7-1.1.2-.1.4-.1.6-.1.2 0 .4 0 .6-.1h7.9c1.5 0 2.8.1 3.9.2 1.1.1 1.8.8 2.1 1.9.3.8.3 1.9.3 3.3-.1 1.4-.1 2.6-.1 3.6v13.6c0 .9 0 1.8 0 2.7 0 .9.1 1.7.2 2.4.1.4.2.8.2 1.1.1.3.3.5.6.6.2.2.4.2.7.2.3 0 .5 0 .7-.1.6-.3 1.1-.7 1.6-1.1.5-.4 1-.8 1.6-1.2 1.1-.7 2.2-1.4 3.4-1.9 1.2-.5 2.5-1 3.9-1.4.7-.2 1.3-.4 2-.4.7 0 1.3-.1 2-.3.6-.2 1.2-.2 1.9-.2.7 0 1.3 0 2 0h1.2c.1 0 .4 0 .7 0 .3 0 .7 0 1 .1.9.2 1.8.4 2.6.6.8.1 1.6.4 2.3.7 3.8 1.6 6.9 3.6 9.3 6.1 2.4 2.5 4.4 5.6 6.1 9.3.4 1 .8 2 1.1 3.1.3 1.1.6 2.2.9 3.4.2.6.3 1.1.3 1.7 0 .5.1 1.1.3 1.8.2.4.2.9.2 1.4 0 .5 0 1 .1 1.5v.8"/><path d="m88.1 49.8c.6.7.9 1.7.9 3 0 1.3 0 2.6 0 3.9 0 1.1 0 2.2 0 3.4 0 1.2-.3 2-.9 2.4-.5.4-1.1.7-1.9.7-.8.1-1.6.1-2.6.1h-7c-.9 0-1.7 0-2.4-.1-.7-.1-1.3-.3-1.8-.7-.3-.3-.6-.7-.7-1.4-.1-.7-.2-1.5-.2-2.4 0-.9 0-1.8 0-2.7 0-.9.1-1.7.1-2.4 0-.7 0-1.3.1-1.8 0-.5.2-1 .4-1.4.2-.3.4-.6.7-.7.3-.2.6-.3.9-.5.2 0 .4 0 .6-.1.2 0 .5-.1.6-.1h9.1c.8 0 1.6 0 2.4.1.7.1 1.3.3 1.7.7m.9 81.2c0 1.7 0 3.1-.1 4.2-.1 1.2-.8 2-2.2 2.4-.5.2-1 .2-1.6.2-.6 0-1.2-.1-1.9-.1h-7c-.7 0-1.5 0-2.2-.1-.7-.1-1.2-.3-1.6-.7-.5-.6-.8-1.3-.8-2.2 0-.9-.1-1.8-.1-2.8v-52.6c0-.8 0-1.7 0-2.5 0-.8.2-1.5.5-2 .5-.6 1.2-1 2.1-1.1.2-.1.4-.1.7-.1.3 0 .5 0 .7-.1h6.2c.5 0 1.1 0 1.7-.1.6 0 1.1 0 1.6.1h1c.5.2 1 .3 1.4.4.4.1.7.3 1 .7.3.4.5 1 .6 1.7 0 .7.1 1.5.1 2.4v52.3z"/><path d="m101.7 49h9.1c.9 0 1.7 0 2.5.1.7.1 1.3.3 1.7.7.7.7 1 2 .9 3.6 0 1.7-.1 3.2-.1 4.6v21.1 7.6c0 .6 0 1.2-.1 1.9-.1.7 0 1.3.1 1.9v1.1c.2.4.3.9.4 1.3.1.5.3.8.7.9.2.2.6.2 1 .1.4-.1.7-.3.9-.4.8-.6 1.6-1.2 2.2-2 .6-.7 1.3-1.5 1.9-2.1.7-.7 1.4-1.3 2.1-2.1.7-.7 1.4-1.5 2-2.3.3-.2.5-.4.9-.7.4-.4.8-.9 1.2-1.3.4-.5.8-.9 1.2-1.3l2.9-2.9c.2-.3.4-.6.7-.8.3-.2.6-.5.8-.8.7-.8 1.4-1.6 2.2-2.2.8-.6 1.8-1.1 2.9-1.3.4-.1 1-.1 1.7-.1.3-.1.7-.1 1-.1.3 0 .7.1 1.1.1h4.1c.7 0 1.5 0 2.4-.1 1-.1 1.8 0 2.4.1h1.4c.4.2.8.3 1.2.3.4 0 .7.2.9.6.2.2.2.6.1 1-.1.4-.3.7-.4.9-.5.8-1.1 1.6-1.9 2.2-.7.6-1.5 1.3-2.1 1.9-.6.6-1.1 1.2-1.7 1.7-.5.6-1.1 1.1-1.8 1.6-.4.3-.8.7-1.1 1.1-.3.4-.6.7-1.1 1.1-.4.2-.8.6-1.1 1-.3.4-.7.8-1.1 1.1l-4.7 4.7c-.6.5-1.1 1-1.6 1.4-.5.5-.9 1-1.3 1.7-.2.2-.3.6-.5.9-.2.4-.2.8 0 1.2.2.9.5 1.7.9 2.2.5.6.9 1.2 1.3 1.9.7.9 1.3 1.8 1.8 2.7.5.9 1.1 1.8 1.8 2.7l13.1 19.8c.8 1.2 1.6 2.3 2.4 3.5.8 1.2 1.5 2.3 2.2 3.5.2.4.4.9.4 1.5 0 .6-.1 1-.6 1.4-.3.2-.7.2-1 .2-.3 0-.7.1-1.1.2-.3.1-.7.1-1.1.1-.4 0-.8-.1-1.2-.1h-4.6c-1.3 0-2.9 0-4.7.1-1.8 0-3.2-.1-4.1-.6-.9-.4-1.7-1.2-2.4-2.3-.7-1.1-1.3-2.1-1.9-3.1-1.4-2.2-2.8-4.5-4.2-6.8-1.4-2.3-2.8-4.5-4.2-6.8-.7-1.1-1.3-2.2-1.9-3.2-.6-1.1-1.3-2.1-2.1-3.1-.2-.2-.5-.6-.9-1-.4-.4-.9-.5-1.4-.4-.7.2-1.3.4-1.7.7-.4.3-.8.7-1.2 1.1-.7.5-1.3 1.1-1.9 1.7-.6.7-1 1.5-1.4 2.4-.2.7-.2 1.4-.2 2.2 0 .8 0 1.6 0 2.3v7.7c0 .6 0 1.2.1 1.9 0 .7.1 1.4.1 2.2 0 .7 0 1.4-.1 2.1-.1.6-.2 1.1-.5 1.4-.3.5-.9.9-1.6 1.1-.7.2-1.5.3-2.4.4-.9 0-1.9 0-2.9 0-1 0-1.9-.1-2.6-.1-.9 0-1.9 0-3 .1-1.1 0-2-.1-2.6-.3-1.1-.4-1.7-1.2-1.7-2.2-.1-1.1-.1-2.3-.1-3.7v-14.3-50-11.5c0-.9 0-1.9-.1-2.9 0-1 .1-1.8.4-2.4.3-.6.9-1 1.7-1.2.2 0 .4 0 .6-.1.2 0 .4 0 .6 0"/><path d="m223.1 105.1c.2.7.2 1.4 0 2.2-.2.8-.5 1.4-.9 1.6-.4.3-1 .6-1.8.7-.8.1-1.7.2-2.6.2-1 0-1.9 0-2.9 0-1 0-1.8-.1-2.6-.1h-30.3c-.6 0-1.1 0-1.7 0-.5 0-1 .1-1.4.2-.7.3-1.1.7-1.2 1-.2.2-.3.5-.5.9-.2.5-.2.9-.1 1.3.2.5.3 1 .3 1.4 0 .5.1.9.3 1.4.7 2 1.5 3.6 2.4 4.9 1 1.3 2.3 2.4 3.9 3.4.7.4 1.3.7 2.1.8.7.1 1.4.3 2.2.6.7.2 1.6.3 2.7.4 1.2.1 2.2 0 3-.1h1.1c.8-.2 1.6-.4 2.3-.6.7-.2 1.4-.4 2.1-.7.8-.4 1.8-1 2.8-1.6 1-.7 1.8-1.3 2.3-2 .4-.6.9-1.1 1.3-1.7.5-.5 1-.9 1.7-1.2.8-.4 1.9-.6 3.2-.6 1.3 0 2.5.1 3.6.1.5 0 1 0 1.6-.1.5 0 1 0 1.4.2h1.2c.8.2 1.4.4 1.7.6.3.2.5.5.6 1.1 0 .6 0 1.1-.2 1.5-.4 1.2-.9 2.2-1.4 3.1-.5.9-1.1 1.8-1.7 2.7-1.8 2.7-3.9 4.9-6.2 6.6-2.3 1.7-5.2 3.1-8.7 4.2-.9.3-1.8.5-2.7.6-.9.1-1.9.2-2.9.5-.3.1-.7.1-1.1.1-.4 0-.7 0-1.1.1h-1.4c-.4.2-.9.2-1.4.2-.5 0-1-.1-1.4-.2-.7-.1-1.2-.1-1.7 0-.5.1-1 0-1.6-.1-.4-.2-.9-.2-1.4-.2-.5 0-1-.1-1.4-.2-.9-.2-1.8-.4-2.7-.6-.9-.2-1.7-.5-2.5-.9-.9-.3-1.8-.6-2.6-.9-.8-.3-1.5-.6-2.2-1.1-2.7-1.7-5-3.6-7.1-5.8-2.1-2.2-3.8-4.8-5.1-7.7-.4-.9-.7-1.8-1-2.8-.3-1-.6-1.9-1-2.9-.1-.3-.1-.6-.1-.9 0-.3 0-.6-.1-.9-.3-1-.5-2.1-.6-3.2-.1-1.2-.2-2.3-.2-3.5 0-.4 0-.9-.1-1.4 0-.5 0-1 .1-1.4v-1.5l.4-3c.3-1.4.6-2.8.9-4.1.2-1.3.6-2.6 1.1-3.7 3.6-8.6 9.6-14.8 18.2-18.3 1.2-.5 2.3-.9 3.6-1.1 1.2-.2 2.5-.5 3.8-.8.7-.1 1.3-.1 1.9-.1.6 0 1.2 0 1.9-.1 4.2-.1 7.9.4 10.9 1.4 3 1 5.8 2.4 8.2 4.1.7.5 1.5 1.1 2.2 1.7.7.6 1.4 1.3 2 1.9.2.4.6.7 1 1 .7.9 1.3 1.9 1.9 2.8.6 1 1.2 1.9 1.9 2.9.4.7.8 1.5 1.1 2.3.3.8.6 1.6.9 2.6.4 1.1.7 2.2 1 3.4.2 1.2.5 2.3.9 3.5.2.7.2 1.4.2 2.2 0 .8 0 1.5.2 2.2v1.5z"/><path d="m246.8 119.5c.5.4.8 1 .9 1.7.1.7.1 1.6.1 2.5v9c0 .9 0 1.7-.1 2.5-.1.7-.3 1.3-.7 1.7-.6.4-1.3.6-2.1.7-.8 0-1.7.1-2.6.1h-8.4c-.9 0-1.8 0-2.6-.1-.8 0-1.5-.3-1.9-.8-.4-.5-.7-1.1-.7-1.9-.1-.8-.1-1.6-.1-2.6v-7.9c0-.8 0-1.6 0-2.4 0-.8.2-1.4.5-1.9.3-.5 1-.9 1.9-1.2.2-.1.4-.1.6-.1.2 0 .4 0 .6-.1h9.8c1 0 1.9 0 2.8.1.7.1 1.4.3 2 .7m-17.3-42.6c-.4-1.8-.6-3.8-.6-6 0-2.2.1-4.3.1-6.5v-9.6c0-.9 0-1.8 0-2.6 0-.8.2-1.5.6-2.1.4-.5 1-.8 1.7-1 .2-.1.3-.1.5-.1.2 0 .3 0 .5-.1h9.6c1 0 1.9 0 2.8.1.9.1 1.5.4 1.9 1 .3.5.5 1.1.5 1.9 0 .7 0 1.5 0 2.4v13.8c0 .5 0 1.1.1 1.7.1.6 0 1.1-.1 1.6v1.4c-.2.6-.2 1.2-.2 1.8 0 .6 0 1.2-.2 1.7-.2.4-.2.8-.2 1.2 0 .4 0 .8-.2 1.2-.2.7-.2 1.5-.2 2.2 0 .7-.1 1.4-.2 2.1-.1.3-.1.6-.1.9 0 .3 0 .6-.1.9-.2 1.1-.3 2.2-.4 3.4-.1 1.2-.2 2.3-.5 3.4-.2.6-.2 1.1-.2 1.6 0 .5 0 1.1-.2 1.7-.3 1.5-.5 3.1-.6 4.7 0 1.6-.3 3.2-.7 4.7-.2 1.2-.4 2.3-.4 3.6 0 1.2-.5 2.1-1.3 2.7-.3.2-.5.3-.9.4-.3.1-.7.2-1.1.2h-1.7c-.8 0-1.6-.1-2.2-.2-.6-.2-1.1-.5-1.4-.9-.4-.5-.6-1-.6-1.6 0-.6-.1-1.2-.2-1.9-.2-.9-.4-1.9-.4-2.9 0-1-.2-2-.4-2.9 0-.7 0-1.1-.1-1.4-.1-.5-.1-1-.1-1.5 0-.5 0-1-.1-1.5-.3-1.2-.5-2.4-.6-3.7 0-1.3-.2-2.5-.4-3.7-.1-.4-.1-.8-.1-1.2s0-.8-.1-1.2c-.2-.7-.3-1.5-.3-2.4 0-.8-.1-1.7-.3-2.5 0-.2 0-.3-.1-.5 0-.2-.1-.3-.1-.5-.2-.7-.2-1.3-.2-1.9-.3-.6-.4-1.2-.5-1.9"/><path d="m65.5 200.8c.2.5.3 1.4.3 2.6 0 1.2 0 2.1-.1 2.6 0 .4 0 .8-.1 1.1 0 .3-.1.6-.1 1.1-.2.7-.2 1.3-.2 1.9 0 .6-.1 1.3-.3 1.9 0 .3-.1.9-.2 1.7-.2 1-.5 2-.7 3.1-.2 1-.5 2-.9 2.9-1.5 3.7-3.4 7-5.6 9.7-2.2 2.7-5.2 4.9-8.9 6.5-.7.3-1.5.6-2.3.8-.8.2-1.6.4-2.6.7-.5.2-1 .2-1.6.2-.5 0-1.1 0-1.6.1h-1.1c-.5.2-1.2.2-2 .2-.8 0-1.5-.1-2-.3h-.7c-.4-.1-.9-.1-1.4-.2-.5 0-1-.1-1.5-.2-1.6-.4-3-.8-4.4-1.2-1.3-.4-2.6-1-3.7-1.7-.5-.3-1-.7-1.4-1-.5-.3-.9-.7-1.3-1.1-.2-.2-.5-.3-.7-.5-.3-.2-.5-.3-.7-.4-.7-.2-1.2-.1-1.4.5-.4.6-.7 1.3-.8 2.1-.1.8-.4 1.4-.9 1.8-.5.3-1.1.5-1.7.6-.7 0-1.4.1-2.2.1h-6c-.6 0-1.2 0-1.8.1-.6 0-1.2 0-1.7-.2-1.2-.4-1.8-1.2-1.9-2.3-.3-1.4-.3-2.6-.3-4.1v-76c0-.9 0-1.9 0-2.9 0-1 .2-1.8.6-2.4.3-.6.9-1 1.7-1.1.2-.1.4-.1.6-.1.2 0 .4 0 .6-.1h7.9c1.5 0 2.8.1 3.9.2 1.1.1 1.8.8 2.1 1.9.3.8.3 1.9.3 3.3-.1 1.4-.1 2.6-.1 3.6v13.7c0 .9 0 1.8 0 2.7 0 .9.1 1.7.2 2.4.1.4.2.8.2 1.1.1.3.3.5.6.6.2.2.4.2.7.2.3 0 .5 0 .7-.1.6-.3 1.1-.7 1.6-1.1.5-.4 1-.8 1.6-1.2 1.1-.7 2.2-1.4 3.4-1.9 1.2-.5 2.5-1 3.9-1.4.7-.2 1.3-.4 2-.4.7 0 1.3-.1 2-.3.6-.2 1.2-.2 1.9-.2.7 0 1.3 0 2 0h1.2c.2.1.5.1.9.1.3 0 .7 0 1 .1.9.3 1.8.4 2.6.6.8.1 1.6.4 2.3.7 3.8 1.6 6.9 3.6 9.3 6.1 2.4 2.5 4.4 5.6 6.1 9.3.4 1 .8 2 1.1 3.1.3 1.1.6 2.2.9 3.4.2.6.3 1.1.3 1.7 0 .5.1 1.1.3 1.8.2.4.2.9.2 1.4 0 .5 0 1 .1 1.5v.6z"/><path d="m88.1 148.2c.6.7.9 1.7.9 3 0 1.3 0 2.6 0 3.9 0 1.1 0 2.2 0 3.4 0 1.2-.3 2-.9 2.4-.5.4-1.1.7-1.9.7-.8.1-1.6.1-2.6.1h-7c-.9 0-1.7 0-2.4-.1-.7-.1-1.3-.3-1.8-.7-.3-.3-.6-.7-.7-1.4-.1-.7-.2-1.5-.2-2.4 0-.9 0-1.8 0-2.7 0-.9.1-1.7.1-2.4 0-.7 0-1.3.1-1.8 0-.5.2-1 .4-1.4.2-.3.4-.6.7-.7.3-.2.6-.3.9-.5.2 0 .4 0 .6-.1.2 0 .5-.1.6-.1h9.1c.8 0 1.6 0 2.4.1.7 0 1.3.3 1.7.7m.9 81.1c0 1.7 0 3.1-.1 4.2-.1 1.2-.8 2-2.2 2.4-.5.2-1 .2-1.6.2-.6 0-1.2-.1-1.9-.1h-7c-.7 0-1.5 0-2.2-.1-.7-.1-1.2-.3-1.6-.7-.5-.6-.8-1.3-.8-2.2 0-.9-.1-1.8-.1-2.8v-52.6c0-.8 0-1.7 0-2.5 0-.8.2-1.5.5-2 .5-.6 1.2-1 2.1-1.1.2-.1.4-.1.7-.1.3 0 .5 0 .7-.1h6.2c.5 0 1.1 0 1.7-.1.6 0 1.1 0 1.6.1h1c.5.2 1 .3 1.4.4.4.1.7.3 1 .7.3.4.5 1 .6 1.7 0 .7.1 1.5.1 2.4v52.3z"/><path d="m101.7 147.3h9.1c.9 0 1.7 0 2.5.1.7.1 1.3.3 1.7.7.7.7 1 2 .9 3.6 0 1.7-.1 3.2-.1 4.6v21.1 7.6c0 .6 0 1.2-.1 1.9-.1.7 0 1.3.1 1.9v1.1c.2.4.3.9.4 1.3.1.5.3.8.7.9.2.2.6.2 1 .1.4-.1.7-.3.9-.4.8-.6 1.6-1.2 2.2-2 .6-.7 1.3-1.5 1.9-2.1.7-.7 1.4-1.3 2.1-2.1.7-.7 1.4-1.5 2-2.3.3-.2.5-.4.9-.7.4-.4.8-.9 1.2-1.3.4-.5.8-.9 1.2-1.3l2.9-2.9c.2-.3.4-.6.7-.8.3-.2.6-.5.8-.8.7-.8 1.4-1.6 2.2-2.2.8-.6 1.8-1.1 2.9-1.3.4-.1 1-.1 1.7-.1.3-.1.7-.1 1-.1.3 0 .7.1 1.1.1h4.1c.7 0 1.5 0 2.4-.1 1-.1 1.8 0 2.4.1h1.4c.4.2.8.3 1.2.3.4 0 .7.2.9.6.2.2.2.6.1 1-.1.4-.3.7-.4.9-.5.8-1.1 1.6-1.9 2.2-.7.6-1.5 1.3-2.1 1.9-.6.6-1.1 1.2-1.7 1.7-.5.6-1.1 1.1-1.8 1.6-.4.3-.8.7-1.1 1.1-.3.4-.6.7-1.1 1.1-.4.2-.8.6-1.1 1-.3.4-.7.8-1.1 1.1l-4.7 4.7c-.6.5-1.1 1-1.6 1.4-.5.5-.9 1-1.3 1.7-.2.2-.3.6-.5.9-.2.4-.2.8 0 1.2.2.9.5 1.7.9 2.2.5.6.9 1.2 1.3 1.9.7.9 1.3 1.8 1.8 2.7.5.9 1.1 1.8 1.8 2.7l13.1 19.8c.8 1.2 1.6 2.3 2.4 3.5.8 1.2 1.5 2.3 2.2 3.5.2.4.4.9.4 1.5 0 .6-.1 1-.6 1.4-.3.2-.7.2-1 .2-.3 0-.7.1-1.1.3-.3.1-.7.1-1.1.1-.4 0-.8-.1-1.2-.1h-4.6c-1.3 0-2.9 0-4.7.1-1.8 0-3.2-.1-4.1-.6-.9-.4-1.7-1.2-2.4-2.3-.7-1.1-1.3-2.1-1.9-3.1-1.4-2.2-2.8-4.5-4.2-6.8-1.4-2.3-2.8-4.5-4.2-6.8-.7-1.1-1.3-2.2-1.9-3.2-.6-1.1-1.3-2.1-2.1-3.1-.2-.3-.5-.6-.9-1-.4-.4-.9-.5-1.4-.4-.7.2-1.3.4-1.7.7-.4.3-.8.7-1.2 1.1-.7.5-1.3 1.1-1.9 1.7-.6.7-1 1.5-1.4 2.4-.2.7-.2 1.4-.2 2.2 0 .8 0 1.6 0 2.3v7.7c0 .6 0 1.2.1 1.9 0 .7.1 1.4.1 2.2 0 .7 0 1.4-.1 2.1-.1.6-.2 1.1-.5 1.4-.3.5-.9.9-1.6 1.1-.7.2-1.5.3-2.4.4-.9 0-1.9 0-2.9 0-1 0-1.9-.1-2.6-.1-.9 0-1.9 0-3 .1-1.1 0-2-.1-2.6-.3-1.1-.4-1.7-1.2-1.7-2.2-.1-1.1-.1-2.3-.1-3.7v-14.3-50-11.6c0-.9 0-1.9-.1-2.9 0-1 .1-1.8.4-2.4.3-.6.9-1 1.7-1.2.2 0 .4 0 .6-.1.2 0 .4 0 .6 0"/><path d="m223.1 203.4c.2.7.2 1.4 0 2.2-.2.8-.5 1.4-.9 1.6-.4.3-1 .6-1.8.7-.8.1-1.7.2-2.6.3-1 0-1.9 0-2.9 0-1 0-1.8-.1-2.6-.1h-30.3c-.6 0-1.1 0-1.7 0-.5 0-1 .1-1.4.2-.7.3-1.1.7-1.2 1-.2.2-.3.5-.5.9-.2.5-.2.9-.1 1.3.2.5.3 1 .3 1.4 0 .5.1.9.3 1.4.7 2 1.5 3.6 2.4 4.9 1 1.3 2.3 2.4 3.9 3.4.7.4 1.3.7 2.1.8.7.1 1.4.3 2.2.6.7.2 1.6.3 2.7.4 1.2.1 2.2 0 3-.1h1.1c.8-.2 1.6-.4 2.3-.6.7-.2 1.4-.4 2.1-.7.8-.4 1.8-1 2.8-1.6 1-.7 1.8-1.3 2.3-2 .4-.6.9-1.1 1.3-1.7.5-.5 1-.9 1.7-1.2.8-.4 1.9-.6 3.2-.6 1.3 0 2.5.1 3.6.1.5 0 1 0 1.6-.1.5 0 1 0 1.4.2h1.2c.8.2 1.4.4 1.7.6.3.2.5.5.6 1.1 0 .6 0 1.1-.2 1.5-.4 1.2-.9 2.2-1.4 3.1-.5.9-1.1 1.8-1.7 2.7-1.8 2.7-3.9 4.9-6.2 6.6-2.3 1.7-5.2 3.1-8.7 4.2-.9.3-1.8.5-2.7.6-.9.1-1.9.2-2.9.5-.3.1-.7.1-1.1.1-.4 0-.7 0-1.1.1h-1.4c-.4.2-.9.2-1.4.2-.5 0-1-.1-1.4-.2-.7-.1-1.2-.1-1.7 0-.5.1-1 0-1.6-.1-.4-.2-.9-.3-1.4-.3-.5 0-1-.1-1.4-.2-.9-.2-1.8-.4-2.7-.6-.9-.2-1.7-.5-2.5-.9-.9-.3-1.8-.6-2.6-.9-.8-.3-1.5-.6-2.2-1.1-2.7-1.7-5-3.6-7.1-5.8-2.1-2.2-3.8-4.8-5.1-7.7-.4-.9-.7-1.8-1-2.8-.3-1-.6-1.9-1-2.9-.1-.3-.1-.6-.1-.9 0-.3 0-.6-.1-.9-.3-1-.5-2.1-.6-3.2-.1-1.2-.2-2.3-.2-3.5 0-.4 0-.9-.1-1.4 0-.5 0-1 .1-1.4v-1.5l.4-3c.3-1.4.6-2.8.9-4.1.2-1.3.6-2.6 1.1-3.7 3.6-8.6 9.6-14.8 18.2-18.3 1.2-.5 2.3-.9 3.6-1.1 1.2-.2 2.5-.5 3.8-.8.7-.1 1.3-.1 1.9-.1.6 0 1.2 0 1.9-.1 4.2-.1 7.9.4 10.9 1.4 3 1 5.8 2.4 8.2 4.1.7.5 1.5 1.1 2.2 1.7.7.6 1.4 1.3 2 1.9.2.4.6.7 1 1 .7.9 1.3 1.9 1.9 2.8.6 1 1.2 1.9 1.9 2.9.4.7.8 1.5 1.1 2.3.3.8.6 1.6.9 2.6.4 1.1.7 2.2 1 3.4.2 1.2.5 2.3.9 3.5.2.7.2 1.4.2 2.2 0 .8 0 1.5.2 2.2v1.5z"/><path d="m246.8 217.9c.5.4.8 1 .9 1.7.1.7.1 1.6.1 2.5v9c0 .9 0 1.7-.1 2.5-.1.7-.3 1.3-.7 1.7-.6.4-1.3.6-2.1.7-.8 0-1.7.1-2.6.1h-8.4c-.9 0-1.8 0-2.6-.1-.8 0-1.5-.3-1.9-.8-.4-.5-.7-1.1-.7-1.9-.1-.8-.1-1.6-.1-2.6v-7.9c0-.8 0-1.6 0-2.4 0-.8.2-1.4.5-1.9.3-.5 1-.9 1.9-1.2.2-.1.4-.1.6-.1.2 0 .4 0 .6-.1h9.8c1 0 1.9 0 2.8.1.7 0 1.4.2 2 .7m-17.3-42.7c-.4-1.8-.6-3.8-.6-6 0-2.2.1-4.3.1-6.5v-9.6c0-.9 0-1.8 0-2.6 0-.8.2-1.5.6-2.1.4-.5 1-.8 1.7-1 .2-.1.3-.1.5-.1.2 0 .3 0 .5-.1h9.6c1 0 1.9 0 2.8.1.9.1 1.5.4 1.9 1 .3.5.5 1.1.5 1.9 0 .7 0 1.5 0 2.4v13.8c0 .5 0 1.1.1 1.7.1.6 0 1.1-.1 1.6v1.4c-.2.6-.2 1.2-.2 1.8 0 .6 0 1.2-.2 1.7-.2.4-.2.8-.2 1.2 0 .4 0 .8-.2 1.2-.2.7-.2 1.5-.2 2.2 0 .7-.1 1.4-.2 2.1-.1.3-.1.6-.1.9 0 .3 0 .6-.1.9-.2 1.1-.3 2.2-.4 3.4-.1 1.2-.2 2.3-.5 3.4-.2.6-.2 1.1-.2 1.6 0 .5 0 1.1-.2 1.7-.3 1.5-.5 3.1-.6 4.7 0 1.6-.3 3.2-.7 4.7-.2 1.2-.4 2.3-.4 3.6 0 1.2-.5 2.1-1.3 2.7-.3.2-.5.3-.9.4-.3.1-.7.2-1.1.2h-1.7c-.8 0-1.6-.1-2.2-.2-.6-.2-1.1-.5-1.4-.9-.4-.5-.6-1-.6-1.6 0-.6-.1-1.2-.2-1.9-.2-.9-.4-1.9-.4-2.9 0-1-.2-2-.4-2.9 0-.7 0-1.1-.1-1.4-.1-.5-.1-1-.1-1.5 0-.5 0-1-.1-1.5-.3-1.2-.5-2.4-.6-3.7 0-1.3-.2-2.5-.4-3.7-.1-.4-.1-.8-.1-1.2 0-.4 0-.8-.1-1.2-.2-.7-.3-1.5-.3-2.4 0-.8-.1-1.7-.3-2.5 0-.2 0-.3-.1-.5 0-.2-.1-.3-.1-.5-.2-.7-.2-1.3-.2-1.9-.3-.6-.4-1.2-.5-1.9"/></symbol>
	</defs>
</svg>