<svg xmlns="http://www.w3.org/2000/svg" xmlns:xlink="http://www.w3.org/1999/xlink" version="1.1" x="0px" y="0px" viewBox="0 0 100 100" enable-background="new 0 0 100 100" xml:space="preserve"><path fill="#FAF5F0" d="M92.071,7.974C81.305-2.793,64.024-2.431,53.529,8.065L41.043,20.55c7.329-2.352,13.028-0.724,18.005,1.357l3.619-3.619  c5.157-5.157,13.752-4.886,18.819,0.181c5.157,5.157,5.519,13.843,0.362,19L65.019,54.298c-1.9,1.9-4.071,2.986-6.514,3.619  c-6.514,0.905-12.757-2.352-15.109-8.052L32.357,60.54c7.6,11.49,23.343,15.381,35.828,8.324c2.081-1.086,4.071-2.714,5.881-4.524  l17.914-17.914C102.476,35.931,102.838,18.741,92.071,7.974z M32.538,30.503c-2.171,1.086-4.162,2.714-5.881,4.524L8.019,53.574  C-2.476,64.069-2.838,81.259,7.929,92.026s28.047,10.405,38.543-0.09L58.957,79.45c-7.329,2.352-13.028,0.724-18.005-1.357  l-3.619,3.619c-5.157,5.157-13.752,4.886-18.819-0.181c-5.157-5.157-5.519-13.843-0.362-19l17.462-17.462  c1.9-1.9,4.071-2.986,6.514-3.619c6.514-0.905,12.757,2.352,15.109,8.052l11.129-10.676C60.676,27.336,44.933,23.445,32.538,30.503z"></path></svg>