<svg xmlns="http://www.w3.org/2000/svg" viewBox="0 0 291 288.5" id="bb-icon-logo" class="icons bb-icon-logo"><path d="m290.7 136.1c-8.8.9-16.9-5.1-18.4-14-1.5-8.8 4-17.3 12.6-19.4-1.6-5.4-3.5-10.7-5.7-15.8-8 3.9-17.6 1-22.1-6.8-4.5-7.8-2.1-17.6 5.2-22.5-3.3-4.5-7-8.8-10.8-12.9-6.2 6.3-16.2 6.9-23.1 1.2-6.9-5.8-8-15.8-2.8-23-4.7-3.1-9.5-5.9-14.5-8.4-3.6 8.1-12.9 12.1-21.3 9-8.4-3.1-12.9-12.1-10.5-20.6-5.4-1.3-10.9-2.2-16.5-2.9-.6 8.8-8 15.8-16.9 15.8-9 0-16.3-7-16.9-15.8-5.5.6-10.9 1.6-16.2 2.8 2.4 8.5-2.1 17.5-10.6 20.6-8.4 3-17.7-1-21.3-9.1-5 2.5-9.9 5.3-14.5 8.4 5.2 7.2 4 17.2-2.9 23-6.9 5.7-17 5.1-23.1-1.2-3.8 4.1-7.5 8.3-10.8 12.8 7.3 5 9.6 14.8 5.1 22.6-4.5 7.8-14.2 10.6-22.1 6.7-2.2 5.1-4.1 10.4-5.8 15.8 8.6 2.2 14.1 10.6 12.6 19.4-1.6 8.8-9.7 14.8-18.5 13.9-.2 2.8-.3 5.7-.3 8.6 0 2.8.1 5.5.2 8.2 8.8-.9 16.9 5.1 18.4 14 1.5 8.8-4 17.3-12.6 19.4 1.6 5.4 3.5 10.7 5.7 15.8 8-3.9 17.6-1 22.1 6.8 4.5 7.8 2.1 17.6-5.2 22.5 3.3 4.5 7 8.8 10.8 12.9 6.2-6.3 16.2-6.9 23.1-1.2 6.9 5.8 8 15.8 2.8 23 4.7 3.1 9.5 5.9 14.5 8.4 3.6-8.1 12.9-12.1 21.3-9 8.4 3.1 12.9 12.1 10.5 20.6 5.4 1.3 10.9 2.2 16.5 2.9.6-8.8 8-15.8 16.9-15.8 9 0 16.3 7 16.9 15.8 5.5-.6 10.9-1.6 16.1-2.8-2.4-8.5 2.1-17.5 10.6-20.6 8.4-3 17.7 1 21.3 9.1 5-2.5 9.9-5.3 14.6-8.4-5.2-7.2-4-17.2 2.9-23 6.9-5.7 17-5.1 23.1 1.2 3.8-4.1 7.5-8.3 10.8-12.8-7.3-5-9.6-14.8-5.1-22.6 4.5-7.8 14.2-10.6 22.2-6.7 2.2-5.1 4.1-10.4 5.8-15.8-8.6-2.2-14.1-10.6-12.6-19.4 1.6-8.8 9.7-14.8 18.5-13.9.2-2.8.3-5.7.3-8.6-.1-2.8-.1-5.5-.3-8.2m-117.5 55.4c-.6 1.2-1.2 2.4-1.8 3.5-.6 1.1-1.2 2.1-1.9 3.1-4.5 5.8-10.2 10-17 12.6-2.6 1-5.4 1.7-8.2 2.1-2.8.4-5.8.7-8.9.9-1.6.1-3.2.1-4.8-.1-1.6-.2-3.2-.4-4.7-.5-.7 0-1.3-.1-1.9-.3-.6-.2-1.2-.3-1.9-.3-.6 0-1.1-.2-1.7-.4-.6-.3-1.2-.4-1.9-.3-.6 0-1.1-.1-1.7-.3-.6-.2-1.2-.4-1.8-.6l-57-15.5c-2.2-.6-4-1.2-5.5-1.8-1.4-.6-2.3-1.8-2.5-3.5-.1-1.1.2-2.8.8-4.9.6-2.1 1.2-3.9 1.5-5.4l30.8-114.8c.4-1.6.8-3.2 1.2-5 .4-1.8 1.1-3.1 2-4 .8-.8 1.9-1.2 3.5-1.2.3-.1.6 0 .8.1.2.1.5.2.8.1l58.3 15.6c.9.2 1.8.5 2.8.6.9.2 1.8.4 2.5.8.6.4 1.2.7 1.9.7.7 0 1.3.2 2 .5l1.2.3c.7.5 1.5.8 2.4.9.9.2 1.7.5 2.6 1 1 .5 1.9 1 2.9 1.4.9.4 1.9.9 2.9 1.4 2.2 1.6 4.3 3.1 6.3 4.5 2 1.4 3.7 3.1 5.2 4.8 2.1 2.5 3.7 5.4 4.6 8.6 1 3.2 1.5 6.7 1.6 10.5 0 1-.1 1.9-.2 2.9-.2.9-.3 2-.3 3.1 0 .6-.1 1.1-.3 1.6-.2.5-.3 1-.3 1.6 0 .4-.1.9-.3 1.5-.2.6-.4 1-.6 1.2l-.5 1.8c-.1.4-.3.8-.5 1.3-.2.5-.3.9-.4 1.1-.5.8-.9 1.6-1.1 2.3-.3.7-.6 1.3-1 1.9-3 4.2-6.2 7.5-9.7 9.8-1.2.7-2.3 1.2-3.6 1.6-1.2.4-2.4 1-3.4 1.8-.3.2-.7.5-1.2.8-.5.4-.6.9-.5 1.6 0 1.1.6 2.2 1.8 3.3 1.2 1.1 2.3 2.1 3.2 3 2.9 3.3 5 6.8 6.4 10.5 1.3 3.6 2 7.5 2.1 11.9.1 1.2.1 2.3-.1 3.4-.2 1.1-.3 2.3-.3 3.4l-.6 2.2c-.1 1.5-.6 3.4-1.4 5.7-1.2 2.6-1.9 4.3-2.6 5.6m38.9 17.5c-.2 1.2-.5 2.5-.9 4l-3.8 14.1c-.4 1.4-.8 2.7-1.2 3.9-.4 1.1-1.1 1.9-1.9 2.4-1.1.4-2.3.5-3.6.2-1.3-.3-2.7-.6-4.1-1l-13.1-3.5c-1.4-.4-2.8-.8-4.1-1.2-1.3-.4-2.2-1.1-2.6-2.1-.4-1-.6-2.1-.4-3.3.2-1.3.5-2.6.9-4.1l3.3-12.3c.3-1.3.7-2.6 1-3.8.3-1.2.9-2.2 1.6-2.8.7-.6 1.9-1 3.5-1.2.3-.1.6 0 .9.1.3.2.6.2.9.1l15.4 4.1c1.6.4 3 .8 4.4 1.3 1.4.4 2.4 1.1 3.1 2 .7.9.9 1.9.7 3.1m28.4-108.9c-.3 1.2-.6 2.4-1 3.7l-5.8 21.7c-.2.8-.4 1.7-.5 2.7-.1 1-.4 1.8-.9 2.4l-.6 2.2c-.5.8-.9 1.8-1.1 2.8-.2 1-.5 1.8-1 2.6-.4.6-.7 1.2-.8 1.8-.1.6-.4 1.2-.8 1.8-.6 1.1-1 2.2-1.3 3.3-.3 1.1-.7 2.2-1.3 3.1-.3.5-.5 1-.6 1.4-.1.5-.3.9-.6 1.4-.7 1.6-1.4 3.3-2 5.1-.6 1.8-1.4 3.5-2.2 5.1-.5.8-.8 1.7-1 2.5-.1.8-.5 1.7-1 2.7-1.2 2.2-2.1 4.6-2.8 7.1-.7 2.5-1.8 4.9-3 7-.9 1.7-1.6 3.5-2.2 5.4-.6 1.9-1.6 3.1-3.2 3.7-.5.2-1 .2-1.5.2-.6 0-1.2 0-1.9-.1l-2.7-.7c-1.3-.3-2.4-.8-3.3-1.3-.9-.5-1.5-1.2-1.9-2-.4-1-.5-1.9-.3-2.8.2-.9.4-1.9.4-3 0-1.5.2-3.1.5-4.7.4-1.6.5-3.1.5-4.7.3-1 .4-1.8.4-2.2.1-.8.2-1.6.4-2.4.2-.8.4-1.6.4-2.4 0-2 .2-4 .7-6 .5-2 .8-4 .9-6 0-.7.1-1.3.3-1.9.2-.6.3-1.2.3-1.9.1-1.2.2-2.5.5-3.8.3-1.3.5-2.7.6-4 .1-.3.1-.5.1-.8 0-.3 0-.5.1-.8 0-1.1.2-2.2.4-3.1.3-1 .4-2 .4-3.1.1-3 .7-6.2 1.6-9.6 1-3.4 1.9-6.8 2.8-10.1l4-15.1c.4-1.4.8-2.8 1.1-4.1.3-1.3 1-2.3 1.9-3.1.9-.6 1.9-.9 3.2-.8.3-.1.6 0 .8.1.2.1.5.2.8.1l15.1 4c1.6.4 3 .9 4.3 1.4 1.3.5 2.2 1.3 2.6 2.4.5.6.5 1.6.2 2.8"/>
</svg>