<?xml version="1.0" encoding="utf-8"?>
<!-- Generator: Adobe Illustrator 19.0.0, SVG Export Plug-In . SVG Version: 6.00 Build 0)  -->
<svg version="1.1" id="Layer_1" xmlns="http://www.w3.org/2000/svg" xmlns:xlink="http://www.w3.org/1999/xlink" x="0px" y="0px"
	 viewBox="0 0 792 612" style="enable-background:new 0 0 792 612;" xml:space="preserve">
<style type="text/css">
	.st0{fill:#00ADEF;}
	.st1{fill:#FFFFFF;}
	.st2{fill:#333333;}
</style>
<path class="st0" d="M384.502,298.637c-8.782,0.887-16.889-5.133-18.436-13.966c-1.549-8.842,4.046-17.271,12.623-19.408
	c-1.61-5.4-3.523-10.67-5.725-15.786c-7.953,3.86-17.648,0.982-22.131-6.797c-4.477-7.771-2.113-17.596,5.199-22.545
	c-3.349-4.494-6.955-8.785-10.79-12.858c-6.153,6.325-16.229,6.93-23.095,1.163c-6.867-5.77-8.009-15.809-2.832-22.962
	c-4.662-3.073-9.51-5.887-14.526-8.416c-3.608,8.067-12.881,12.098-21.315,9.025c-8.434-3.073-12.942-12.125-10.514-20.625
	c-5.402-1.273-10.922-2.242-16.537-2.895c-0.64,8.806-7.969,15.756-16.938,15.756c-8.969,0-16.298-6.95-16.938-15.756
	c-5.481,0.637-10.873,1.571-16.151,2.801c2.407,8.509-2.128,17.547-10.571,20.598c-8.441,3.049-17.701-1.007-21.289-9.08
	c-5.022,2.516-9.879,5.313-14.549,8.373c5.156,7.17,3.986,17.202-2.896,22.953c-6.881,5.748-16.956,5.115-23.093-1.225
	c-3.846,4.061-7.462,8.343-10.822,12.828c7.299,4.972,9.634,14.798,5.136,22.558c-4.504,7.767-14.204,10.617-22.146,6.739
	c-2.216,5.11-4.146,10.373-5.771,15.768c8.57,2.164,14.141,10.603,12.568,19.442c-1.57,8.828-9.691,14.824-18.469,13.916
	c-0.166,2.843-0.26,5.706-0.26,8.591c0,2.75,0.084,5.48,0.234,8.192c8.781-0.883,16.887,5.136,18.434,13.97
	c1.548,8.842-4.047,17.266-12.621,19.404c1.61,5.4,3.522,10.669,5.725,15.785c7.952-3.857,17.646-0.979,22.129,6.801
	c4.479,7.771,2.113,17.593-5.197,22.542c3.348,4.494,6.954,8.784,10.789,12.857c6.154-6.322,16.23-6.926,23.096-1.159
	c6.866,5.77,8.007,15.806,2.831,22.959c4.663,3.073,9.511,5.887,14.527,8.417c3.609-8.066,12.882-12.097,21.315-9.024
	c8.433,3.073,12.941,12.124,10.514,20.623c5.402,1.274,10.921,2.243,16.537,2.895c0.64-8.806,7.969-15.756,16.938-15.756
	c8.969,0,16.298,6.95,16.938,15.756c5.48-0.637,10.871-1.57,16.148-2.801c-2.409-8.508,2.123-17.549,10.566-20.598
	c8.44-3.049,17.708,1.005,21.293,9.082c5.023-2.516,9.88-5.314,14.551-8.373c-5.159-7.168-3.993-17.203,2.892-22.954
	c6.881-5.748,16.962-5.118,23.098,1.226c3.847-4.062,7.463-8.344,10.824-12.829c-7.302-4.968-9.641-14.796-5.142-22.557
	c4.503-7.765,14.209-10.621,22.15-6.74c2.216-5.11,4.147-10.372,5.772-15.768c-8.573-2.161-14.145-10.601-12.572-19.44
	c1.57-8.827,9.694-14.829,18.473-13.918c0.166-2.844,0.26-5.707,0.26-8.592C384.736,304.079,384.652,301.349,384.502,298.637z"/>
<g>
	<path class="st1" d="M270.605,343.041c-0.125,1.505-0.598,3.401-1.421,5.696c-0.825,2.293-1.543,4.059-2.151,5.291
		c-0.612,1.234-1.204,2.401-1.779,3.506c-0.576,1.103-1.197,2.125-1.867,3.061c-4.484,5.786-10.153,9.994-17.006,12.628
		c-2.637,0.97-5.372,1.672-8.211,2.097c-2.839,0.428-5.817,0.715-8.927,0.856c-1.576,0.139-3.169,0.094-4.785-0.13
		c-1.617-0.223-3.179-0.397-4.681-0.52c-0.688-0.044-1.323-0.146-1.91-0.304c-0.586-0.157-1.225-0.256-1.911-0.303
		c-0.557-0.007-1.11-0.155-1.661-0.445c-0.553-0.284-1.19-0.387-1.911-0.302c-0.557-0.008-1.12-0.123-1.688-0.348
		c-0.569-0.221-1.181-0.42-1.831-0.595l-57.096-15.299c-2.218-0.595-4.049-1.19-5.494-1.786c-1.448-0.599-2.288-1.766-2.52-3.504
		c-0.111-1.148,0.151-2.789,0.795-4.922c0.641-2.134,1.154-3.915,1.539-5.352l30.755-114.777c0.419-1.564,0.831-3.235,1.237-5.012
		c0.404-1.778,1.073-3.1,2.007-3.969c0.763-0.77,1.916-1.162,3.457-1.169c0.294-0.06,0.563-0.023,0.808,0.111
		c0.242,0.137,0.511,0.173,0.809,0.111l58.268,15.613c0.911,0.244,1.833,0.459,2.765,0.636c0.927,0.181,1.767,0.441,2.516,0.779
		c0.58,0.438,1.214,0.676,1.902,0.72c0.686,0.045,1.337,0.22,1.955,0.524l1.174,0.314c0.712,0.471,1.498,0.787,2.365,0.947
		c0.864,0.163,1.718,0.497,2.561,1.001c0.971,0.542,1.93,1.009,2.873,1.398c0.942,0.395,1.898,0.859,2.874,1.4
		c2.231,1.575,4.34,3.084,6.332,4.525c1.987,1.443,3.719,3.059,5.196,4.85c2.116,2.525,3.657,5.381,4.619,8.573
		c0.959,3.19,1.49,6.687,1.592,10.485c0.015,0.982-0.068,1.939-0.244,2.869c-0.182,0.931-0.281,1.951-0.298,3.063
		c-0.012,0.557-0.118,1.088-0.321,1.591c-0.208,0.504-0.315,1.036-0.322,1.59c0.023,0.426-0.072,0.923-0.295,1.493
		c-0.224,0.569-0.436,0.966-0.634,1.192l-0.472,1.76c-0.104,0.391-0.261,0.84-0.464,1.343c-0.208,0.505-0.343,0.888-0.411,1.146
		c-0.509,0.843-0.89,1.614-1.145,2.314c-0.258,0.699-0.605,1.341-1.039,1.922c-2.953,4.238-6.198,7.491-9.739,9.755
		c-1.157,0.669-2.344,1.189-3.561,1.562c-1.219,0.373-2.357,0.975-3.418,1.808c-0.334,0.192-0.722,0.472-1.168,0.839
		c-0.45,0.371-0.632,0.916-0.544,1.637c-0.02,1.114,0.591,2.221,1.835,3.32c1.24,1.103,2.294,2.119,3.165,3.049
		c2.891,3.289,5.023,6.795,6.402,10.518c1.281,3.558,1.969,7.515,2.06,11.867c0.112,1.15,0.083,2.295-0.081,3.437
		c-0.17,1.144-0.263,2.271-0.278,3.383L270.605,343.041z"/>
	<path class="st1" d="M305.286,368.469c0.606,0.864,0.818,1.896,0.635,3.105c-0.186,1.208-0.468,2.53-0.853,3.963l-3.771,14.078
		c-0.385,1.436-0.801,2.72-1.244,3.858c-0.445,1.138-1.081,1.947-1.905,2.423c-1.091,0.409-2.294,0.469-3.613,0.185
		c-1.322-0.282-2.7-0.618-4.132-1.002l-13.102-3.511c-1.436-0.385-2.797-0.783-4.079-1.198c-1.288-0.413-2.151-1.099-2.593-2.056
		c-0.445-0.958-0.565-2.071-0.36-3.346c0.199-1.273,0.493-2.625,0.877-4.061l3.302-12.319c0.349-1.302,0.688-2.572,1.021-3.813
		c0.331-1.237,0.862-2.18,1.594-2.82c0.729-0.645,1.881-1.033,3.457-1.171c0.295-0.059,0.598-0.014,0.906,0.139
		c0.306,0.154,0.608,0.199,0.905,0.138l15.447,4.139c1.565,0.419,3.022,0.846,4.374,1.277
		C303.504,366.911,304.547,367.574,305.286,368.469z M296.025,294.316c0.114-3.042,0.658-6.249,1.635-9.623
		c0.973-3.371,1.914-6.75,2.822-10.141l4.035-15.057c0.383-1.433,0.75-2.802,1.1-4.105c0.349-1.303,0.97-2.324,1.868-3.063
		c0.86-0.608,1.913-0.883,3.156-0.831c0.295-0.06,0.563-0.023,0.809,0.111c0.241,0.137,0.511,0.173,0.808,0.111l15.057,4.034
		c1.564,0.42,3.013,0.879,4.348,1.376c1.332,0.497,2.201,1.29,2.61,2.376c0.311,0.921,0.312,1.97-0.003,3.143
		c-0.314,1.173-0.647,2.414-0.995,3.715l-5.815,21.705c-0.21,0.781-0.382,1.678-0.512,2.691c-0.135,1.011-0.417,1.811-0.851,2.391
		l-0.576,2.152c-0.508,0.843-0.858,1.761-1.054,2.756c-0.197,0.995-0.531,1.85-1,2.561c-0.438,0.583-0.701,1.174-0.791,1.778
		c-0.094,0.604-0.356,1.198-0.791,1.779c-0.578,1.103-1.012,2.211-1.308,3.316c-0.298,1.11-0.718,2.15-1.257,3.122
		c-0.27,0.487-0.466,0.959-0.588,1.414c-0.123,0.458-0.321,0.93-0.589,1.414c-0.717,1.626-1.384,3.332-2.001,5.122
		c-0.621,1.792-1.352,3.482-2.197,5.07c-0.507,0.844-0.832,1.664-0.975,2.463c-0.145,0.8-0.488,1.686-1.025,2.659
		c-1.151,2.206-2.101,4.571-2.846,7.097c-0.748,2.523-1.761,4.872-3.04,7.045c-0.88,1.723-1.607,3.518-2.177,5.389
		c-0.574,1.873-1.635,3.092-3.181,3.654c-0.46,0.157-0.972,0.23-1.525,0.22c-0.558-0.009-1.179-0.035-1.864-0.081l-2.737-0.733
		c-1.305-0.35-2.411-0.784-3.317-1.308c-0.908-0.522-1.537-1.18-1.883-1.971c-0.442-0.958-0.54-1.892-0.295-2.805
		c0.243-0.91,0.373-1.924,0.395-3.038c-0.008-1.538,0.166-3.099,0.521-4.68c0.351-1.583,0.526-3.14,0.521-4.682
		c0.279-1.041,0.404-1.776,0.381-2.203c0.078-0.817,0.224-1.616,0.434-2.399c0.209-0.78,0.351-1.582,0.432-2.398
		c-0.032-1.964,0.19-3.964,0.667-6.003c0.474-2.038,0.763-4.021,0.86-5.952c0.044-0.687,0.146-1.323,0.303-1.909
		c0.157-0.587,0.256-1.222,0.303-1.911c0.051-1.242,0.221-2.523,0.507-3.846c0.281-1.32,0.468-2.667,0.558-4.042
		c0.07-0.26,0.107-0.527,0.113-0.808c0.001-0.277,0.041-0.545,0.111-0.809c0.016-1.113,0.159-2.157,0.421-3.135
		C295.867,296.473,296.005,295.43,296.025,294.316z"/>
</g>
<g>
	<path class="st2" d="M471.32,265.018c0.166,0.499,0.25,1.352,0.25,2.555c0,1.206-0.044,2.057-0.125,2.555
		c0,0.418-0.021,0.77-0.063,1.06c-0.043,0.292-0.063,0.645-0.063,1.06c-0.168,0.666-0.249,1.309-0.249,1.932
		c0,0.624-0.084,1.268-0.25,1.933c0,0.333-0.083,0.915-0.249,1.745c-0.249,0.997-0.48,2.016-0.686,3.054
		c-0.208,1.041-0.52,2.017-0.935,2.93c-1.496,3.74-3.366,6.98-5.609,9.724c-2.244,2.742-5.195,4.904-8.852,6.482
		c-0.748,0.333-1.517,0.602-2.306,0.81c-0.791,0.207-1.642,0.437-2.556,0.686c-0.499,0.166-1.019,0.25-1.559,0.25
		c-0.541,0-1.06,0.041-1.559,0.124h-1.121c-0.499,0.166-1.165,0.229-1.995,0.188c-0.832-0.043-1.495-0.145-1.994-0.311h-0.748
		c-0.417-0.084-0.872-0.146-1.371-0.186c-0.499-0.044-0.998-0.105-1.496-0.188c-1.579-0.417-3.034-0.832-4.363-1.246
		c-1.33-0.416-2.576-0.998-3.739-1.746c-0.499-0.331-0.978-0.664-1.434-0.997c-0.458-0.331-0.895-0.705-1.31-1.122
		c-0.249-0.165-0.498-0.331-0.747-0.499c-0.25-0.165-0.499-0.289-0.749-0.373c-0.748-0.25-1.205-0.082-1.371,0.498
		c-0.417,0.583-0.685,1.269-0.81,2.057c-0.125,0.791-0.436,1.393-0.935,1.809c-0.498,0.332-1.081,0.52-1.745,0.56
		c-0.666,0.043-1.414,0.063-2.243,0.063h-5.984c-0.582,0-1.185,0.02-1.808,0.061c-0.623,0.042-1.185-0.021-1.683-0.186
		c-1.165-0.415-1.808-1.184-1.933-2.307c-0.124-1.121-0.186-2.388-0.186-3.802v-76.042c0-0.914,0-1.87,0-2.867
		c0-0.997,0.206-1.786,0.623-2.369c0.331-0.581,0.913-0.955,1.745-1.122c0.166-0.082,0.353-0.103,0.562-0.062
		c0.206,0.042,0.392,0.021,0.561-0.063h7.853c1.496,0,2.783,0.063,3.864,0.187c1.079,0.124,1.786,0.77,2.119,1.932
		c0.25,0.832,0.332,1.932,0.25,3.304c-0.084,1.371-0.125,2.555-0.125,3.553v13.587c0,0.915,0,1.83,0,2.743
		c0,0.915,0.082,1.704,0.249,2.368c0.082,0.417,0.166,0.77,0.249,1.06c0.083,0.292,0.291,0.479,0.624,0.561
		c0.166,0.168,0.393,0.249,0.685,0.249c0.29,0,0.518-0.04,0.686-0.124c0.581-0.331,1.122-0.686,1.62-1.06
		c0.499-0.374,1.039-0.768,1.621-1.185c1.079-0.748,2.201-1.391,3.365-1.933c1.163-0.54,2.451-1.016,3.865-1.434
		c0.664-0.249,1.328-0.393,1.994-0.436c0.664-0.041,1.329-0.144,1.994-0.312c0.581-0.165,1.204-0.249,1.87-0.249
		c0.665,0,1.329,0,1.995,0h1.246c0.249,0.083,0.54,0.104,0.873,0.062c0.331-0.041,0.664-0.02,0.997,0.062
		c0.914,0.249,1.765,0.437,2.556,0.562c0.789,0.124,1.558,0.354,2.307,0.685c3.821,1.58,6.938,3.616,9.349,6.109
		c2.41,2.493,4.445,5.609,6.108,9.349c0.415,0.997,0.768,2.037,1.06,3.116c0.291,1.081,0.602,2.204,0.935,3.366
		c0.166,0.582,0.27,1.144,0.313,1.683c0.041,0.541,0.143,1.143,0.311,1.808c0.165,0.417,0.228,0.873,0.186,1.371
		c-0.042,0.499-0.021,0.998,0.063,1.496V265.018z"/>
	<path class="st2" d="M493.883,212.411c0.58,0.666,0.873,1.663,0.873,2.992c0,1.331,0,2.618,0,3.864c0,1.081,0,2.203,0,3.366
		c0,1.165-0.293,1.954-0.873,2.369c-0.498,0.417-1.143,0.665-1.932,0.747c-0.791,0.083-1.643,0.125-2.556,0.125h-6.981
		c-0.915,0-1.726-0.042-2.431-0.125c-0.707-0.082-1.309-0.331-1.808-0.747c-0.333-0.25-0.561-0.727-0.686-1.434
		c-0.124-0.705-0.208-1.497-0.249-2.369c-0.043-0.872-0.043-1.765,0-2.68c0.041-0.913,0.063-1.703,0.063-2.369
		c0-0.664,0.019-1.266,0.063-1.808c0.04-0.54,0.186-1.017,0.436-1.434c0.166-0.331,0.393-0.581,0.685-0.748
		c0.29-0.166,0.603-0.331,0.936-0.499c0.165,0,0.374-0.02,0.623-0.063c0.249-0.04,0.456-0.062,0.623-0.062h9.101
		c0.83,0,1.62,0.042,2.368,0.124C492.886,211.747,493.467,211.996,493.883,212.411z M494.756,293.565
		c0,1.663-0.043,3.075-0.125,4.238c-0.083,1.165-0.831,1.953-2.243,2.369c-0.499,0.167-1.04,0.229-1.621,0.186
		c-0.583-0.041-1.206-0.063-1.87-0.063h-6.98c-0.748,0-1.477-0.041-2.182-0.124c-0.707-0.082-1.228-0.332-1.559-0.749
		c-0.498-0.58-0.77-1.309-0.81-2.182c-0.044-0.872-0.063-1.807-0.063-2.805v-52.606c0-0.83,0-1.661,0-2.493
		c0-0.83,0.165-1.496,0.498-1.995c0.499-0.58,1.204-0.955,2.119-1.122c0.166-0.081,0.394-0.103,0.686-0.062
		c0.289,0.042,0.518,0.021,0.686-0.063h6.232c0.499,0,1.06-0.019,1.683-0.063c0.624-0.041,1.142-0.02,1.559,0.063h0.997
		c0.499,0.168,0.955,0.292,1.371,0.374c0.415,0.083,0.748,0.333,0.997,0.748c0.331,0.416,0.519,0.997,0.562,1.745
		c0.041,0.748,0.063,1.539,0.063,2.369V293.565z"/>
	<path class="st2" d="M507.471,211.539h9.1c0.914,0,1.746,0.042,2.493,0.124c0.748,0.084,1.328,0.333,1.746,0.748
		c0.663,0.748,0.976,1.954,0.935,3.615c-0.043,1.663-0.063,3.2-0.063,4.612v21.067v7.604c0,0.582-0.043,1.206-0.125,1.87
		c-0.084,0.666-0.042,1.289,0.125,1.87v1.122c0.165,0.416,0.29,0.854,0.374,1.309c0.082,0.458,0.331,0.77,0.748,0.935
		c0.249,0.168,0.58,0.187,0.997,0.062c0.415-0.125,0.705-0.269,0.872-0.436c0.83-0.58,1.558-1.246,2.182-1.995
		c0.624-0.748,1.267-1.453,1.933-2.119c0.664-0.663,1.371-1.35,2.119-2.057c0.748-0.705,1.412-1.474,1.994-2.306
		c0.25-0.165,0.54-0.414,0.873-0.748c0.415-0.415,0.83-0.851,1.246-1.309c0.416-0.456,0.83-0.892,1.247-1.309l2.867-2.867
		c0.166-0.331,0.393-0.602,0.685-0.81c0.29-0.207,0.562-0.478,0.811-0.811c0.664-0.83,1.391-1.559,2.182-2.182
		c0.788-0.624,1.765-1.06,2.929-1.309c0.416-0.081,0.998-0.124,1.746-0.124c0.331-0.082,0.664-0.103,0.997-0.063
		c0.331,0.043,0.705,0.063,1.122,0.063h4.113c0.665,0,1.475-0.041,2.432-0.125c0.954-0.082,1.764-0.041,2.431,0.125h1.371
		c0.415,0.168,0.829,0.27,1.247,0.312c0.414,0.043,0.705,0.229,0.872,0.561c0.166,0.249,0.188,0.582,0.063,0.997
		c-0.125,0.417-0.271,0.707-0.437,0.873c-0.498,0.831-1.122,1.558-1.87,2.181c-0.748,0.624-1.455,1.268-2.119,1.933
		c-0.582,0.582-1.143,1.165-1.683,1.745c-0.541,0.583-1.144,1.122-1.808,1.621c-0.417,0.333-0.77,0.686-1.06,1.059
		c-0.292,0.374-0.645,0.729-1.06,1.06c-0.417,0.249-0.791,0.583-1.122,0.997c-0.333,0.417-0.707,0.791-1.122,1.122l-4.737,4.737
		c-0.582,0.499-1.102,0.978-1.558,1.434c-0.458,0.458-0.895,1.019-1.309,1.683c-0.168,0.249-0.334,0.561-0.499,0.935
		c-0.168,0.374-0.168,0.769,0,1.185c0.165,0.916,0.477,1.663,0.934,2.244c0.456,0.582,0.893,1.206,1.309,1.87
		c0.665,0.916,1.267,1.829,1.809,2.742c0.539,0.916,1.141,1.829,1.808,2.742l13.089,19.821c0.83,1.165,1.64,2.327,2.431,3.49
		c0.789,1.165,1.516,2.328,2.182,3.49c0.249,0.417,0.394,0.916,0.435,1.496c0.041,0.583-0.146,1.041-0.56,1.372
		c-0.333,0.167-0.666,0.249-0.997,0.249c-0.333,0-0.707,0.083-1.122,0.249c-0.333,0.084-0.707,0.105-1.122,0.063
		c-0.416-0.041-0.831-0.063-1.246-0.063h-4.862c-1.33,0-2.91,0.022-4.736,0.063c-1.829,0.043-3.201-0.145-4.114-0.56
		c-0.915-0.416-1.704-1.185-2.368-2.307c-0.666-1.122-1.289-2.139-1.87-3.055c-1.414-2.243-2.826-4.507-4.238-6.794
		c-1.414-2.284-2.826-4.55-4.238-6.794c-0.667-1.079-1.31-2.16-1.933-3.241c-0.623-1.079-1.308-2.119-2.057-3.116
		c-0.168-0.249-0.458-0.58-0.873-0.997c-0.417-0.415-0.872-0.54-1.371-0.374c-0.748,0.168-1.309,0.417-1.683,0.748
		c-0.374,0.333-0.769,0.707-1.185,1.122c-0.666,0.498-1.289,1.081-1.869,1.745c-0.583,0.666-1.041,1.455-1.372,2.369
		c-0.167,0.665-0.249,1.392-0.249,2.181c0,0.791,0,1.559,0,2.307v7.729c0,0.582,0.02,1.228,0.063,1.933
		c0.041,0.707,0.063,1.434,0.063,2.182c0,0.747-0.043,1.434-0.125,2.057c-0.084,0.623-0.249,1.103-0.498,1.434
		c-0.334,0.498-0.854,0.853-1.559,1.06c-0.707,0.208-1.518,0.333-2.432,0.374c-0.915,0.043-1.869,0.043-2.867,0
		c-0.997-0.041-1.869-0.063-2.617-0.063c-0.915,0-1.913,0.022-2.992,0.063c-1.081,0.043-1.953-0.063-2.618-0.311
		c-1.081-0.415-1.663-1.163-1.745-2.244c-0.083-1.079-0.124-2.326-0.124-3.74v-14.335v-49.989v-11.593
		c0-0.914-0.021-1.87-0.063-2.867c-0.043-0.997,0.103-1.786,0.436-2.369c0.331-0.581,0.913-0.997,1.745-1.247
		c0.166,0,0.353-0.02,0.561-0.063C507.116,211.56,507.303,211.539,507.471,211.539z"/>
	<path class="st2" d="M628.888,267.635c0.165,0.667,0.165,1.414,0,2.244c-0.168,0.832-0.458,1.372-0.873,1.621
		c-0.417,0.333-1.018,0.561-1.808,0.686c-0.79,0.125-1.663,0.208-2.618,0.25c-0.956,0.043-1.912,0.043-2.867,0
		c-0.956-0.041-1.808-0.063-2.555-0.063H587.75c-0.583,0-1.144,0-1.684,0c-0.541,0-1.018,0.083-1.434,0.25
		c-0.665,0.333-1.081,0.666-1.246,0.997c-0.168,0.167-0.333,0.48-0.499,0.935c-0.167,0.458-0.208,0.894-0.124,1.309
		c0.165,0.499,0.268,0.978,0.312,1.435c0.041,0.457,0.144,0.935,0.311,1.434c0.664,1.994,1.475,3.636,2.431,4.924
		c0.954,1.289,2.264,2.431,3.927,3.428c0.664,0.417,1.35,0.686,2.057,0.811c0.705,0.125,1.434,0.311,2.182,0.56
		c0.664,0.168,1.578,0.293,2.743,0.374c1.162,0.084,2.16,0.043,2.991-0.125h1.122c0.83-0.165,1.6-0.352,2.307-0.56
		c0.705-0.206,1.391-0.436,2.057-0.686c0.83-0.415,1.765-0.954,2.805-1.621c1.038-0.663,1.808-1.328,2.307-1.994
		c0.414-0.58,0.851-1.142,1.309-1.683c0.456-0.54,1.017-0.936,1.683-1.185c0.83-0.415,1.89-0.602,3.18-0.561
		c1.287,0.042,2.471,0.062,3.552,0.062c0.499,0,1.017-0.02,1.559-0.062c0.539-0.041,1.017,0.022,1.434,0.187h1.247
		c0.829,0.168,1.412,0.374,1.745,0.623c0.331,0.168,0.518,0.542,0.561,1.122c0.041,0.583-0.021,1.081-0.187,1.496
		c-0.417,1.165-0.873,2.203-1.372,3.117c-0.498,0.915-1.081,1.828-1.745,2.742c-1.829,2.742-3.907,4.945-6.232,6.606
		c-2.328,1.663-5.236,3.075-8.727,4.239c-0.915,0.331-1.828,0.539-2.742,0.623c-0.916,0.082-1.87,0.249-2.867,0.498
		c-0.333,0.082-0.686,0.104-1.06,0.063c-0.374-0.043-0.729-0.021-1.06,0.063h-1.371c-0.417,0.166-0.895,0.228-1.434,0.186
		c-0.542-0.043-1.02-0.104-1.434-0.186c-0.666-0.084-1.247-0.084-1.746,0c-0.498,0.082-1.04,0.041-1.62-0.125
		c-0.417-0.167-0.872-0.249-1.371-0.249c-0.498,0-0.956-0.084-1.371-0.249c-0.915-0.168-1.829-0.355-2.743-0.562
		c-0.915-0.206-1.744-0.518-2.493-0.934c-0.915-0.331-1.767-0.644-2.556-0.935c-0.79-0.291-1.517-0.644-2.181-1.06
		c-2.661-1.662-5.029-3.594-7.106-5.797c-2.078-2.201-3.782-4.757-5.11-7.667c-0.417-0.913-0.748-1.849-0.997-2.805
		c-0.25-0.955-0.582-1.933-0.998-2.93c-0.083-0.331-0.124-0.643-0.124-0.935c0-0.291-0.043-0.602-0.125-0.935
		c-0.333-0.997-0.541-2.076-0.623-3.241c-0.084-1.163-0.168-2.326-0.249-3.491c0-0.415-0.021-0.873-0.063-1.371
		c-0.043-0.499-0.021-0.955,0.063-1.371v-1.496l0.373-2.992c0.332-1.412,0.624-2.783,0.873-4.114
		c0.249-1.328,0.623-2.575,1.122-3.739c3.572-8.643,9.64-14.751,18.2-18.325c1.163-0.499,2.347-0.851,3.553-1.06
		c1.204-0.206,2.472-0.477,3.802-0.811c0.665-0.081,1.288-0.124,1.87-0.124c0.581,0,1.204-0.042,1.87-0.125
		c4.238-0.082,7.873,0.395,10.907,1.434c3.033,1.04,5.755,2.39,8.166,4.052c0.747,0.499,1.495,1.06,2.244,1.683
		c0.747,0.624,1.412,1.268,1.994,1.932c0.249,0.417,0.58,0.748,0.997,0.997c0.664,0.916,1.288,1.85,1.87,2.805
		c0.58,0.957,1.204,1.932,1.869,2.93c0.416,0.748,0.769,1.517,1.06,2.306c0.291,0.79,0.602,1.642,0.936,2.555
		c0.415,1.081,0.748,2.203,0.997,3.366c0.249,1.165,0.54,2.328,0.873,3.49c0.165,0.666,0.228,1.393,0.187,2.182
		c-0.043,0.79,0.019,1.517,0.188,2.182V267.635z"/>
	<path class="st2" d="M652.571,282.096c0.499,0.417,0.789,0.997,0.873,1.745c0.081,0.748,0.124,1.58,0.124,2.493v8.976
		c0,0.916-0.043,1.745-0.124,2.493c-0.084,0.748-0.333,1.33-0.748,1.745c-0.583,0.417-1.29,0.645-2.119,0.685
		c-0.832,0.043-1.705,0.063-2.618,0.063h-8.353c-0.915,0-1.788-0.02-2.617-0.063c-0.832-0.041-1.456-0.311-1.87-0.81
		c-0.417-0.498-0.666-1.141-0.748-1.932c-0.084-0.789-0.125-1.641-0.125-2.556v-7.853c0-0.829,0-1.64,0-2.431
		c0-0.789,0.166-1.434,0.499-1.933c0.331-0.498,0.954-0.913,1.87-1.246c0.165-0.082,0.353-0.104,0.561-0.063
		c0.207,0.043,0.393,0.021,0.562-0.063h9.848c0.997,0,1.933,0.021,2.805,0.063C651.263,281.453,651.989,281.681,652.571,282.096z
		 M635.244,239.462c-0.417-1.828-0.604-3.822-0.562-5.984c0.041-2.16,0.063-4.32,0.063-6.482v-9.599c0-0.914,0-1.786,0-2.618
		c0-0.83,0.206-1.537,0.623-2.12c0.415-0.499,0.997-0.83,1.745-0.997c0.166-0.082,0.331-0.103,0.499-0.063
		c0.165,0.043,0.331,0.021,0.499-0.062h9.599c0.997,0,1.932,0.042,2.805,0.124c0.872,0.084,1.516,0.417,1.932,0.997
		c0.331,0.499,0.499,1.122,0.499,1.87c0,0.748,0,1.538,0,2.369v13.837c0,0.499,0.041,1.06,0.125,1.683
		c0.081,0.624,0.041,1.144-0.125,1.558v1.372c-0.168,0.582-0.23,1.184-0.188,1.808c0.041,0.623-0.021,1.184-0.187,1.683
		c-0.167,0.417-0.229,0.811-0.187,1.185c0.04,0.374-0.021,0.769-0.188,1.184c-0.167,0.749-0.249,1.477-0.249,2.182
		c0,0.707-0.084,1.392-0.249,2.057c-0.084,0.333-0.125,0.645-0.125,0.935c0,0.292-0.043,0.604-0.125,0.936
		c-0.167,1.081-0.292,2.203-0.374,3.365c-0.084,1.165-0.249,2.287-0.498,3.366c-0.168,0.583-0.23,1.122-0.188,1.621
		c0.041,0.499-0.021,1.081-0.187,1.746c-0.333,1.496-0.521,3.054-0.561,4.675c-0.043,1.62-0.271,3.179-0.686,4.675
		c-0.249,1.164-0.396,2.349-0.437,3.552c-0.043,1.206-0.478,2.1-1.309,2.68c-0.25,0.168-0.541,0.293-0.873,0.375
		c-0.333,0.083-0.707,0.167-1.121,0.249h-1.746c-0.831,0-1.558-0.082-2.181-0.249c-0.624-0.165-1.102-0.456-1.434-0.872
		c-0.417-0.499-0.624-1.038-0.624-1.621c0-0.581-0.083-1.204-0.249-1.87c-0.249-0.913-0.396-1.87-0.437-2.867
		c-0.043-0.998-0.186-1.952-0.436-2.867c0-0.664-0.043-1.122-0.125-1.371c-0.084-0.499-0.125-0.997-0.125-1.496
		c0-0.498-0.043-0.998-0.124-1.496c-0.333-1.163-0.521-2.388-0.562-3.678c-0.043-1.287-0.187-2.513-0.437-3.678
		c-0.083-0.414-0.124-0.81-0.124-1.184c0-0.374-0.043-0.768-0.125-1.185c-0.168-0.748-0.271-1.537-0.311-2.369
		c-0.043-0.83-0.147-1.661-0.312-2.493c0-0.165-0.021-0.331-0.063-0.499c-0.043-0.165-0.063-0.331-0.063-0.499
		c-0.167-0.664-0.249-1.309-0.249-1.932C635.493,240.771,635.409,240.128,635.244,239.462z"/>
</g>
<g>
	<path class="st2" d="M471.32,363.343c0.166,0.499,0.25,1.352,0.25,2.556c0,1.206-0.044,2.057-0.125,2.555
		c0,0.418-0.021,0.771-0.063,1.06c-0.043,0.293-0.063,0.646-0.063,1.061c-0.168,0.666-0.249,1.309-0.249,1.933
		c0,0.623-0.084,1.268-0.25,1.932c0,0.333-0.083,0.916-0.249,1.745c-0.249,0.998-0.48,2.017-0.686,3.055
		c-0.208,1.04-0.52,2.016-0.935,2.93c-1.496,3.739-3.366,6.98-5.609,9.723c-2.244,2.743-5.195,4.905-8.852,6.483
		c-0.748,0.333-1.517,0.603-2.306,0.81c-0.791,0.207-1.642,0.438-2.556,0.687c-0.499,0.166-1.019,0.249-1.559,0.249
		c-0.541,0-1.06,0.041-1.559,0.124h-1.121c-0.499,0.167-1.165,0.228-1.995,0.188c-0.832-0.042-1.495-0.146-1.994-0.312h-0.748
		c-0.417-0.083-0.872-0.145-1.371-0.186c-0.499-0.044-0.998-0.105-1.496-0.188c-1.579-0.416-3.034-0.831-4.363-1.246
		c-1.33-0.415-2.576-0.997-3.739-1.745c-0.499-0.331-0.978-0.664-1.434-0.997c-0.458-0.332-0.895-0.705-1.31-1.122
		c-0.249-0.166-0.498-0.331-0.747-0.499c-0.25-0.165-0.499-0.29-0.749-0.374c-0.748-0.249-1.205-0.082-1.371,0.499
		c-0.417,0.582-0.685,1.268-0.81,2.056c-0.125,0.792-0.436,1.393-0.935,1.808c-0.498,0.332-1.081,0.52-1.745,0.561
		c-0.666,0.043-1.414,0.063-2.243,0.063h-5.984c-0.582,0-1.185,0.02-1.808,0.061c-0.623,0.042-1.185-0.02-1.683-0.185
		c-1.165-0.415-1.808-1.185-1.933-2.308c-0.124-1.121-0.186-2.387-0.186-3.801v-76.043c0-0.914,0-1.869,0-2.867
		c0-0.997,0.206-1.786,0.623-2.368c0.331-0.581,0.913-0.955,1.745-1.122c0.166-0.082,0.353-0.103,0.562-0.063
		c0.206,0.043,0.392,0.021,0.561-0.062h7.853c1.496,0,2.783,0.062,3.864,0.187c1.079,0.124,1.786,0.77,2.119,1.933
		c0.25,0.831,0.332,1.932,0.25,3.303c-0.084,1.372-0.125,2.556-0.125,3.553v13.588c0,0.915,0,1.829,0,2.743
		c0,0.915,0.082,1.703,0.249,2.368c0.082,0.416,0.166,0.769,0.249,1.06c0.083,0.292,0.291,0.479,0.624,0.562
		c0.166,0.167,0.393,0.248,0.685,0.248c0.29,0,0.518-0.041,0.686-0.124c0.581-0.331,1.122-0.686,1.62-1.06
		c0.499-0.374,1.039-0.768,1.621-1.184c1.079-0.748,2.201-1.392,3.365-1.934c1.163-0.539,2.451-1.016,3.865-1.434
		c0.664-0.248,1.328-0.393,1.994-0.436c0.664-0.041,1.329-0.143,1.994-0.311c0.581-0.165,1.204-0.249,1.87-0.249
		c0.665,0,1.329,0,1.995,0h1.246c0.249,0.084,0.54,0.105,0.873,0.063c0.331-0.041,0.664-0.02,0.997,0.062
		c0.914,0.25,1.765,0.436,2.556,0.561c0.789,0.124,1.558,0.354,2.307,0.685c3.821,1.58,6.938,3.616,9.349,6.109
		c2.41,2.493,4.445,5.609,6.108,9.35c0.415,0.997,0.768,2.036,1.06,3.115c0.291,1.081,0.602,2.204,0.935,3.366
		c0.166,0.583,0.27,1.144,0.313,1.684c0.041,0.541,0.143,1.144,0.311,1.808c0.165,0.417,0.228,0.872,0.186,1.37
		c-0.042,0.499-0.021,0.998,0.063,1.497V363.343z"/>
	<path class="st2" d="M493.883,310.736c0.58,0.667,0.873,1.664,0.873,2.992c0,1.33,0,2.618,0,3.864c0,1.081,0,2.203,0,3.365
		c0,1.166-0.293,1.954-0.873,2.369c-0.498,0.417-1.143,0.666-1.932,0.748c-0.791,0.083-1.643,0.125-2.556,0.125h-6.981
		c-0.915,0-1.726-0.042-2.431-0.125c-0.707-0.082-1.309-0.331-1.808-0.748c-0.333-0.25-0.561-0.727-0.686-1.434
		c-0.124-0.705-0.208-1.496-0.249-2.369c-0.043-0.872-0.043-1.764,0-2.68c0.041-0.913,0.063-1.702,0.063-2.369
		c0-0.663,0.019-1.265,0.063-1.807c0.04-0.539,0.186-1.017,0.436-1.434c0.166-0.332,0.393-0.581,0.685-0.748
		c0.29-0.165,0.603-0.331,0.936-0.498c0.165,0,0.374-0.02,0.623-0.063c0.249-0.041,0.456-0.063,0.623-0.063h9.101
		c0.83,0,1.62,0.043,2.368,0.125C492.886,310.072,493.467,310.322,493.883,310.736z M494.756,391.89
		c0,1.664-0.043,3.076-0.125,4.238c-0.083,1.165-0.831,1.954-2.243,2.369c-0.499,0.167-1.04,0.229-1.621,0.186
		c-0.583-0.041-1.206-0.061-1.87-0.061h-6.98c-0.748,0-1.477-0.041-2.182-0.125c-0.707-0.082-1.228-0.331-1.559-0.749
		c-0.498-0.579-0.77-1.308-0.81-2.181c-0.044-0.872-0.063-1.808-0.063-2.806v-52.605c0-0.83,0-1.661,0-2.493
		c0-0.83,0.165-1.496,0.498-1.994c0.499-0.581,1.204-0.955,2.119-1.123c0.166-0.081,0.394-0.103,0.686-0.061
		c0.289,0.042,0.518,0.021,0.686-0.063h6.232c0.499,0,1.06-0.02,1.683-0.063c0.624-0.041,1.142-0.02,1.559,0.063h0.997
		c0.499,0.168,0.955,0.292,1.371,0.374c0.415,0.083,0.748,0.333,0.997,0.748c0.331,0.416,0.519,0.997,0.562,1.745
		c0.041,0.748,0.063,1.538,0.063,2.369V391.89z"/>
	<path class="st2" d="M507.471,309.864h9.1c0.914,0,1.746,0.043,2.493,0.125c0.748,0.083,1.328,0.333,1.746,0.747
		c0.663,0.748,0.976,1.954,0.935,3.615c-0.043,1.663-0.063,3.2-0.063,4.612v21.068v7.604c0,0.583-0.043,1.206-0.125,1.869
		c-0.084,0.667-0.042,1.29,0.125,1.871v1.122c0.165,0.416,0.29,0.853,0.374,1.308c0.082,0.459,0.331,0.771,0.748,0.936
		c0.249,0.168,0.58,0.188,0.997,0.063c0.415-0.125,0.705-0.27,0.872-0.437c0.83-0.581,1.558-1.246,2.182-1.995
		c0.624-0.747,1.267-1.452,1.933-2.119c0.664-0.663,1.371-1.349,2.119-2.056c0.748-0.705,1.412-1.475,1.994-2.307
		c0.25-0.165,0.54-0.415,0.873-0.748c0.415-0.415,0.83-0.851,1.246-1.309c0.416-0.456,0.83-0.893,1.247-1.309l2.867-2.867
		c0.166-0.332,0.393-0.603,0.685-0.811c0.29-0.207,0.562-0.478,0.811-0.811c0.664-0.83,1.391-1.559,2.182-2.182
		c0.788-0.624,1.765-1.06,2.929-1.31c0.416-0.081,0.998-0.124,1.746-0.124c0.331-0.082,0.664-0.104,0.997-0.063
		c0.331,0.043,0.705,0.063,1.122,0.063h4.113c0.665,0,1.475-0.041,2.432-0.124c0.954-0.082,1.764-0.041,2.431,0.124h1.371
		c0.415,0.168,0.829,0.271,1.247,0.311c0.414,0.043,0.705,0.23,0.872,0.561c0.166,0.249,0.188,0.582,0.063,0.996
		c-0.125,0.418-0.271,0.707-0.437,0.874c-0.498,0.831-1.122,1.558-1.87,2.181c-0.748,0.624-1.455,1.268-2.119,1.933
		c-0.582,0.582-1.143,1.165-1.683,1.745c-0.541,0.582-1.144,1.121-1.808,1.621c-0.417,0.333-0.77,0.686-1.06,1.06
		c-0.292,0.374-0.645,0.728-1.06,1.06c-0.417,0.248-0.791,0.582-1.122,0.996c-0.333,0.418-0.707,0.792-1.122,1.123l-4.737,4.736
		c-0.582,0.499-1.102,0.979-1.558,1.434c-0.458,0.458-0.895,1.02-1.309,1.684c-0.168,0.249-0.334,0.561-0.499,0.935
		c-0.168,0.374-0.168,0.769,0,1.185c0.165,0.915,0.477,1.663,0.934,2.244c0.456,0.581,0.893,1.205,1.309,1.869
		c0.665,0.916,1.267,1.829,1.809,2.743c0.539,0.915,1.141,1.828,1.808,2.741l13.089,19.821c0.83,1.165,1.64,2.327,2.431,3.491
		c0.789,1.164,1.516,2.327,2.182,3.489c0.249,0.418,0.394,0.916,0.435,1.497c0.041,0.582-0.146,1.04-0.56,1.371
		c-0.333,0.167-0.666,0.249-0.997,0.249c-0.333,0-0.707,0.083-1.122,0.25c-0.333,0.083-0.707,0.104-1.122,0.061
		c-0.416-0.041-0.831-0.061-1.246-0.061h-4.862c-1.33,0-2.91,0.021-4.736,0.061c-1.829,0.043-3.201-0.144-4.114-0.561
		c-0.915-0.415-1.704-1.184-2.368-2.307c-0.666-1.121-1.289-2.139-1.87-3.055c-1.414-2.243-2.826-4.506-4.238-6.794
		c-1.414-2.284-2.826-4.549-4.238-6.794c-0.667-1.079-1.31-2.159-1.933-3.24c-0.623-1.079-1.308-2.12-2.057-3.116
		c-0.168-0.25-0.458-0.581-0.873-0.997c-0.417-0.415-0.872-0.54-1.371-0.374c-0.748,0.167-1.309,0.416-1.683,0.747
		c-0.374,0.334-0.769,0.708-1.185,1.122c-0.666,0.498-1.289,1.081-1.869,1.745c-0.583,0.667-1.041,1.455-1.372,2.369
		c-0.167,0.665-0.249,1.392-0.249,2.182c0,0.791,0,1.558,0,2.306v7.73c0,0.582,0.02,1.226,0.063,1.932
		c0.041,0.707,0.063,1.434,0.063,2.182c0,0.748-0.043,1.434-0.125,2.057c-0.084,0.624-0.249,1.103-0.498,1.434
		c-0.334,0.498-0.854,0.853-1.559,1.06c-0.707,0.209-1.518,0.333-2.432,0.374c-0.915,0.043-1.869,0.043-2.867,0
		c-0.997-0.041-1.869-0.061-2.617-0.061c-0.915,0-1.913,0.021-2.992,0.061c-1.081,0.043-1.953-0.061-2.618-0.311
		c-1.081-0.415-1.663-1.163-1.745-2.244c-0.083-1.078-0.124-2.326-0.124-3.74v-14.335v-49.989v-11.593
		c0-0.914-0.021-1.869-0.063-2.867c-0.043-0.997,0.103-1.786,0.436-2.368c0.331-0.581,0.913-0.997,1.745-1.246
		c0.166,0,0.353-0.02,0.561-0.063C507.116,309.886,507.303,309.864,507.471,309.864z"/>
	<path class="st2" d="M628.888,365.96c0.165,0.667,0.165,1.414,0,2.245c-0.168,0.831-0.458,1.371-0.873,1.62
		c-0.417,0.333-1.018,0.561-1.808,0.686c-0.79,0.125-1.663,0.209-2.618,0.25c-0.956,0.042-1.912,0.042-2.867,0
		c-0.956-0.041-1.808-0.063-2.555-0.063H587.75c-0.583,0-1.144,0-1.684,0c-0.541,0-1.018,0.083-1.434,0.248
		c-0.665,0.334-1.081,0.667-1.246,0.998c-0.168,0.168-0.333,0.479-0.499,0.936c-0.167,0.457-0.208,0.893-0.124,1.308
		c0.165,0.499,0.268,0.978,0.312,1.435c0.041,0.458,0.144,0.935,0.311,1.434c0.664,1.994,1.475,3.637,2.431,4.924
		c0.954,1.289,2.264,2.431,3.927,3.428c0.664,0.417,1.35,0.687,2.057,0.811c0.705,0.125,1.434,0.311,2.182,0.561
		c0.664,0.167,1.578,0.292,2.743,0.374c1.162,0.083,2.16,0.043,2.991-0.126h1.122c0.83-0.165,1.6-0.353,2.307-0.56
		c0.705-0.207,1.391-0.436,2.057-0.686c0.83-0.414,1.765-0.954,2.805-1.62c1.038-0.664,1.808-1.328,2.307-1.994
		c0.414-0.581,0.851-1.142,1.309-1.684c0.456-0.539,1.017-0.935,1.683-1.184c0.83-0.415,1.89-0.603,3.18-0.561
		c1.287,0.043,2.471,0.061,3.552,0.061c0.499,0,1.017-0.018,1.559-0.061c0.539-0.041,1.017,0.021,1.434,0.188h1.247
		c0.829,0.167,1.412,0.374,1.745,0.622c0.331,0.168,0.518,0.542,0.561,1.123c0.041,0.582-0.021,1.081-0.187,1.496
		c-0.417,1.164-0.873,2.202-1.372,3.116c-0.498,0.915-1.081,1.829-1.745,2.742c-1.829,2.743-3.907,4.945-6.232,6.607
		c-2.328,1.663-5.236,3.075-8.727,4.238c-0.915,0.331-1.828,0.539-2.742,0.623c-0.916,0.082-1.87,0.249-2.867,0.499
		c-0.333,0.081-0.686,0.103-1.06,0.063c-0.374-0.043-0.729-0.021-1.06,0.061h-1.371c-0.417,0.166-0.895,0.229-1.434,0.188
		c-0.542-0.044-1.02-0.105-1.434-0.188c-0.666-0.083-1.247-0.083-1.746,0c-0.498,0.082-1.04,0.041-1.62-0.124
		c-0.417-0.168-0.872-0.25-1.371-0.25c-0.498,0-0.956-0.083-1.371-0.249c-0.915-0.167-1.829-0.355-2.743-0.561
		c-0.915-0.207-1.744-0.519-2.493-0.936c-0.915-0.331-1.767-0.642-2.556-0.934c-0.79-0.29-1.517-0.643-2.181-1.06
		c-2.661-1.661-5.029-3.594-7.106-5.797c-2.078-2.201-3.782-4.757-5.11-7.666c-0.417-0.914-0.748-1.849-0.997-2.806
		c-0.25-0.954-0.582-1.932-0.998-2.929c-0.083-0.331-0.124-0.644-0.124-0.936c0-0.29-0.043-0.602-0.125-0.935
		c-0.333-0.997-0.541-2.076-0.623-3.241c-0.084-1.163-0.168-2.326-0.249-3.49c0-0.415-0.021-0.873-0.063-1.372
		c-0.043-0.498-0.021-0.954,0.063-1.371v-1.496l0.373-2.992c0.332-1.411,0.624-2.782,0.873-4.113
		c0.249-1.328,0.623-2.574,1.122-3.739c3.572-8.643,9.64-14.751,18.2-18.325c1.163-0.498,2.347-0.851,3.553-1.06
		c1.204-0.206,2.472-0.478,3.802-0.81c0.665-0.081,1.288-0.124,1.87-0.124c0.581,0,1.204-0.042,1.87-0.125
		c4.238-0.082,7.873,0.395,10.907,1.434c3.033,1.04,5.755,2.39,8.166,4.052c0.747,0.498,1.495,1.06,2.244,1.683
		c0.747,0.623,1.412,1.268,1.994,1.933c0.249,0.416,0.58,0.748,0.997,0.997c0.664,0.915,1.288,1.851,1.87,2.804
		c0.58,0.957,1.204,1.934,1.869,2.931c0.416,0.748,0.769,1.518,1.06,2.306c0.291,0.791,0.602,1.642,0.936,2.556
		c0.415,1.081,0.748,2.203,0.997,3.366c0.249,1.164,0.54,2.327,0.873,3.489c0.165,0.667,0.228,1.394,0.187,2.183
		c-0.043,0.791,0.019,1.518,0.188,2.182V365.96z"/>
	<path class="st2" d="M652.571,380.421c0.499,0.417,0.789,0.998,0.873,1.746c0.081,0.747,0.124,1.579,0.124,2.493v8.975
		c0,0.916-0.043,1.746-0.124,2.493c-0.084,0.748-0.333,1.331-0.748,1.746c-0.583,0.416-1.29,0.645-2.119,0.686
		c-0.832,0.043-1.705,0.063-2.618,0.063h-8.353c-0.915,0-1.788-0.02-2.617-0.063c-0.832-0.041-1.456-0.312-1.87-0.812
		c-0.417-0.498-0.666-1.141-0.748-1.932c-0.084-0.788-0.125-1.641-0.125-2.555v-7.854c0-0.829,0-1.64,0-2.431
		c0-0.788,0.166-1.434,0.499-1.932c0.331-0.499,0.954-0.914,1.87-1.247c0.165-0.082,0.353-0.104,0.561-0.063
		c0.207,0.043,0.393,0.021,0.562-0.062h9.848c0.997,0,1.933,0.021,2.805,0.062C651.263,379.778,651.989,380.007,652.571,380.421z
		 M635.244,337.788c-0.417-1.828-0.604-3.822-0.562-5.983c0.041-2.16,0.063-4.32,0.063-6.482v-9.599c0-0.914,0-1.786,0-2.618
		c0-0.83,0.206-1.537,0.623-2.119c0.415-0.499,0.997-0.83,1.745-0.997c0.166-0.082,0.331-0.104,0.499-0.063
		c0.165,0.043,0.331,0.021,0.499-0.063h9.599c0.997,0,1.932,0.043,2.805,0.125c0.872,0.083,1.516,0.416,1.932,0.997
		c0.331,0.498,0.499,1.122,0.499,1.87c0,0.747,0,1.538,0,2.368v13.837c0,0.499,0.041,1.06,0.125,1.683
		c0.081,0.624,0.041,1.144-0.125,1.559v1.371c-0.168,0.583-0.23,1.184-0.188,1.808c0.041,0.623-0.021,1.184-0.187,1.684
		c-0.167,0.416-0.229,0.81-0.187,1.184c0.04,0.374-0.021,0.77-0.188,1.184c-0.167,0.749-0.249,1.478-0.249,2.183
		c0,0.707-0.084,1.392-0.249,2.057c-0.084,0.333-0.125,0.644-0.125,0.935c0,0.293-0.043,0.604-0.125,0.936
		c-0.167,1.081-0.292,2.203-0.374,3.365c-0.084,1.165-0.249,2.286-0.498,3.365c-0.168,0.583-0.23,1.123-0.188,1.621
		c0.041,0.499-0.021,1.081-0.187,1.746c-0.333,1.495-0.521,3.053-0.561,4.674c-0.043,1.62-0.271,3.18-0.686,4.675
		c-0.249,1.165-0.396,2.35-0.437,3.553c-0.043,1.206-0.478,2.101-1.309,2.68c-0.25,0.168-0.541,0.293-0.873,0.375
		c-0.333,0.084-0.707,0.167-1.121,0.249h-1.746c-0.831,0-1.558-0.082-2.181-0.249c-0.624-0.166-1.102-0.456-1.434-0.873
		c-0.417-0.498-0.624-1.038-0.624-1.62c0-0.581-0.083-1.204-0.249-1.87c-0.249-0.913-0.396-1.87-0.437-2.867
		c-0.043-0.998-0.186-1.951-0.436-2.867c0-0.665-0.043-1.122-0.125-1.372c-0.084-0.498-0.125-0.996-0.125-1.495
		c0-0.498-0.043-0.998-0.124-1.496c-0.333-1.162-0.521-2.388-0.562-3.677c-0.043-1.288-0.187-2.513-0.437-3.679
		c-0.083-0.414-0.124-0.81-0.124-1.184c0-0.374-0.043-0.768-0.125-1.184c-0.168-0.748-0.271-1.538-0.311-2.369
		c-0.043-0.829-0.147-1.661-0.312-2.493c0-0.165-0.021-0.331-0.063-0.498c-0.043-0.166-0.063-0.332-0.063-0.5
		c-0.167-0.663-0.249-1.308-0.249-1.932C635.493,339.097,635.409,338.453,635.244,337.788z"/>
</g>
</svg>
