<svg xmlns="http://www.w3.org/2000/svg" viewBox="0 0 248 288.5" id="bb-icon-logo-text"><path d="m65.5 102.5c.2.5.3 1.4.3 2.6 0 1.2 0 2.1-.1 2.6 0 .4 0 .8-.1 1.1 0 .3-.1.6-.1 1.1-.2.7-.2 1.3-.2 1.9 0 .6-.1 1.3-.3 1.9 0 .3-.1.9-.2 1.7-.2 1-.5 2-.7 3.1-.2 1-.5 2-.9 2.9-1.5 3.7-3.4 7-5.6 9.7-2.2 2.7-5.2 4.9-8.9 6.5-.7.3-1.5.6-2.3.8-.8.2-1.6.4-2.6.7-.5.2-1 .3-1.6.3-.5 0-1.1 0-1.6.1h-1.1c-.5.2-1.2.2-2 .2-.8 0-1.5-.1-2-.3h-.7c-.4-.1-.9-.1-1.4-.2-.5 0-1-.1-1.5-.2-1.6-.4-3-.8-4.4-1.2-1.3-.4-2.6-1-3.7-1.7-.5-.3-1-.7-1.4-1-.5-.3-.9-.7-1.3-1.1-.2-.2-.5-.3-.7-.5-.3-.2-.5-.3-.7-.4-.7-.3-1.2-.1-1.4.5-.4.6-.7 1.3-.8 2.1-.1.8-.4 1.4-.9 1.8-.5.3-1.1.5-1.7.6-.7 0-1.4.1-2.2.1h-6c-.6 0-1.2 0-1.8.1-.6 0-1.2 0-1.7-.2-1.2-.4-1.8-1.2-1.9-2.3-.3-1.5-.3-2.8-.3-4.2v-76c0-.9 0-1.9 0-2.9 0-1 .2-1.8.6-2.4.3-.6.9-1 1.7-1.1.2-.1.4-.1.6-.1.2 0 .4 0 .6-.1h7.9c1.5 0 2.8.1 3.9.2 1.1.1 1.8.8 2.1 1.9.3.8.3 1.9.3 3.3-.1 1.4-.1 2.6-.1 3.6v13.6c0 .9 0 1.8 0 2.7 0 .9.1 1.7.2 2.4.1.4.2.8.2 1.1.1.3.3.5.6.6.2.2.4.2.7.2.3 0 .5 0 .7-.1.6-.3 1.1-.7 1.6-1.1.5-.4 1-.8 1.6-1.2 1.1-.7 2.2-1.4 3.4-1.9 1.2-.5 2.5-1 3.9-1.4.7-.2 1.3-.4 2-.4.7 0 1.3-.1 2-.3.6-.2 1.2-.2 1.9-.2.7 0 1.3 0 2 0h1.2c.1 0 .4 0 .7 0 .3 0 .7 0 1 .1.9.2 1.8.4 2.6.6.8.1 1.6.4 2.3.7 3.8 1.6 6.9 3.6 9.3 6.1 2.4 2.5 4.4 5.6 6.1 9.3.4 1 .8 2 1.1 3.1.3 1.1.6 2.2.9 3.4.2.6.3 1.1.3 1.7 0 .5.1 1.1.3 1.8.2.4.2.9.2 1.4 0 .5 0 1 .1 1.5v.8"/><path d="m88.1 49.8c.6.7.9 1.7.9 3 0 1.3 0 2.6 0 3.9 0 1.1 0 2.2 0 3.4 0 1.2-.3 2-.9 2.4-.5.4-1.1.7-1.9.7-.8.1-1.6.1-2.6.1h-7c-.9 0-1.7 0-2.4-.1-.7-.1-1.3-.3-1.8-.7-.3-.3-.6-.7-.7-1.4-.1-.7-.2-1.5-.2-2.4 0-.9 0-1.8 0-2.7 0-.9.1-1.7.1-2.4 0-.7 0-1.3.1-1.8 0-.5.2-1 .4-1.4.2-.3.4-.6.7-.7.3-.2.6-.3.9-.5.2 0 .4 0 .6-.1.2 0 .5-.1.6-.1h9.1c.8 0 1.6 0 2.4.1.7.1 1.3.3 1.7.7m.9 81.2c0 1.7 0 3.1-.1 4.2-.1 1.2-.8 2-2.2 2.4-.5.2-1 .2-1.6.2-.6 0-1.2-.1-1.9-.1h-7c-.7 0-1.5 0-2.2-.1-.7-.1-1.2-.3-1.6-.7-.5-.6-.8-1.3-.8-2.2 0-.9-.1-1.8-.1-2.8v-52.6c0-.8 0-1.7 0-2.5 0-.8.2-1.5.5-2 .5-.6 1.2-1 2.1-1.1.2-.1.4-.1.7-.1.3 0 .5 0 .7-.1h6.2c.5 0 1.1 0 1.7-.1.6 0 1.1 0 1.6.1h1c.5.2 1 .3 1.4.4.4.1.7.3 1 .7.3.4.5 1 .6 1.7 0 .7.1 1.5.1 2.4v52.3z"/><path d="m101.7 49h9.1c.9 0 1.7 0 2.5.1.7.1 1.3.3 1.7.7.7.7 1 2 .9 3.6 0 1.7-.1 3.2-.1 4.6v21.1 7.6c0 .6 0 1.2-.1 1.9-.1.7 0 1.3.1 1.9v1.1c.2.4.3.9.4 1.3.1.5.3.8.7.9.2.2.6.2 1 .1.4-.1.7-.3.9-.4.8-.6 1.6-1.2 2.2-2 .6-.7 1.3-1.5 1.9-2.1.7-.7 1.4-1.3 2.1-2.1.7-.7 1.4-1.5 2-2.3.3-.2.5-.4.9-.7.4-.4.8-.9 1.2-1.3.4-.5.8-.9 1.2-1.3l2.9-2.9c.2-.3.4-.6.7-.8.3-.2.6-.5.8-.8.7-.8 1.4-1.6 2.2-2.2.8-.6 1.8-1.1 2.9-1.3.4-.1 1-.1 1.7-.1.3-.1.7-.1 1-.1.3 0 .7.1 1.1.1h4.1c.7 0 1.5 0 2.4-.1 1-.1 1.8 0 2.4.1h1.4c.4.2.8.3 1.2.3.4 0 .7.2.9.6.2.2.2.6.1 1-.1.4-.3.7-.4.9-.5.8-1.1 1.6-1.9 2.2-.7.6-1.5 1.3-2.1 1.9-.6.6-1.1 1.2-1.7 1.7-.5.6-1.1 1.1-1.8 1.6-.4.3-.8.7-1.1 1.1-.3.4-.6.7-1.1 1.1-.4.2-.8.6-1.1 1-.3.4-.7.8-1.1 1.1l-4.7 4.7c-.6.5-1.1 1-1.6 1.4-.5.5-.9 1-1.3 1.7-.2.2-.3.6-.5.9-.2.4-.2.8 0 1.2.2.9.5 1.7.9 2.2.5.6.9 1.2 1.3 1.9.7.9 1.3 1.8 1.8 2.7.5.9 1.1 1.8 1.8 2.7l13.1 19.8c.8 1.2 1.6 2.3 2.4 3.5.8 1.2 1.5 2.3 2.2 3.5.2.4.4.9.4 1.5 0 .6-.1 1-.6 1.4-.3.2-.7.2-1 .2-.3 0-.7.1-1.1.2-.3.1-.7.1-1.1.1-.4 0-.8-.1-1.2-.1h-4.6c-1.3 0-2.9 0-4.7.1-1.8 0-3.2-.1-4.1-.6-.9-.4-1.7-1.2-2.4-2.3-.7-1.1-1.3-2.1-1.9-3.1-1.4-2.2-2.8-4.5-4.2-6.8-1.4-2.3-2.8-4.5-4.2-6.8-.7-1.1-1.3-2.2-1.9-3.2-.6-1.1-1.3-2.1-2.1-3.1-.2-.2-.5-.6-.9-1-.4-.4-.9-.5-1.4-.4-.7.2-1.3.4-1.7.7-.4.3-.8.7-1.2 1.1-.7.5-1.3 1.1-1.9 1.7-.6.7-1 1.5-1.4 2.4-.2.7-.2 1.4-.2 2.2 0 .8 0 1.6 0 2.3v7.7c0 .6 0 1.2.1 1.9 0 .7.1 1.4.1 2.2 0 .7 0 1.4-.1 2.1-.1.6-.2 1.1-.5 1.4-.3.5-.9.9-1.6 1.1-.7.2-1.5.3-2.4.4-.9 0-1.9 0-2.9 0-1 0-1.9-.1-2.6-.1-.9 0-1.9 0-3 .1-1.1 0-2-.1-2.6-.3-1.1-.4-1.7-1.2-1.7-2.2-.1-1.1-.1-2.3-.1-3.7v-14.3-50-11.5c0-.9 0-1.9-.1-2.9 0-1 .1-1.8.4-2.4.3-.6.9-1 1.7-1.2.2 0 .4 0 .6-.1.2 0 .4 0 .6 0"/><path d="m223.1 105.1c.2.7.2 1.4 0 2.2-.2.8-.5 1.4-.9 1.6-.4.3-1 .6-1.8.7-.8.1-1.7.2-2.6.2-1 0-1.9 0-2.9 0-1 0-1.8-.1-2.6-.1h-30.3c-.6 0-1.1 0-1.7 0-.5 0-1 .1-1.4.2-.7.3-1.1.7-1.2 1-.2.2-.3.5-.5.9-.2.5-.2.9-.1 1.3.2.5.3 1 .3 1.4 0 .5.1.9.3 1.4.7 2 1.5 3.6 2.4 4.9 1 1.3 2.3 2.4 3.9 3.4.7.4 1.3.7 2.1.8.7.1 1.4.3 2.2.6.7.2 1.6.3 2.7.4 1.2.1 2.2 0 3-.1h1.1c.8-.2 1.6-.4 2.3-.6.7-.2 1.4-.4 2.1-.7.8-.4 1.8-1 2.8-1.6 1-.7 1.8-1.3 2.3-2 .4-.6.9-1.1 1.3-1.7.5-.5 1-.9 1.7-1.2.8-.4 1.9-.6 3.2-.6 1.3 0 2.5.1 3.6.1.5 0 1 0 1.6-.1.5 0 1 0 1.4.2h1.2c.8.2 1.4.4 1.7.6.3.2.5.5.6 1.1 0 .6 0 1.1-.2 1.5-.4 1.2-.9 2.2-1.4 3.1-.5.9-1.1 1.8-1.7 2.7-1.8 2.7-3.9 4.9-6.2 6.6-2.3 1.7-5.2 3.1-8.7 4.2-.9.3-1.8.5-2.7.6-.9.1-1.9.2-2.9.5-.3.1-.7.1-1.1.1-.4 0-.7 0-1.1.1h-1.4c-.4.2-.9.2-1.4.2-.5 0-1-.1-1.4-.2-.7-.1-1.2-.1-1.7 0-.5.1-1 0-1.6-.1-.4-.2-.9-.2-1.4-.2-.5 0-1-.1-1.4-.2-.9-.2-1.8-.4-2.7-.6-.9-.2-1.7-.5-2.5-.9-.9-.3-1.8-.6-2.6-.9-.8-.3-1.5-.6-2.2-1.1-2.7-1.7-5-3.6-7.1-5.8-2.1-2.2-3.8-4.8-5.1-7.7-.4-.9-.7-1.8-1-2.8-.3-1-.6-1.9-1-2.9-.1-.3-.1-.6-.1-.9 0-.3 0-.6-.1-.9-.3-1-.5-2.1-.6-3.2-.1-1.2-.2-2.3-.2-3.5 0-.4 0-.9-.1-1.4 0-.5 0-1 .1-1.4v-1.5l.4-3c.3-1.4.6-2.8.9-4.1.2-1.3.6-2.6 1.1-3.7 3.6-8.6 9.6-14.8 18.2-18.3 1.2-.5 2.3-.9 3.6-1.1 1.2-.2 2.5-.5 3.8-.8.7-.1 1.3-.1 1.9-.1.6 0 1.2 0 1.9-.1 4.2-.1 7.9.4 10.9 1.4 3 1 5.8 2.4 8.2 4.1.7.5 1.5 1.1 2.2 1.7.7.6 1.4 1.3 2 1.9.2.4.6.7 1 1 .7.9 1.3 1.9 1.9 2.8.6 1 1.2 1.9 1.9 2.9.4.7.8 1.5 1.1 2.3.3.8.6 1.6.9 2.6.4 1.1.7 2.2 1 3.4.2 1.2.5 2.3.9 3.5.2.7.2 1.4.2 2.2 0 .8 0 1.5.2 2.2v1.5z"/><path d="m246.8 119.5c.5.4.8 1 .9 1.7.1.7.1 1.6.1 2.5v9c0 .9 0 1.7-.1 2.5-.1.7-.3 1.3-.7 1.7-.6.4-1.3.6-2.1.7-.8 0-1.7.1-2.6.1h-8.4c-.9 0-1.8 0-2.6-.1-.8 0-1.5-.3-1.9-.8-.4-.5-.7-1.1-.7-1.9-.1-.8-.1-1.6-.1-2.6v-7.9c0-.8 0-1.6 0-2.4 0-.8.2-1.4.5-1.9.3-.5 1-.9 1.9-1.2.2-.1.4-.1.6-.1.2 0 .4 0 .6-.1h9.8c1 0 1.9 0 2.8.1.7.1 1.4.3 2 .7m-17.3-42.6c-.4-1.8-.6-3.8-.6-6 0-2.2.1-4.3.1-6.5v-9.6c0-.9 0-1.8 0-2.6 0-.8.2-1.5.6-2.1.4-.5 1-.8 1.7-1 .2-.1.3-.1.5-.1.2 0 .3 0 .5-.1h9.6c1 0 1.9 0 2.8.1.9.1 1.5.4 1.9 1 .3.5.5 1.1.5 1.9 0 .7 0 1.5 0 2.4v13.8c0 .5 0 1.1.1 1.7.1.6 0 1.1-.1 1.6v1.4c-.2.6-.2 1.2-.2 1.8 0 .6 0 1.2-.2 1.7-.2.4-.2.8-.2 1.2 0 .4 0 .8-.2 1.2-.2.7-.2 1.5-.2 2.2 0 .7-.1 1.4-.2 2.1-.1.3-.1.6-.1.9 0 .3 0 .6-.1.9-.2 1.1-.3 2.2-.4 3.4-.1 1.2-.2 2.3-.5 3.4-.2.6-.2 1.1-.2 1.6 0 .5 0 1.1-.2 1.7-.3 1.5-.5 3.1-.6 4.7 0 1.6-.3 3.2-.7 4.7-.2 1.2-.4 2.3-.4 3.6 0 1.2-.5 2.1-1.3 2.7-.3.2-.5.3-.9.4-.3.1-.7.2-1.1.2h-1.7c-.8 0-1.6-.1-2.2-.2-.6-.2-1.1-.5-1.4-.9-.4-.5-.6-1-.6-1.6 0-.6-.1-1.2-.2-1.9-.2-.9-.4-1.9-.4-2.9 0-1-.2-2-.4-2.9 0-.7 0-1.1-.1-1.4-.1-.5-.1-1-.1-1.5 0-.5 0-1-.1-1.5-.3-1.2-.5-2.4-.6-3.7 0-1.3-.2-2.5-.4-3.7-.1-.4-.1-.8-.1-1.2s0-.8-.1-1.2c-.2-.7-.3-1.5-.3-2.4 0-.8-.1-1.7-.3-2.5 0-.2 0-.3-.1-.5 0-.2-.1-.3-.1-.5-.2-.7-.2-1.3-.2-1.9-.3-.6-.4-1.2-.5-1.9"/><path d="m65.5 200.8c.2.5.3 1.4.3 2.6 0 1.2 0 2.1-.1 2.6 0 .4 0 .8-.1 1.1 0 .3-.1.6-.1 1.1-.2.7-.2 1.3-.2 1.9 0 .6-.1 1.3-.3 1.9 0 .3-.1.9-.2 1.7-.2 1-.5 2-.7 3.1-.2 1-.5 2-.9 2.9-1.5 3.7-3.4 7-5.6 9.7-2.2 2.7-5.2 4.9-8.9 6.5-.7.3-1.5.6-2.3.8-.8.2-1.6.4-2.6.7-.5.2-1 .2-1.6.2-.5 0-1.1 0-1.6.1h-1.1c-.5.2-1.2.2-2 .2-.8 0-1.5-.1-2-.3h-.7c-.4-.1-.9-.1-1.4-.2-.5 0-1-.1-1.5-.2-1.6-.4-3-.8-4.4-1.2-1.3-.4-2.6-1-3.7-1.7-.5-.3-1-.7-1.4-1-.5-.3-.9-.7-1.3-1.1-.2-.2-.5-.3-.7-.5-.3-.2-.5-.3-.7-.4-.7-.2-1.2-.1-1.4.5-.4.6-.7 1.3-.8 2.1-.1.8-.4 1.4-.9 1.8-.5.3-1.1.5-1.7.6-.7 0-1.4.1-2.2.1h-6c-.6 0-1.2 0-1.8.1-.6 0-1.2 0-1.7-.2-1.2-.4-1.8-1.2-1.9-2.3-.3-1.4-.3-2.6-.3-4.1v-76c0-.9 0-1.9 0-2.9 0-1 .2-1.8.6-2.4.3-.6.9-1 1.7-1.1.2-.1.4-.1.6-.1.2 0 .4 0 .6-.1h7.9c1.5 0 2.8.1 3.9.2 1.1.1 1.8.8 2.1 1.9.3.8.3 1.9.3 3.3-.1 1.4-.1 2.6-.1 3.6v13.7c0 .9 0 1.8 0 2.7 0 .9.1 1.7.2 2.4.1.4.2.8.2 1.1.1.3.3.5.6.6.2.2.4.2.7.2.3 0 .5 0 .7-.1.6-.3 1.1-.7 1.6-1.1.5-.4 1-.8 1.6-1.2 1.1-.7 2.2-1.4 3.4-1.9 1.2-.5 2.5-1 3.9-1.4.7-.2 1.3-.4 2-.4.7 0 1.3-.1 2-.3.6-.2 1.2-.2 1.9-.2.7 0 1.3 0 2 0h1.2c.2.1.5.1.9.1.3 0 .7 0 1 .1.9.3 1.8.4 2.6.6.8.1 1.6.4 2.3.7 3.8 1.6 6.9 3.6 9.3 6.1 2.4 2.5 4.4 5.6 6.1 9.3.4 1 .8 2 1.1 3.1.3 1.1.6 2.2.9 3.4.2.6.3 1.1.3 1.7 0 .5.1 1.1.3 1.8.2.4.2.9.2 1.4 0 .5 0 1 .1 1.5v.6z"/><path d="m88.1 148.2c.6.7.9 1.7.9 3 0 1.3 0 2.6 0 3.9 0 1.1 0 2.2 0 3.4 0 1.2-.3 2-.9 2.4-.5.4-1.1.7-1.9.7-.8.1-1.6.1-2.6.1h-7c-.9 0-1.7 0-2.4-.1-.7-.1-1.3-.3-1.8-.7-.3-.3-.6-.7-.7-1.4-.1-.7-.2-1.5-.2-2.4 0-.9 0-1.8 0-2.7 0-.9.1-1.7.1-2.4 0-.7 0-1.3.1-1.8 0-.5.2-1 .4-1.4.2-.3.4-.6.7-.7.3-.2.6-.3.9-.5.2 0 .4 0 .6-.1.2 0 .5-.1.6-.1h9.1c.8 0 1.6 0 2.4.1.7 0 1.3.3 1.7.7m.9 81.1c0 1.7 0 3.1-.1 4.2-.1 1.2-.8 2-2.2 2.4-.5.2-1 .2-1.6.2-.6 0-1.2-.1-1.9-.1h-7c-.7 0-1.5 0-2.2-.1-.7-.1-1.2-.3-1.6-.7-.5-.6-.8-1.3-.8-2.2 0-.9-.1-1.8-.1-2.8v-52.6c0-.8 0-1.7 0-2.5 0-.8.2-1.5.5-2 .5-.6 1.2-1 2.1-1.1.2-.1.4-.1.7-.1.3 0 .5 0 .7-.1h6.2c.5 0 1.1 0 1.7-.1.6 0 1.1 0 1.6.1h1c.5.2 1 .3 1.4.4.4.1.7.3 1 .7.3.4.5 1 .6 1.7 0 .7.1 1.5.1 2.4v52.3z"/><path d="m101.7 147.3h9.1c.9 0 1.7 0 2.5.1.7.1 1.3.3 1.7.7.7.7 1 2 .9 3.6 0 1.7-.1 3.2-.1 4.6v21.1 7.6c0 .6 0 1.2-.1 1.9-.1.7 0 1.3.1 1.9v1.1c.2.4.3.9.4 1.3.1.5.3.8.7.9.2.2.6.2 1 .1.4-.1.7-.3.9-.4.8-.6 1.6-1.2 2.2-2 .6-.7 1.3-1.5 1.9-2.1.7-.7 1.4-1.3 2.1-2.1.7-.7 1.4-1.5 2-2.3.3-.2.5-.4.9-.7.4-.4.8-.9 1.2-1.3.4-.5.8-.9 1.2-1.3l2.9-2.9c.2-.3.4-.6.7-.8.3-.2.6-.5.8-.8.7-.8 1.4-1.6 2.2-2.2.8-.6 1.8-1.1 2.9-1.3.4-.1 1-.1 1.7-.1.3-.1.7-.1 1-.1.3 0 .7.1 1.1.1h4.1c.7 0 1.5 0 2.4-.1 1-.1 1.8 0 2.4.1h1.4c.4.2.8.3 1.2.3.4 0 .7.2.9.6.2.2.2.6.1 1-.1.4-.3.7-.4.9-.5.8-1.1 1.6-1.9 2.2-.7.6-1.5 1.3-2.1 1.9-.6.6-1.1 1.2-1.7 1.7-.5.6-1.1 1.1-1.8 1.6-.4.3-.8.7-1.1 1.1-.3.4-.6.7-1.1 1.1-.4.2-.8.6-1.1 1-.3.4-.7.8-1.1 1.1l-4.7 4.7c-.6.5-1.1 1-1.6 1.4-.5.5-.9 1-1.3 1.7-.2.2-.3.6-.5.9-.2.4-.2.8 0 1.2.2.9.5 1.7.9 2.2.5.6.9 1.2 1.3 1.9.7.9 1.3 1.8 1.8 2.7.5.9 1.1 1.8 1.8 2.7l13.1 19.8c.8 1.2 1.6 2.3 2.4 3.5.8 1.2 1.5 2.3 2.2 3.5.2.4.4.9.4 1.5 0 .6-.1 1-.6 1.4-.3.2-.7.2-1 .2-.3 0-.7.1-1.1.3-.3.1-.7.1-1.1.1-.4 0-.8-.1-1.2-.1h-4.6c-1.3 0-2.9 0-4.7.1-1.8 0-3.2-.1-4.1-.6-.9-.4-1.7-1.2-2.4-2.3-.7-1.1-1.3-2.1-1.9-3.1-1.4-2.2-2.8-4.5-4.2-6.8-1.4-2.3-2.8-4.5-4.2-6.8-.7-1.1-1.3-2.2-1.9-3.2-.6-1.1-1.3-2.1-2.1-3.1-.2-.3-.5-.6-.9-1-.4-.4-.9-.5-1.4-.4-.7.2-1.3.4-1.7.7-.4.3-.8.7-1.2 1.1-.7.5-1.3 1.1-1.9 1.7-.6.7-1 1.5-1.4 2.4-.2.7-.2 1.4-.2 2.2 0 .8 0 1.6 0 2.3v7.7c0 .6 0 1.2.1 1.9 0 .7.1 1.4.1 2.2 0 .7 0 1.4-.1 2.1-.1.6-.2 1.1-.5 1.4-.3.5-.9.9-1.6 1.1-.7.2-1.5.3-2.4.4-.9 0-1.9 0-2.9 0-1 0-1.9-.1-2.6-.1-.9 0-1.9 0-3 .1-1.1 0-2-.1-2.6-.3-1.1-.4-1.7-1.2-1.7-2.2-.1-1.1-.1-2.3-.1-3.7v-14.3-50-11.6c0-.9 0-1.9-.1-2.9 0-1 .1-1.8.4-2.4.3-.6.9-1 1.7-1.2.2 0 .4 0 .6-.1.2 0 .4 0 .6 0"/><path d="m223.1 203.4c.2.7.2 1.4 0 2.2-.2.8-.5 1.4-.9 1.6-.4.3-1 .6-1.8.7-.8.1-1.7.2-2.6.3-1 0-1.9 0-2.9 0-1 0-1.8-.1-2.6-.1h-30.3c-.6 0-1.1 0-1.7 0-.5 0-1 .1-1.4.2-.7.3-1.1.7-1.2 1-.2.2-.3.5-.5.9-.2.5-.2.9-.1 1.3.2.5.3 1 .3 1.4 0 .5.1.9.3 1.4.7 2 1.5 3.6 2.4 4.9 1 1.3 2.3 2.4 3.9 3.4.7.4 1.3.7 2.1.8.7.1 1.4.3 2.2.6.7.2 1.6.3 2.7.4 1.2.1 2.2 0 3-.1h1.1c.8-.2 1.6-.4 2.3-.6.7-.2 1.4-.4 2.1-.7.8-.4 1.8-1 2.8-1.6 1-.7 1.8-1.3 2.3-2 .4-.6.9-1.1 1.3-1.7.5-.5 1-.9 1.7-1.2.8-.4 1.9-.6 3.2-.6 1.3 0 2.5.1 3.6.1.5 0 1 0 1.6-.1.5 0 1 0 1.4.2h1.2c.8.2 1.4.4 1.7.6.3.2.5.5.6 1.1 0 .6 0 1.1-.2 1.5-.4 1.2-.9 2.2-1.4 3.1-.5.9-1.1 1.8-1.7 2.7-1.8 2.7-3.9 4.9-6.2 6.6-2.3 1.7-5.2 3.1-8.7 4.2-.9.3-1.8.5-2.7.6-.9.1-1.9.2-2.9.5-.3.1-.7.1-1.1.1-.4 0-.7 0-1.1.1h-1.4c-.4.2-.9.2-1.4.2-.5 0-1-.1-1.4-.2-.7-.1-1.2-.1-1.7 0-.5.1-1 0-1.6-.1-.4-.2-.9-.3-1.4-.3-.5 0-1-.1-1.4-.2-.9-.2-1.8-.4-2.7-.6-.9-.2-1.7-.5-2.5-.9-.9-.3-1.8-.6-2.6-.9-.8-.3-1.5-.6-2.2-1.1-2.7-1.7-5-3.6-7.1-5.8-2.1-2.2-3.8-4.8-5.1-7.7-.4-.9-.7-1.8-1-2.8-.3-1-.6-1.9-1-2.9-.1-.3-.1-.6-.1-.9 0-.3 0-.6-.1-.9-.3-1-.5-2.1-.6-3.2-.1-1.2-.2-2.3-.2-3.5 0-.4 0-.9-.1-1.4 0-.5 0-1 .1-1.4v-1.5l.4-3c.3-1.4.6-2.8.9-4.1.2-1.3.6-2.6 1.1-3.7 3.6-8.6 9.6-14.8 18.2-18.3 1.2-.5 2.3-.9 3.6-1.1 1.2-.2 2.5-.5 3.8-.8.7-.1 1.3-.1 1.9-.1.6 0 1.2 0 1.9-.1 4.2-.1 7.9.4 10.9 1.4 3 1 5.8 2.4 8.2 4.1.7.5 1.5 1.1 2.2 1.7.7.6 1.4 1.3 2 1.9.2.4.6.7 1 1 .7.9 1.3 1.9 1.9 2.8.6 1 1.2 1.9 1.9 2.9.4.7.8 1.5 1.1 2.3.3.8.6 1.6.9 2.6.4 1.1.7 2.2 1 3.4.2 1.2.5 2.3.9 3.5.2.7.2 1.4.2 2.2 0 .8 0 1.5.2 2.2v1.5z"/><path d="m246.8 217.9c.5.4.8 1 .9 1.7.1.7.1 1.6.1 2.5v9c0 .9 0 1.7-.1 2.5-.1.7-.3 1.3-.7 1.7-.6.4-1.3.6-2.1.7-.8 0-1.7.1-2.6.1h-8.4c-.9 0-1.8 0-2.6-.1-.8 0-1.5-.3-1.9-.8-.4-.5-.7-1.1-.7-1.9-.1-.8-.1-1.6-.1-2.6v-7.9c0-.8 0-1.6 0-2.4 0-.8.2-1.4.5-1.9.3-.5 1-.9 1.9-1.2.2-.1.4-.1.6-.1.2 0 .4 0 .6-.1h9.8c1 0 1.9 0 2.8.1.7 0 1.4.2 2 .7m-17.3-42.7c-.4-1.8-.6-3.8-.6-6 0-2.2.1-4.3.1-6.5v-9.6c0-.9 0-1.8 0-2.6 0-.8.2-1.5.6-2.1.4-.5 1-.8 1.7-1 .2-.1.3-.1.5-.1.2 0 .3 0 .5-.1h9.6c1 0 1.9 0 2.8.1.9.1 1.5.4 1.9 1 .3.5.5 1.1.5 1.9 0 .7 0 1.5 0 2.4v13.8c0 .5 0 1.1.1 1.7.1.6 0 1.1-.1 1.6v1.4c-.2.6-.2 1.2-.2 1.8 0 .6 0 1.2-.2 1.7-.2.4-.2.8-.2 1.2 0 .4 0 .8-.2 1.2-.2.7-.2 1.5-.2 2.2 0 .7-.1 1.4-.2 2.1-.1.3-.1.6-.1.9 0 .3 0 .6-.1.9-.2 1.1-.3 2.2-.4 3.4-.1 1.2-.2 2.3-.5 3.4-.2.6-.2 1.1-.2 1.6 0 .5 0 1.1-.2 1.7-.3 1.5-.5 3.1-.6 4.7 0 1.6-.3 3.2-.7 4.7-.2 1.2-.4 2.3-.4 3.6 0 1.2-.5 2.1-1.3 2.7-.3.2-.5.3-.9.4-.3.1-.7.2-1.1.2h-1.7c-.8 0-1.6-.1-2.2-.2-.6-.2-1.1-.5-1.4-.9-.4-.5-.6-1-.6-1.6 0-.6-.1-1.2-.2-1.9-.2-.9-.4-1.9-.4-2.9 0-1-.2-2-.4-2.9 0-.7 0-1.1-.1-1.4-.1-.5-.1-1-.1-1.5 0-.5 0-1-.1-1.5-.3-1.2-.5-2.4-.6-3.7 0-1.3-.2-2.5-.4-3.7-.1-.4-.1-.8-.1-1.2 0-.4 0-.8-.1-1.2-.2-.7-.3-1.5-.3-2.4 0-.8-.1-1.7-.3-2.5 0-.2 0-.3-.1-.5 0-.2-.1-.3-.1-.5-.2-.7-.2-1.3-.2-1.9-.3-.6-.4-1.2-.5-1.9"/>
</svg>