<svg xmlns="http://www.w3.org/2000/svg" xmlns:xlink="http://www.w3.org/1999/xlink" version="1.1" x="0px" y="0px" viewBox="0 0 100 100" enable-background="new 0 0 100 100" xml:space="preserve"><path fill="#FAF5F0" d="M95.833,25h-50c-4.167,0-4.167,0-4.167,4.167v4.167c0,4.167,0,4.167,4.167,4.167h50c4.167,0,4.167,0,4.167-4.167v-4.167  C100,25,100,25,95.833,25z M95.833,62.5h-50c-4.167,0-4.167,0-4.167,4.167v4.167c0,4.167,0,4.167,4.167,4.167h50  C100,75,100,75,100,70.833v-4.167C100,62.5,100,62.5,95.833,62.5z M95.833,87.5h-50c-4.167,0-4.167,0-4.167,4.167v4.167  c0,4.167,0,4.167,4.167,4.167h50C100,100,100,100,100,95.833v-4.167C100,87.5,100,87.5,95.833,87.5z M95.833,0h-50  c-4.167,0-4.167,0-4.167,4.167v4.167c0,4.167,0,4.167,4.167,4.167h50c4.167,0,4.167,0,4.167-4.167V4.167C100,0,100,0,95.833,0z   M22.917,0H6.25L4.167,10.417H12.5V37.5h10.417V0z M14.583,61.75C6.25,61.75,0,67.333,0,75.667h9.167  c0-2.917,1.667-5.583,5.417-5.583c3.375,0,5.167,2.146,5.125,4.771c-0.021,1.708-1.188,3.292-6,7.333L0,93.75V100h29.167v-9.5H18  l5.104-5.125c4.688-4.688,6.062-7.396,6.062-11.375C29.167,67.667,22.917,61.75,14.583,61.75z"></path></svg>