<svg xmlns="http://www.w3.org/2000/svg" xmlns:xlink="http://www.w3.org/1999/xlink" version="1.1" x="0px" y="0px" viewBox="17 -18 100 100" enable-background="new 17 -18 100 100" xml:space="preserve"><path fill="#FAF5F0" d="M93.2-3.9C106-3.9,117,4.9,117,23.9c0,26.7-21.8,42.4-34.2,44l-2.6-7.4c7.2-4.7,13.1-12.8,12.5-17.5  c-8.1-0.6-21.2-4.9-21.2-22.5C71.4,7.2,78.9-3.9,93.2-3.9z M38.9-3.9c12.8,0,23.8,8.8,23.8,27.8c0,26.7-21.8,42.4-34.2,44l-2.6-7.4  C33,55.8,38.9,47.8,38.2,43C30.2,42.4,17,38.1,17,20.5C17,7.2,24.6-3.9,38.9-3.9z"></path></svg>