<svg xmlns="http://www.w3.org/2000/svg" xmlns:xlink="http://www.w3.org/1999/xlink" version="1.1" x="0px" y="0px" viewBox="0 0 100 100" enable-background="new 0 0 100 100" xml:space="preserve"><path fill="#FAF5F0" d="M12.5,87.5C19.404,87.5,25,81.904,25,75s-5.596-12.5-12.5-12.5C5.596,62.5,0,68.096,0,75S5.596,87.5,12.5,87.5z M12.5,25  C19.396,25,25,19.396,25,12.5S19.396,0,12.5,0S0,5.604,0,12.5S5.604,25,12.5,25z M95.833,25h-50c-4.167,0-4.167,0-4.167,4.167v4.167  c0,4.167,0,4.167,4.167,4.167h50c4.167,0,4.167,0,4.167-4.167v-4.167C100,25,100,25,95.833,25z M95.833,62.5h-50  c-4.167,0-4.167,0-4.167,4.167v4.167c0,4.167,0,4.167,4.167,4.167h50C100,75,100,75,100,70.833v-4.167  C100,62.5,100,62.5,95.833,62.5z M95.833,87.5h-50c-4.167,0-4.167,0-4.167,4.167v4.167c0,4.167,0,4.167,4.167,4.167h50  C100,100,100,100,100,95.833v-4.167C100,87.5,100,87.5,95.833,87.5z M95.833,0h-50c-4.167,0-4.167,0-4.167,4.167v4.167  c0,4.167,0,4.167,4.167,4.167h50c4.167,0,4.167,0,4.167-4.167V4.167C100,0,100,0,95.833,0z"></path></svg>