<?xml version="1.0" encoding="utf-8"?>
<!-- Generator: Adobe Illustrator 14.0.0, SVG Export Plug-In . SVG Version: 6.00 Build 43363)  -->
<!DOCTYPE svg PUBLIC "-//W3C//DTD SVG 1.0//EN" "http://www.w3.org/TR/2001/REC-SVG-20010904/DTD/svg10.dtd">
<svg version="1.0" id="Layer_1" xmlns="http://www.w3.org/2000/svg" xmlns:xlink="http://www.w3.org/1999/xlink" x="0px" y="0px"
	 width="100px" height="58.526px" viewBox="0 0 100 58.526" enable-background="new 0 0 100 58.526" xml:space="preserve">
<path d="M98.878,38.354L100,38.296c-0.674-10.46-9.368-18.738-19.999-18.738c-3.3,0-6.409,0.802-9.154,2.214l-4.568-8.047
	l1.211-2.686c0.25,0.049,0.469,0.075,0.645,0.075c1.176,0,5.174-3.63,4.408-5.579c-0.33-0.84-2.259-0.038-4.673,0.469
	c-0.538,0.113-2.193,0.104-3.152,0c-2.233-0.242-4.194-0.762-4.565,0.259c-0.446,1.233,2.614,3.072,5.181,4.095l-0.654,1.451H32.187
	l0.972-2.71l-0.265-0.095l1.489-4.151L34.34,4.838l0-0.001c-0.598-0.206-1.923-0.877-2.208-1.643
	c-0.063-0.171-0.119-0.449,0.133-0.878c0.472-0.806,4.493-0.834,8.604-0.06L41.182,0.6c-2.083-0.392-8.988-1.491-10.369,0.863
	c-0.448,0.765-0.538,1.566-0.26,2.317c0.314,0.847,1.046,1.482,1.737,1.919l-0.982,2.738l-0.265-0.095L26.489,21.04
	c-2.335-0.953-4.889-1.482-7.566-1.482c-1.016,0-2.013,0.077-2.988,0.223l0.184,1.109C6.998,22.245,0,30.106,0,39.604
	c0,10.451,8.472,18.923,18.923,18.923c7.83,0,14.548-4.755,17.426-11.535l1.027,0.453c1.025-2.408,1.593-5.058,1.593-7.841
	c0-7.59-4.22-14.193-10.44-17.597l0.99-2.76l18.15,20.153c-0.65,0.892-1.043,1.983-1.043,3.172c0,2.989,2.423,5.413,5.413,5.413
	c0.22,0,0.437-0.018,0.649-0.043l0.851,3.226h-1.23v2.247h4.795v-2.247h-1.822L54.31,47.48c1.773-0.823,3.017-2.576,3.121-4.635
	l3.868-0.41c1.367,9.105,9.215,16.091,18.702,16.091c10.45,0,18.923-8.472,18.923-18.923c0-0.424-0.02-0.843-0.047-1.261
	C98.878,38.347,98.878,38.35,98.878,38.354z M34.476,39.604c0,8.59-6.963,15.554-15.553,15.554S3.37,48.193,3.37,39.604
	c0-8.589,6.963-15.553,15.553-15.553c2.274,0,4.433,0.493,6.38,1.37l-2.558,7.132l-3.009,4.622c-0.25-0.081-0.512-0.136-0.789-0.136
	c-1.417,0-2.565,1.148-2.565,2.564c0,1.417,1.148,2.565,2.565,2.565c1.417,0,2.565-1.148,2.565-2.565
	c0-0.522-0.158-1.008-0.427-1.414l3.125-4.8l2.6-7.189C31.396,28.905,34.476,33.894,34.476,39.604z M53.19,37.285
	c-0.372-0.081-0.756-0.126-1.151-0.126c-0.186,0-0.368,0.01-0.548,0.027l-0.953-3.613h1.371v-2.246h-4.795v2.246h1.682l1.066,4.045
	c-0.182,0.08-0.353,0.178-0.524,0.276L30.38,16.846l1-2.789h32.283L53.19,37.285z M60.004,40.879l-2.742,0.291
	c-0.324-1.202-1.048-2.239-2.025-2.957l10.185-22.586l3.961,6.977c-5.66,3.543-9.427,9.831-9.427,17
	C59.955,40.033,59.976,40.457,60.004,40.879z M64.448,39.604c0-5.495,2.853-10.321,7.154-13.087l6.264,11.033
	c-0.396,0.411-0.672,0.934-0.78,1.517l-12.618,1.34C64.455,40.14,64.448,39.873,64.448,39.604z M80.001,55.157
	c-7.747,0-14.168-5.665-15.354-13.077l12.614-1.339c0.446,1.074,1.505,1.83,2.74,1.83c1.64,0,2.969-1.328,2.969-2.968
	c0-1.639-1.329-2.968-2.969-2.968c-0.23,0-0.453,0.032-0.669,0.082l-6.265-11.035c2.087-1.042,4.441-1.632,6.934-1.632
	c8.59,0,15.553,6.964,15.553,15.553C95.554,48.193,88.591,55.157,80.001,55.157z"/>
</svg>
